<svg width="17" height="16" viewBox="0 0 17 16" fill="none" xmlns="http://www.w3.org/2000/svg">
<g clip-path="url(#clip0_224_742)">
<path d="M10.5607 10.665C14.9413 10.643 16.5 8.323 16.5 6.33367C16.5 5.21567 15.708 4.28033 14.6567 4.05433C14.7473 3.797 14.826 3.56033 14.8787 3.381C15.114 2.58567 14.962 1.74567 14.4613 1.07567C13.9507 0.392999 13.17 0.000999451 12.3187 0.000999451H4.68067C3.82933 0.000999451 3.048 0.392999 2.53733 1.07567C2.03667 1.74567 1.88467 2.58633 2.12 3.381C2.17333 3.56033 2.25133 3.797 2.34267 4.055C1.29133 4.281 0.5 5.21633 0.5 6.33433C0.5 8.32367 2.05933 10.6437 6.43933 10.6657C6.47667 10.867 6.5 11.0723 6.5 11.2817V13.3343C6.5 14.5517 5.476 14.6623 5.16667 14.6677H4.5C4.13133 14.6677 3.83333 14.9657 3.83333 15.3343C3.83333 15.703 4.13133 16.001 4.5 16.001H12.5C12.8687 16.001 13.1667 15.703 13.1667 15.3343C13.1667 14.9657 12.8687 14.6677 12.5 14.6677H11.8387C11.524 14.6623 10.5 14.5517 10.5 13.3343V11.281C10.5 11.0723 10.5233 10.867 10.5607 10.6657V10.665ZM14.1347 5.327C14.146 5.327 14.1553 5.33367 14.1667 5.33367C14.718 5.33367 15.1667 5.78233 15.1667 6.33367C15.1667 7.68967 14.094 9.13167 11.1427 9.31367C11.29 9.11433 11.4587 8.92967 11.6507 8.76633C12.81 7.781 13.606 6.46433 14.1347 5.327ZM1.83333 6.33367C1.83333 5.78233 2.282 5.33367 2.83333 5.33367C2.84467 5.33367 2.854 5.32767 2.86467 5.327C3.394 6.46433 4.19 7.781 5.34933 8.76633C5.54133 8.92967 5.71 9.11367 5.85733 9.31367C2.906 9.13167 1.83333 7.68967 1.83333 6.33367ZM7.028 6.509C6.852 6.38767 6.778 6.16367 6.848 5.961L7.194 4.89033L6.28333 4.22367C6.06533 4.06367 6.018 3.75767 6.178 3.53967C6.27 3.41433 6.41667 3.33967 6.572 3.33967H7.69267L8.03333 2.27767C8.11933 2.01967 8.398 1.881 8.656 1.967C8.80267 2.01567 8.918 2.131 8.96667 2.27767L9.30667 3.33967H10.4273C10.6973 3.33967 10.9167 3.55833 10.9167 3.829C10.9167 3.98567 10.842 4.13233 10.716 4.22433L9.80533 4.891L10.1513 5.96167C10.234 6.219 10.0927 6.495 9.83467 6.57833C9.68533 6.62633 9.522 6.59967 9.39533 6.507L8.5 5.84833L7.604 6.50633C7.43333 6.63367 7.2 6.63433 7.028 6.509Z" fill="#001AFF"/>
</g>
<defs>
<clipPath id="clip0_224_742">
<rect width="16" height="16" fill="white" transform="translate(0.5)"/>
</clipPath>
</defs>
</svg>
