<svg width="16" height="12" viewBox="0 0 16 12" fill="none" xmlns="http://www.w3.org/2000/svg">
<path d="M12.6667 12H3.33333C1.49533 12 0 10.5047 0 8.66667V8.052C0 7.684 0.298667 7.38533 0.666667 7.38533C0.682667 7.38533 0.702 7.386 0.721333 7.38733C1.45867 7.37333 2.05467 6.76867 2.05467 6.02733C2.05467 5.286 1.45867 4.68067 0.721333 4.66667C0.702 4.668 0.682667 4.66867 0.667333 4.66867C0.299333 4.66867 0.000666667 4.37 0.000666667 4.002V3.33267C0 1.49533 1.49533 0 3.33333 0H12.6667C14.5047 0 16 1.49533 16 3.33333V4C16 4.368 15.7013 4.66667 15.3333 4.66667C14.598 4.66667 14 5.26467 14 6C14 6.73533 14.598 7.33333 15.3333 7.33333C15.7013 7.33333 16 7.632 16 8V8.66667C16 10.5047 14.5047 12 12.6667 12Z" fill="#001AFF"/>
</svg>
 