<svg width="1080" height="1080" viewBox="0 0 1080 1080" fill="none" xmlns="http://www.w3.org/2000/svg">
<path d="M41.0036 102.256H132.216V158.431C132.216 168.47 131.589 175.081 130.334 178.267C129.369 180.68 127.342 182.755 124.253 184.492C120.103 186.809 115.711 187.967 111.078 187.967H104.128V193.324H188.102V187.967H181.152C176.519 187.967 172.127 186.857 167.977 184.637C164.888 183.093 162.765 180.728 161.607 177.543C160.545 174.454 160.014 168.084 160.014 158.431V31.7476C160.014 21.8059 160.641 15.2425 161.896 12.0573C162.861 9.64426 164.84 7.56905 167.832 5.83168C172.079 3.51517 176.519 2.35692 181.152 2.35692H188.102V-3H104.128V2.35692H111.078C119.089 2.35692 124.929 4.72168 128.596 9.45122C131.009 12.5399 132.216 19.972 132.216 31.7476V91.5424H41.0036V31.7476C41.0036 21.8059 41.631 15.2425 42.8857 12.0573C43.851 9.64426 45.8779 7.56905 48.9666 5.83168C53.117 3.51517 57.5087 2.35692 62.1417 2.35692H69.236V-3H-14.8821V2.35692H-7.93259C0.175176 2.35692 6.06296 4.72168 9.73076 9.45122C12.0473 12.5399 13.2055 19.972 13.2055 31.7476V158.431C13.2055 168.47 12.5781 175.081 11.3234 178.267C10.3581 180.68 8.37947 182.755 5.38731 184.492C1.14039 186.809 -3.29958 187.967 -7.93259 187.967H-14.8821V193.324H69.236V187.967H62.1417C57.5087 187.967 53.117 186.857 48.9666 184.637C45.9744 183.093 43.8992 180.728 42.741 177.543C41.5827 174.454 41.0036 168.084 41.0036 158.431V102.256ZM335.779 187.967V193.324H405.274V187.967H397.89C390.168 187.967 384.232 184.733 380.082 178.267C378.055 175.274 377.042 168.325 377.042 157.418V77.7881C377.042 58.0978 375.063 42.7992 371.106 31.8924C367.245 21.082 359.571 11.7677 348.085 3.94952C336.696 -3.77217 321.156 -7.63301 301.466 -7.63301C280.038 -7.63301 263.774 -3.91695 252.674 3.51517C241.574 10.9473 233.708 20.9372 229.075 33.485C225.986 42.0753 224.442 58.1943 224.442 81.842V158.576C224.442 170.641 222.753 178.556 219.374 182.32C216.093 186.085 210.736 187.967 203.304 187.967H195.92V193.324H280.762V187.967H273.233C265.125 187.967 259.334 185.409 255.859 180.293C253.446 176.819 252.24 169.58 252.24 158.576V73.0103C252.24 65.3852 252.916 56.65 254.267 46.8049C255.715 36.9597 258.272 29.2863 261.94 23.7846C265.608 18.2829 270.868 13.7464 277.721 10.1751C284.671 6.60384 293.165 4.81821 303.203 4.81821C316.04 4.81821 327.526 7.61732 337.661 13.2155C347.796 18.8138 354.697 25.9563 358.365 34.6432C362.129 43.4266 364.011 58.2426 364.011 79.0912V158.576C364.011 170.834 362.66 178.508 359.957 181.597C356.193 185.843 350.595 187.967 343.163 187.967H335.779ZM529.931 -3L454.065 162.196V31.0237C454.065 18.9585 455.368 11.4299 457.975 8.43774C461.546 4.38386 467.192 2.35692 474.914 2.35692H481.863V-3H413.527V2.35692H420.476C428.777 2.35692 434.665 4.86647 438.139 9.88556C440.263 12.9742 441.325 20.0203 441.325 31.0237V159.3C441.325 167.987 440.359 174.261 438.429 178.122C437.078 180.921 434.568 183.237 430.9 185.071C427.329 187.002 421.538 187.967 413.527 187.967V193.324H469.123L540.355 39.7106L610.43 193.324H666.026V187.967H659.221C650.824 187.967 644.888 185.457 641.413 180.438C639.289 177.35 638.228 170.304 638.228 159.3V31.0237C638.228 18.9585 639.579 11.4299 642.281 8.43774C645.853 4.38386 651.499 2.35692 659.221 2.35692H666.026V-3H582.631V2.35692H589.581C597.978 2.35692 603.866 4.86647 607.244 9.88556C609.368 12.9742 610.43 20.0203 610.43 31.0237V162.196L534.709 -3H529.931ZM808.056 62.7308H732.046L718.726 31.7476C715.444 24.1224 713.804 18.4277 713.804 14.6634C713.804 11.6712 715.203 9.01687 718.002 6.70037C720.898 4.48038 727.075 3.03257 736.534 2.35692V-3H674.713V2.35692C682.917 3.80473 688.225 5.68689 690.638 8.0034C695.561 12.6364 701.014 22.0472 706.999 36.2358L776.06 197.812H781.127L849.464 34.4984C854.966 21.3716 859.936 12.8295 864.376 8.87209C868.913 5.01125 875.187 2.83952 883.198 2.35692V-3H805.74V2.35692C813.558 2.743 818.818 4.04604 821.521 6.26602C824.32 8.486 825.72 11.1886 825.72 14.3738C825.72 18.6207 823.789 25.3289 819.928 34.4984L808.056 62.7308ZM804.002 73.4447L770.703 152.785L736.534 73.4447H804.002ZM882.764 193.324H936.043L1056.07 46.081V159.3C1056.07 171.365 1054.72 178.894 1052.01 181.886C1048.44 185.94 1042.8 187.967 1035.07 187.967H1028.27V193.324H1096.61V187.967H1089.66C1081.36 187.967 1075.47 185.457 1071.99 180.438C1069.87 177.35 1068.81 170.304 1068.81 159.3V-6.18519H1063.6L934.161 151.916V31.0237C934.161 18.9585 935.464 11.4299 938.07 8.43774C941.738 4.38386 947.384 2.35692 955.01 2.35692H961.959V-3H893.622V2.35692H900.427C908.824 2.35692 914.76 4.86647 918.235 9.88556C920.359 12.9742 921.42 20.0203 921.42 31.0237V167.553C915.726 174.213 911.382 178.604 908.39 180.728C905.494 182.851 901.199 184.83 895.504 186.664C892.705 187.533 888.458 187.967 882.764 187.967V193.324Z" fill="white"/>
<path d="M41.0036 313.744H132.216V257.569C132.216 247.53 131.589 240.919 130.334 237.733C129.369 235.32 127.342 233.245 124.253 231.508C120.103 229.191 115.711 228.033 111.078 228.033H104.128V222.676H188.102V228.033H181.152C176.519 228.033 172.127 229.143 167.977 231.363C164.888 232.907 162.765 235.272 161.607 238.457C160.545 241.546 160.014 247.916 160.014 257.569V384.252C160.014 394.194 160.641 400.758 161.896 403.943C162.861 406.356 164.84 408.431 167.832 410.168C172.079 412.485 176.519 413.643 181.152 413.643H188.102V419H104.128V413.643H111.078C119.089 413.643 124.929 411.278 128.596 406.549C131.009 403.46 132.216 396.028 132.216 384.252V324.458H41.0036V384.252C41.0036 394.194 41.631 400.758 42.8857 403.943C43.851 406.356 45.8779 408.431 48.9666 410.168C53.117 412.485 57.5087 413.643 62.1417 413.643H69.236V419H-14.8821V413.643H-7.93259C0.175176 413.643 6.06296 411.278 9.73076 406.549C12.0473 403.46 13.2055 396.028 13.2055 384.252V257.569C13.2055 247.53 12.5781 240.919 11.3234 237.733C10.3581 235.32 8.37947 233.245 5.38731 231.508C1.14039 229.191 -3.29958 228.033 -7.93259 228.033H-14.8821V222.676H69.236V228.033H62.1417C57.5087 228.033 53.117 229.143 48.9666 231.363C45.9744 232.907 43.8992 235.272 42.741 238.457C41.5827 241.546 41.0036 247.916 41.0036 257.569V313.744ZM335.779 228.033V222.676H405.274V228.033H397.89C390.168 228.033 384.232 231.267 380.082 237.733C378.055 240.726 377.042 247.675 377.042 258.582V338.212C377.042 357.902 375.063 373.201 371.106 384.108C367.245 394.918 359.571 404.232 348.085 412.05C336.696 419.772 321.156 423.633 301.466 423.633C280.038 423.633 263.774 419.917 252.674 412.485C241.574 405.053 233.708 395.063 229.075 382.515C225.986 373.925 224.442 357.806 224.442 334.158V257.424C224.442 245.359 222.753 237.444 219.374 233.68C216.093 229.915 210.736 228.033 203.304 228.033H195.92V222.676H280.762V228.033H273.233C265.125 228.033 259.334 230.591 255.859 235.707C253.446 239.181 252.24 246.42 252.24 257.424V342.99C252.24 350.615 252.916 359.35 254.267 369.195C255.715 379.04 258.272 386.714 261.94 392.215C265.608 397.717 270.868 402.254 277.721 405.825C284.671 409.396 293.165 411.182 303.203 411.182C316.04 411.182 327.526 408.383 337.661 402.784C347.796 397.186 354.697 390.044 358.365 381.357C362.129 372.573 364.011 357.757 364.011 336.909V257.424C364.011 245.166 362.66 237.492 359.957 234.403C356.193 230.157 350.595 228.033 343.163 228.033H335.779ZM529.931 419L454.065 253.804V384.976C454.065 397.041 455.368 404.57 457.975 407.562C461.546 411.616 467.192 413.643 474.914 413.643H481.863V419H413.527V413.643H420.476C428.777 413.643 434.665 411.134 438.139 406.114C440.263 403.026 441.325 395.98 441.325 384.976V256.7C441.325 248.013 440.359 241.739 438.429 237.878C437.078 235.079 434.568 232.763 430.9 230.929C427.329 228.998 421.538 228.033 413.527 228.033V222.676H469.123L540.355 376.289L610.43 222.676H666.026V228.033H659.221C650.824 228.033 644.888 230.543 641.413 235.562C639.289 238.65 638.228 245.696 638.228 256.7V384.976C638.228 397.041 639.579 404.57 642.281 407.562C645.853 411.616 651.499 413.643 659.221 413.643H666.026V419H582.631V413.643H589.581C597.978 413.643 603.866 411.134 607.244 406.114C609.368 403.026 610.43 395.98 610.43 384.976V253.804L534.709 419H529.931ZM808.056 353.269H732.046L718.726 384.252C715.444 391.878 713.804 397.572 713.804 401.337C713.804 404.329 715.203 406.983 718.002 409.3C720.898 411.52 727.075 412.967 736.534 413.643V419H674.713V413.643C682.917 412.195 688.225 410.313 690.638 407.997C695.561 403.364 701.014 393.953 706.999 379.764L776.06 218.188H781.127L849.464 381.502C854.966 394.628 859.936 403.171 864.376 407.128C868.913 410.989 875.187 413.16 883.198 413.643V419H805.74V413.643C813.558 413.257 818.818 411.954 821.521 409.734C824.32 407.514 825.72 404.811 825.72 401.626C825.72 397.379 823.789 390.671 819.928 381.502L808.056 353.269ZM804.002 342.555L770.703 263.215L736.534 342.555H804.002ZM882.764 222.676H936.043L1056.07 369.919V256.7C1056.07 244.635 1054.72 237.106 1052.01 234.114C1048.44 230.06 1042.8 228.033 1035.07 228.033H1028.27V222.676H1096.61V228.033H1089.66C1081.36 228.033 1075.47 230.543 1071.99 235.562C1069.87 238.65 1068.81 245.696 1068.81 256.7V422.185H1063.6L934.161 264.084V384.976C934.161 397.041 935.464 404.57 938.07 407.562C941.738 411.616 947.384 413.643 955.01 413.643H961.959V419H893.622V413.643H900.427C908.824 413.643 914.76 411.134 918.235 406.114C920.359 403.026 921.42 395.98 921.42 384.976V248.447C915.726 241.787 911.382 237.396 908.39 235.272C905.494 233.149 901.199 231.17 895.504 229.336C892.705 228.467 888.458 228.033 882.764 228.033V222.676Z" fill="white"/>
<path d="M41.0036 544.256H132.216V600.431C132.216 610.47 131.589 617.081 130.334 620.267C129.369 622.68 127.342 624.755 124.253 626.492C120.103 628.809 115.711 629.967 111.078 629.967H104.128V635.324H188.102V629.967H181.152C176.519 629.967 172.127 628.857 167.977 626.637C164.888 625.093 162.765 622.728 161.607 619.543C160.545 616.454 160.014 610.084 160.014 600.431V473.748C160.014 463.806 160.641 457.242 161.896 454.057C162.861 451.644 164.84 449.569 167.832 447.832C172.079 445.515 176.519 444.357 181.152 444.357H188.102V439H104.128V444.357H111.078C119.089 444.357 124.929 446.722 128.596 451.451C131.009 454.54 132.216 461.972 132.216 473.748V533.542H41.0036V473.748C41.0036 463.806 41.631 457.242 42.8857 454.057C43.851 451.644 45.8779 449.569 48.9666 447.832C53.117 445.515 57.5087 444.357 62.1417 444.357H69.236V439H-14.8821V444.357H-7.93259C0.175176 444.357 6.06296 446.722 9.73076 451.451C12.0473 454.54 13.2055 461.972 13.2055 473.748V600.431C13.2055 610.47 12.5781 617.081 11.3234 620.267C10.3581 622.68 8.37947 624.755 5.38731 626.492C1.14039 628.809 -3.29958 629.967 -7.93259 629.967H-14.8821V635.324H69.236V629.967H62.1417C57.5087 629.967 53.117 628.857 48.9666 626.637C45.9744 625.093 43.8992 622.728 42.741 619.543C41.5827 616.454 41.0036 610.084 41.0036 600.431V544.256ZM335.779 629.967V635.324H405.274V629.967H397.89C390.168 629.967 384.232 626.733 380.082 620.267C378.055 617.274 377.042 610.325 377.042 599.418V519.788C377.042 500.098 375.063 484.799 371.106 473.892C367.245 463.082 359.571 453.768 348.085 445.95C336.696 438.228 321.156 434.367 301.466 434.367C280.038 434.367 263.774 438.083 252.674 445.515C241.574 452.947 233.708 462.937 229.075 475.485C225.986 484.075 224.442 500.194 224.442 523.842V600.576C224.442 612.641 222.753 620.556 219.374 624.32C216.093 628.085 210.736 629.967 203.304 629.967H195.92V635.324H280.762V629.967H273.233C265.125 629.967 259.334 627.409 255.859 622.293C253.446 618.819 252.24 611.58 252.24 600.576V515.01C252.24 507.385 252.916 498.65 254.267 488.805C255.715 478.96 258.272 471.286 261.94 465.785C265.608 460.283 270.868 455.746 277.721 452.175C284.671 448.604 293.165 446.818 303.203 446.818C316.04 446.818 327.526 449.617 337.661 455.216C347.796 460.814 354.697 467.956 358.365 476.643C362.129 485.427 364.011 500.243 364.011 521.091V600.576C364.011 612.834 362.66 620.508 359.957 623.597C356.193 627.843 350.595 629.967 343.163 629.967H335.779ZM529.931 439L454.065 604.196V473.024C454.065 460.959 455.368 453.43 457.975 450.438C461.546 446.384 467.192 444.357 474.914 444.357H481.863V439H413.527V444.357H420.476C428.777 444.357 434.665 446.866 438.139 451.886C440.263 454.974 441.325 462.02 441.325 473.024V601.3C441.325 609.987 440.359 616.261 438.429 620.122C437.078 622.921 434.568 625.237 430.9 627.071C427.329 629.002 421.538 629.967 413.527 629.967V635.324H469.123L540.355 481.711L610.43 635.324H666.026V629.967H659.221C650.824 629.967 644.888 627.457 641.413 622.438C639.289 619.35 638.228 612.304 638.228 601.3V473.024C638.228 460.959 639.579 453.43 642.281 450.438C645.853 446.384 651.499 444.357 659.221 444.357H666.026V439H582.631V444.357H589.581C597.978 444.357 603.866 446.866 607.244 451.886C609.368 454.974 610.43 462.02 610.43 473.024V604.196L534.709 439H529.931ZM808.056 504.731H732.046L718.726 473.748C715.444 466.122 713.804 460.428 713.804 456.663C713.804 453.671 715.203 451.017 718.002 448.7C720.898 446.48 727.075 445.033 736.534 444.357V439H674.713V444.357C682.917 445.805 688.225 447.687 690.638 450.003C695.561 454.636 701.014 464.047 706.999 478.236L776.06 639.812H781.127L849.464 476.498C854.966 463.372 859.936 454.829 864.376 450.872C868.913 447.011 875.187 444.84 883.198 444.357V439H805.74V444.357C813.558 444.743 818.818 446.046 821.521 448.266C824.32 450.486 825.72 453.189 825.72 456.374C825.72 460.621 823.789 467.329 819.928 476.498L808.056 504.731ZM804.002 515.445L770.703 594.785L736.534 515.445H804.002ZM882.764 635.324H936.043L1056.07 488.081V601.3C1056.07 613.365 1054.72 620.894 1052.01 623.886C1048.44 627.94 1042.8 629.967 1035.07 629.967H1028.27V635.324H1096.61V629.967H1089.66C1081.36 629.967 1075.47 627.457 1071.99 622.438C1069.87 619.35 1068.81 612.304 1068.81 601.3V435.815H1063.6L934.161 593.916V473.024C934.161 460.959 935.464 453.43 938.07 450.438C941.738 446.384 947.384 444.357 955.01 444.357H961.959V439H893.622V444.357H900.427C908.824 444.357 914.76 446.866 918.235 451.886C920.359 454.974 921.42 462.02 921.42 473.024V609.553C915.726 616.213 911.382 620.604 908.39 622.728C905.494 624.851 901.199 626.83 895.504 628.664C892.705 629.533 888.458 629.967 882.764 629.967V635.324Z" fill="white"/>
<path d="M41.0036 755.744H132.216V699.569C132.216 689.53 131.589 682.919 130.334 679.733C129.369 677.32 127.342 675.245 124.253 673.508C120.103 671.191 115.711 670.033 111.078 670.033H104.128V664.676H188.102V670.033H181.152C176.519 670.033 172.127 671.143 167.977 673.363C164.888 674.907 162.765 677.272 161.607 680.457C160.545 683.546 160.014 689.916 160.014 699.569V826.252C160.014 836.194 160.641 842.758 161.896 845.943C162.861 848.356 164.84 850.431 167.832 852.168C172.079 854.485 176.519 855.643 181.152 855.643H188.102V861H104.128V855.643H111.078C119.089 855.643 124.929 853.278 128.596 848.549C131.009 845.46 132.216 838.028 132.216 826.252V766.458H41.0036V826.252C41.0036 836.194 41.631 842.758 42.8857 845.943C43.851 848.356 45.8779 850.431 48.9666 852.168C53.117 854.485 57.5087 855.643 62.1417 855.643H69.236V861H-14.8821V855.643H-7.93259C0.175176 855.643 6.06296 853.278 9.73076 848.549C12.0473 845.46 13.2055 838.028 13.2055 826.252V699.569C13.2055 689.53 12.5781 682.919 11.3234 679.733C10.3581 677.32 8.37947 675.245 5.38731 673.508C1.14039 671.191 -3.29958 670.033 -7.93259 670.033H-14.8821V664.676H69.236V670.033H62.1417C57.5087 670.033 53.117 671.143 48.9666 673.363C45.9744 674.907 43.8992 677.272 42.741 680.457C41.5827 683.546 41.0036 689.916 41.0036 699.569V755.744ZM335.779 670.033V664.676H405.274V670.033H397.89C390.168 670.033 384.232 673.267 380.082 679.733C378.055 682.726 377.042 689.675 377.042 700.582V780.212C377.042 799.902 375.063 815.201 371.106 826.108C367.245 836.918 359.571 846.232 348.085 854.05C336.696 861.772 321.156 865.633 301.466 865.633C280.038 865.633 263.774 861.917 252.674 854.485C241.574 847.053 233.708 837.063 229.075 824.515C225.986 815.925 224.442 799.806 224.442 776.158V699.424C224.442 687.359 222.753 679.444 219.374 675.68C216.093 671.915 210.736 670.033 203.304 670.033H195.92V664.676H280.762V670.033H273.233C265.125 670.033 259.334 672.591 255.859 677.707C253.446 681.181 252.24 688.42 252.24 699.424V784.99C252.24 792.615 252.916 801.35 254.267 811.195C255.715 821.04 258.272 828.714 261.94 834.215C265.608 839.717 270.868 844.254 277.721 847.825C284.671 851.396 293.165 853.182 303.203 853.182C316.04 853.182 327.526 850.383 337.661 844.784C347.796 839.186 354.697 832.044 358.365 823.357C362.129 814.573 364.011 799.757 364.011 778.909V699.424C364.011 687.166 362.66 679.492 359.957 676.403C356.193 672.157 350.595 670.033 343.163 670.033H335.779ZM529.931 861L454.065 695.804V826.976C454.065 839.041 455.368 846.57 457.975 849.562C461.546 853.616 467.192 855.643 474.914 855.643H481.863V861H413.527V855.643H420.476C428.777 855.643 434.665 853.134 438.139 848.114C440.263 845.026 441.325 837.98 441.325 826.976V698.7C441.325 690.013 440.359 683.739 438.429 679.878C437.078 677.079 434.568 674.763 430.9 672.929C427.329 670.998 421.538 670.033 413.527 670.033V664.676H469.123L540.355 818.289L610.43 664.676H666.026V670.033H659.221C650.824 670.033 644.888 672.543 641.413 677.562C639.289 680.65 638.228 687.696 638.228 698.7V826.976C638.228 839.041 639.579 846.57 642.281 849.562C645.853 853.616 651.499 855.643 659.221 855.643H666.026V861H582.631V855.643H589.581C597.978 855.643 603.866 853.134 607.244 848.114C609.368 845.026 610.43 837.98 610.43 826.976V695.804L534.709 861H529.931ZM808.056 795.269H732.046L718.726 826.252C715.444 833.878 713.804 839.572 713.804 843.337C713.804 846.329 715.203 848.983 718.002 851.3C720.898 853.52 727.075 854.967 736.534 855.643V861H674.713V855.643C682.917 854.195 688.225 852.313 690.638 849.997C695.561 845.364 701.014 835.953 706.999 821.764L776.06 660.188H781.127L849.464 823.502C854.966 836.628 859.936 845.171 864.376 849.128C868.913 852.989 875.187 855.16 883.198 855.643V861H805.74V855.643C813.558 855.257 818.818 853.954 821.521 851.734C824.32 849.514 825.72 846.811 825.72 843.626C825.72 839.379 823.789 832.671 819.928 823.502L808.056 795.269ZM804.002 784.555L770.703 705.215L736.534 784.555H804.002ZM882.764 664.676H936.043L1056.07 811.919V698.7C1056.07 686.635 1054.72 679.106 1052.01 676.114C1048.44 672.06 1042.8 670.033 1035.07 670.033H1028.27V664.676H1096.61V670.033H1089.66C1081.36 670.033 1075.47 672.543 1071.99 677.562C1069.87 680.65 1068.81 687.696 1068.81 698.7V864.185H1063.6L934.161 706.084V826.976C934.161 839.041 935.464 846.57 938.07 849.562C941.738 853.616 947.384 855.643 955.01 855.643H961.959V861H893.622V855.643H900.427C908.824 855.643 914.76 853.134 918.235 848.114C920.359 845.026 921.42 837.98 921.42 826.976V690.447C915.726 683.787 911.382 679.396 908.39 677.272C905.494 675.149 901.199 673.17 895.504 671.336C892.705 670.467 888.458 670.033 882.764 670.033V664.676Z" fill="white"/>
<path d="M41.0036 986.256H132.216V1042.43C132.216 1052.47 131.589 1059.08 130.334 1062.27C129.369 1064.68 127.342 1066.75 124.253 1068.49C120.103 1070.81 115.711 1071.97 111.078 1071.97H104.128V1077.32H188.102V1071.97H181.152C176.519 1071.97 172.127 1070.86 167.977 1068.64C164.888 1067.09 162.765 1064.73 161.607 1061.54C160.545 1058.45 160.014 1052.08 160.014 1042.43V915.748C160.014 905.806 160.641 899.242 161.896 896.057C162.861 893.644 164.84 891.569 167.832 889.832C172.079 887.515 176.519 886.357 181.152 886.357H188.102V881H104.128V886.357H111.078C119.089 886.357 124.929 888.722 128.596 893.451C131.009 896.54 132.216 903.972 132.216 915.748V975.542H41.0036V915.748C41.0036 905.806 41.631 899.242 42.8857 896.057C43.851 893.644 45.8779 891.569 48.9666 889.832C53.117 887.515 57.5087 886.357 62.1417 886.357H69.236V881H-14.8821V886.357H-7.93259C0.175176 886.357 6.06296 888.722 9.73076 893.451C12.0473 896.54 13.2055 903.972 13.2055 915.748V1042.43C13.2055 1052.47 12.5781 1059.08 11.3234 1062.27C10.3581 1064.68 8.37947 1066.75 5.38731 1068.49C1.14039 1070.81 -3.29958 1071.97 -7.93259 1071.97H-14.8821V1077.32H69.236V1071.97H62.1417C57.5087 1071.97 53.117 1070.86 48.9666 1068.64C45.9744 1067.09 43.8992 1064.73 42.741 1061.54C41.5827 1058.45 41.0036 1052.08 41.0036 1042.43V986.256ZM335.779 1071.97V1077.32H405.274V1071.97H397.89C390.168 1071.97 384.232 1068.73 380.082 1062.27C378.055 1059.27 377.042 1052.32 377.042 1041.42V961.788C377.042 942.098 375.063 926.799 371.106 915.892C367.245 905.082 359.571 895.768 348.085 887.95C336.696 880.228 321.156 876.367 301.466 876.367C280.038 876.367 263.774 880.083 252.674 887.515C241.574 894.947 233.708 904.937 229.075 917.485C225.986 926.075 224.442 942.194 224.442 965.842V1042.58C224.442 1054.64 222.753 1062.56 219.374 1066.32C216.093 1070.08 210.736 1071.97 203.304 1071.97H195.92V1077.32H280.762V1071.97H273.233C265.125 1071.97 259.334 1069.41 255.859 1064.29C253.446 1060.82 252.24 1053.58 252.24 1042.58V957.01C252.24 949.385 252.916 940.65 254.267 930.805C255.715 920.96 258.272 913.286 261.94 907.785C265.608 902.283 270.868 897.746 277.721 894.175C284.671 890.604 293.165 888.818 303.203 888.818C316.04 888.818 327.526 891.617 337.661 897.216C347.796 902.814 354.697 909.956 358.365 918.643C362.129 927.427 364.011 942.243 364.011 963.091V1042.58C364.011 1054.83 362.66 1062.51 359.957 1065.6C356.193 1069.84 350.595 1071.97 343.163 1071.97H335.779ZM529.931 881L454.065 1046.2V915.024C454.065 902.959 455.368 895.43 457.975 892.438C461.546 888.384 467.192 886.357 474.914 886.357H481.863V881H413.527V886.357H420.476C428.777 886.357 434.665 888.866 438.139 893.886C440.263 896.974 441.325 904.02 441.325 915.024V1043.3C441.325 1051.99 440.359 1058.26 438.429 1062.12C437.078 1064.92 434.568 1067.24 430.9 1069.07C427.329 1071 421.538 1071.97 413.527 1071.97V1077.32H469.123L540.355 923.711L610.43 1077.32H666.026V1071.97H659.221C650.824 1071.97 644.888 1069.46 641.413 1064.44C639.289 1061.35 638.228 1054.3 638.228 1043.3V915.024C638.228 902.959 639.579 895.43 642.281 892.438C645.853 888.384 651.499 886.357 659.221 886.357H666.026V881H582.631V886.357H589.581C597.978 886.357 603.866 888.866 607.244 893.886C609.368 896.974 610.43 904.02 610.43 915.024V1046.2L534.709 881H529.931ZM808.056 946.731H732.046L718.726 915.748C715.444 908.122 713.804 902.428 713.804 898.663C713.804 895.671 715.203 893.017 718.002 890.7C720.898 888.48 727.075 887.033 736.534 886.357V881H674.713V886.357C682.917 887.805 688.225 889.687 690.638 892.003C695.561 896.636 701.014 906.047 706.999 920.236L776.06 1081.81H781.127L849.464 918.498C854.966 905.372 859.936 896.829 864.376 892.872C868.913 889.011 875.187 886.84 883.198 886.357V881H805.74V886.357C813.558 886.743 818.818 888.046 821.521 890.266C824.32 892.486 825.72 895.189 825.72 898.374C825.72 902.621 823.789 909.329 819.928 918.498L808.056 946.731ZM804.002 957.445L770.703 1036.78L736.534 957.445H804.002ZM882.764 1077.32H936.043L1056.07 930.081V1043.3C1056.07 1055.37 1054.72 1062.89 1052.01 1065.89C1048.44 1069.94 1042.8 1071.97 1035.07 1071.97H1028.27V1077.32H1096.61V1071.97H1089.66C1081.36 1071.97 1075.47 1069.46 1071.99 1064.44C1069.87 1061.35 1068.81 1054.3 1068.81 1043.3V877.815H1063.6L934.161 1035.92V915.024C934.161 902.959 935.464 895.43 938.07 892.438C941.738 888.384 947.384 886.357 955.01 886.357H961.959V881H893.622V886.357H900.427C908.824 886.357 914.76 888.866 918.235 893.886C920.359 896.974 921.42 904.02 921.42 915.024V1051.55C915.726 1058.21 911.382 1062.6 908.39 1064.73C905.494 1066.85 901.199 1068.83 895.504 1070.66C892.705 1071.53 888.458 1071.97 882.764 1071.97V1077.32Z" fill="white"/>
</svg>
