<svg width="500" height="500" viewBox="0 0 500 500" fill="none" xmlns="http://www.w3.org/2000/svg">
<rect width="500" height="500" rx="250" fill="#001AFF"/>
<path d="M255.891 46.0211C257.127 44.289 259.351 42.3919 261.41 41.5671C263.387 40.7423 266.353 40 268.083 40C269.73 40 272.119 40.4124 273.437 40.9898C274.673 41.4847 279.533 41.9795 284.311 41.9795C291.148 42.062 293.537 42.3919 295.267 43.4642C296.502 44.289 297.82 46.0211 298.315 47.4233C298.974 49.3204 300.374 50.5576 304.328 52.5371C307.129 54.0218 311.577 57.321 314.213 59.9604C316.767 62.5998 319.979 66.8888 321.38 69.4457C322.698 72.0851 324.51 75.7143 325.334 77.5289C326.24 79.3434 327.228 82.1478 327.475 83.7149C327.805 85.2821 329.04 88.4164 330.276 90.7258C332.171 94.19 332.912 94.9324 335.383 95.2623C336.948 95.5097 339.255 96.3345 340.573 97.1593C341.809 97.9017 343.786 100.129 345.021 102.026C346.175 104.005 348.152 106.315 349.222 107.222C350.952 108.624 351.117 109.284 350.705 111.758C350.376 113.326 350.129 115.553 350.129 116.707C350.129 117.862 350.376 120.501 350.623 122.646C350.952 125.78 350.705 127.1 349.387 128.832C348.399 130.152 347.657 132.461 347.657 134.028C347.657 135.678 348.234 137.41 349.058 138.152C349.799 138.812 350.952 140.379 351.529 141.617C352.27 143.101 352.435 144.421 351.941 145.328C351.611 146.153 351.035 149.122 350.705 151.927C350.458 154.814 349.634 158.195 348.975 159.597C348.069 161.33 346.092 162.814 342.22 164.711C338.678 166.361 334.889 169.083 332.088 171.97C329.617 174.444 325.993 178.733 320.556 186.404L321.132 195.889C321.462 202.653 321.297 206.859 320.473 210.736C319.897 213.705 319.485 216.344 319.567 216.674C319.65 217.087 319.073 217.334 318.332 217.334C317.096 217.334 317.014 217.499 318.085 218.159C318.991 218.654 319.155 219.561 318.661 221.623C318.332 223.108 317.343 228.057 316.519 232.593C315.613 237.13 314.295 243.233 313.636 246.203C312.895 249.172 311.33 254.533 310.094 258.162C308.941 261.791 306.882 266.988 305.481 269.71C304.163 272.432 302.021 276.143 300.868 277.958C299.715 279.772 297.985 281.834 297.079 282.577C296.173 283.319 294.196 285.463 292.795 287.278C290.242 290.577 290.159 290.825 291.313 292.969C291.972 294.289 293.454 297.506 294.608 300.228C295.761 302.949 297.656 306.084 298.726 307.238C299.88 308.476 301.033 311.198 301.61 314.249C302.104 316.971 302.845 320.353 303.257 321.673C303.669 322.992 304.163 325.302 304.41 326.622C304.657 327.941 305.152 330.251 305.481 331.57C306.058 333.467 307.293 334.54 311.083 336.519C315.284 338.581 317.426 338.994 325.086 339.571C330.111 339.819 336.537 340.478 339.502 340.973C342.468 341.386 351.364 342.375 359.272 343.118C368.333 344.025 374.594 345.015 376.159 345.757C377.477 346.499 380.443 347.654 386.621 349.716L386.703 354.17C386.868 357.799 386.538 358.789 385.22 359.531C384.314 360.026 382.502 361.346 381.102 362.583C379.784 363.738 376.571 365.47 374.1 366.377C371.628 367.367 367.345 369.099 364.627 370.336C361.908 371.574 358.119 373.801 356.224 375.368C353.671 377.43 351.776 380.069 349.47 384.936C347.657 388.73 345.186 394.586 343.95 397.968C342.632 401.349 340.326 405.638 338.761 407.453C337.278 409.268 335.054 411.33 333.818 412.072C332.665 412.814 331.1 414.051 330.441 414.876C329.782 415.701 327.722 417.268 325.91 418.423C324.098 419.578 322.368 420.98 322.039 421.557C321.627 422.217 321.05 422.547 320.556 422.299C320.062 422.052 319.732 422.217 319.732 422.712C319.732 423.207 318.744 424.032 317.508 424.691C316.19 425.269 309.27 428.898 302.021 432.61C294.772 436.321 283.075 441.6 276.073 444.322C269.071 447.044 261.658 449.848 259.598 450.508C257.539 451.168 255.315 451.91 254.656 452.24C253.998 452.487 253.258 452.734 253.009 452.817L253.008 452.817C252.761 452.9 251.69 453.312 250.537 453.807C249.384 454.302 247.407 454.88 246.006 455.044C244.688 455.209 242.711 455.787 241.723 456.364C240.652 456.942 238.263 457.601 236.368 457.931C234.391 458.179 225.165 458.591 215.775 458.756C199.135 459.004 198.641 458.921 198.641 457.354C198.641 455.704 198.641 455.704 196.828 457.271C195.757 458.179 194.439 458.756 193.945 458.509C193.369 458.344 192.71 457.519 192.545 456.694C192.38 455.869 192.215 456.117 192.133 457.354C192.133 459.169 191.803 459.333 189.826 458.839C188.508 458.591 184.554 457.849 180.93 457.354C177.305 456.777 173.269 455.952 171.869 455.374C170.551 454.88 169.15 454.55 168.821 454.715C168.409 454.797 167.832 454.302 167.338 453.642C166.926 452.982 165.938 452.57 165.279 452.817C164.62 453.065 164.043 452.9 164.043 452.405C164.043 451.91 163.796 451.745 163.466 451.91C163.055 452.158 161.737 451.745 160.336 451.085C159.018 450.343 157.783 449.848 157.7 449.848C157.535 449.931 154.57 448.776 151.11 447.456C146.909 445.807 143.284 443.662 140.566 441.27C138.342 439.208 136.365 437.641 136.283 437.723C136.2 437.888 133.482 435.579 130.352 432.61C127.221 429.64 124.256 426.341 123.844 425.186C123.432 424.032 122.773 421.227 122.444 419C122.114 416.526 122.196 413.639 122.773 411.742C123.267 410.092 124.091 408.855 124.503 409.103C124.997 409.35 125.821 408.938 126.398 408.195C126.892 407.453 129.775 405.226 132.74 403.329C135.706 401.349 139.578 399.122 141.39 398.298C143.202 397.39 145.261 396.071 146.085 395.246C146.909 394.503 147.98 394.009 148.392 394.256C148.886 394.503 149.216 394.338 149.216 393.844C149.216 393.349 150.945 392.194 153.17 391.122C155.311 390.132 157.206 389.142 157.453 388.895C157.7 388.647 160.005 386.916 162.64 384.938L162.643 384.936C165.196 383.039 168.738 379.492 170.551 377.1C172.281 374.79 174.422 370.996 175.246 368.852C176.152 366.707 177.223 364.893 177.635 364.975C178.129 364.975 177.882 364.645 177.223 364.233C176.399 363.738 176.235 363.161 176.729 362.418C177.223 361.758 177.717 359.366 177.882 357.139C178.047 354.83 177.717 346.747 177.223 338.994C176.729 331.24 175.576 322.168 174.752 318.786C173.928 315.404 173.022 311.445 172.775 310.125C172.528 308.806 172.033 306.909 171.786 306.001C171.457 305.094 170.798 304.104 170.304 303.774C169.809 303.444 168.656 303.114 167.75 303.114C166.844 303.114 164.949 301.96 163.549 300.475C162.066 298.99 160.748 297.011 160.501 296.104C160.254 295.196 158.442 292.804 156.465 290.825C154.488 288.845 152.511 286.123 152.016 284.639C151.357 282.742 149.957 281.504 146.25 279.525C143.614 278.123 141.307 276.391 141.225 275.648C141.06 274.823 140.566 274.494 139.989 274.823C139.33 275.263 139.166 275.071 139.495 274.246C139.742 273.586 139.248 272.102 138.342 270.947C137.518 269.792 136.777 267.648 136.859 266.163C136.859 264.761 137.436 262.946 138.095 262.286C138.754 261.626 139.33 260.224 139.33 259.152C139.33 258.162 138.919 256.018 138.424 254.451C137.683 252.141 137.765 250.657 138.919 247.027C139.825 244.058 140.154 241.254 139.825 238.779C139.578 236.717 139.166 233.418 138.836 231.356C138.589 229.294 137.683 226.077 136.777 224.098C135.953 222.201 134.635 220.633 133.976 220.633C133.317 220.633 131.834 219.974 130.681 219.149C129.445 218.406 127.963 216.014 127.139 213.705C126.398 211.561 124.585 208.344 123.185 206.694C121.785 205.045 119.643 201.745 118.407 199.353C117.089 196.714 116.43 194.322 116.76 193.167C117.007 192.177 116.43 189.621 115.524 187.394C114.536 185.167 113.794 181.702 113.794 179.228C113.794 176.836 114.536 171.887 115.524 168.258C116.513 164.629 117.583 159.268 117.995 156.298C118.407 153.329 119.313 148.792 119.972 146.236C120.631 143.596 121.208 139.555 121.208 137.328C121.208 134.936 120.631 132.214 119.808 130.729C118.984 129.327 118.078 128.255 117.748 128.255C117.336 128.255 117.089 127.347 117.089 126.193C117.089 125.038 117.583 123.801 118.16 123.306C118.654 122.893 122.279 120.172 126.068 117.367C131.422 113.408 133.152 111.594 133.564 109.696C133.894 108.294 135.047 105.407 136.283 103.098C137.436 100.789 139.989 97.4893 141.966 95.5922C143.861 93.7776 146.827 91.3857 148.392 90.3134C149.957 89.2412 152.922 87.0142 154.982 85.3646C157.041 83.7149 161.489 80.7456 164.867 78.7661C168.244 76.869 172.692 74.3121 174.752 73.1574C176.811 72.0026 179.777 70.7654 181.342 70.4355C182.907 70.0231 185.955 69.3632 188.179 68.9508C191.309 68.2085 192.38 67.4662 193.698 65.1567C194.604 63.5896 196.005 62.2699 196.828 62.2699C197.57 62.2699 199.464 61.4451 201.029 60.4553C202.842 59.383 205.725 58.6407 209.267 58.3933C212.233 58.1458 217.505 57.1561 220.882 56.0838C226.072 54.4342 227.307 53.6918 228.708 51.3824C229.614 49.8152 231.261 48.4131 232.414 48.1656C233.568 47.9182 236.698 48.0007 239.416 48.3306C242.135 48.6605 246.501 48.9904 249.137 48.9904C253.667 49.0729 253.914 48.9904 255.891 46.0211Z" fill="white"/>
<path fill-rule="evenodd" clip-rule="evenodd" d="M269.222 41.2402C272.618 41.4883 275.683 41.9016 276.015 42.2324C276.346 42.4804 278.831 42.3977 281.399 41.9843C284.049 41.5709 287.942 41.4883 290.179 41.819C293.409 42.2324 294.486 42.8111 296.557 45.3741C297.882 47.1103 299.456 49.0119 300.035 49.5907C300.615 50.1694 304.26 53.2285 308.153 56.4529C312.046 59.5946 316.436 63.8112 317.927 65.7128C319.418 67.6144 321.737 71.4175 322.98 74.1459C324.305 76.8742 325.713 80.0987 326.293 81.4215C326.79 82.6617 327.204 83.8192 327.204 84.0672C327.204 84.3152 326.376 84.4806 325.299 84.4806C324.305 84.4806 322.731 83.9845 321.82 83.2404C320.909 82.579 319.915 82.0003 319.501 82.0003C319.169 82.0003 318.921 83.1577 318.921 84.4806C318.921 85.8034 318.755 87.5397 318.507 88.2011C318.258 88.8625 317.761 89.4412 317.264 89.4412C316.767 89.4412 316.436 88.8625 316.436 88.2011C316.436 87.5397 315.276 86.1341 313.951 85.0593C312.046 83.6538 311.466 82.579 311.466 80.5121C311.466 79.1065 311.3 77.8664 311.052 77.8664C310.803 77.8664 309.395 79.1892 307.904 80.8428C306.331 82.579 303.432 84.3979 300.698 85.4727C298.213 86.3822 295.231 87.2916 294.072 87.457C292.912 87.705 291.504 88.0357 290.924 88.2011C290.179 88.5318 290.179 88.2011 290.758 86.9609C291.255 86.0515 291.587 84.7286 291.587 84.0672C291.587 83.3231 290.841 82.827 289.516 82.827C288.356 82.827 287.445 82.4136 287.445 82.0003C287.445 81.5869 286.948 81.3388 286.368 81.5869C285.871 81.8349 281.896 80.9254 277.671 79.5199C271.707 77.5357 268.56 77.0396 263.176 77.0396C257.875 77.0396 255.141 77.5357 250.585 79.1892C245.698 81.0908 243.793 81.3388 238.409 81.0908C234.433 80.8428 231.948 81.0908 231.948 81.5869C232.031 82.0003 233.191 83.5711 234.682 84.894C236.173 86.2168 237.912 88.1184 238.575 89.0278C239.735 90.516 239.735 90.5987 238.326 89.6893C237.581 89.1105 236.587 88.7798 236.09 89.0278C235.593 89.2759 235.262 90.02 235.262 90.6814C235.262 91.3428 235.759 91.9216 236.256 92.0042C236.836 92.0042 236.587 92.3349 235.676 92.6657C234.571 93.1066 233.798 94.4846 233.357 96.7995C232.86 99.6933 232.363 100.355 230.043 101.016C227.973 101.76 227.641 102.091 228.635 102.67C229.629 103.331 229.464 103.496 227.973 103.496C226.896 103.496 224.908 104.571 223.583 105.977C222.257 107.382 221.18 108.209 221.18 107.878C221.18 107.465 222.257 105.067 223.665 102.504C224.991 99.8586 225.985 97.1302 225.736 96.4688C225.405 95.394 224.991 95.394 222.589 96.5515C220.518 97.6263 218.199 97.8743 204.2 97.2956L203.703 102.67C203.455 105.646 203.041 108.705 202.709 109.532C202.378 110.276 202.378 110.937 202.709 110.937C203.123 111.02 203.952 110.441 204.614 109.697C205.443 108.87 205.525 108.374 204.863 108.457C204.366 108.457 205.111 107.3 206.519 105.894C208.507 103.992 209.336 103.662 209.998 104.406C210.551 105.067 210.551 105.233 209.998 104.902C209.501 104.571 208.425 105.067 207.513 106.059C206.519 106.969 206.271 107.713 206.851 107.63C207.431 107.63 208.093 107.217 208.342 106.804C208.59 106.39 209.253 105.977 209.75 105.977C210.33 105.977 209.336 106.969 207.513 108.292C205.691 109.615 202.958 112.095 198.568 117.138L188.131 114.327C182.333 112.839 177.197 111.02 176.617 110.193C175.706 109.036 175.623 109.367 175.955 112.178C176.203 113.996 176.203 114.906 175.872 114.244C175.624 113.583 175.127 112.839 174.878 112.591C174.63 112.343 173.553 110.607 172.476 108.622C171.068 105.894 170.654 103.827 170.654 98.9492C170.654 93.079 170.571 92.7483 168.749 92.7483C167.672 92.7483 165.021 94.4846 162.371 96.8822C159.886 99.1972 157.318 101.016 156.738 101.016C156.241 101.016 155.744 100.768 155.744 100.437C155.744 100.024 156.572 99.3625 157.566 98.9492C158.56 98.4531 159.471 97.2129 159.637 95.8901C159.803 93.9058 159.554 93.5751 157.981 93.6578C156.987 93.6578 154.17 94.6499 151.685 95.8901C149.2 97.1302 147.047 98.6184 146.881 99.1972C146.716 99.6932 147.295 100.189 148.041 100.189C148.869 100.189 152.514 103 156.158 106.39C160.797 110.689 163.696 112.756 165.684 113.17C167.258 113.5 169.246 114.327 170.074 114.989C170.819 115.733 171.482 116.808 171.482 117.386C171.482 117.882 170.654 118.957 169.577 119.619C168.086 120.611 167.92 121.024 168.831 121.851C169.411 122.43 169.825 123.174 169.825 123.587C169.825 123.918 168.997 124.083 167.92 124C166.429 123.752 166.098 123.174 165.849 120.693C165.684 117.634 165.601 117.552 163.365 118.461C162.122 118.957 159.554 119.122 157.649 118.792C155.413 118.461 153.59 118.709 152.514 119.371C151.52 119.949 150.774 120.693 150.774 121.107C150.774 121.437 151.52 121.685 152.431 121.685C153.342 121.685 155.164 122.264 156.572 122.926C157.898 123.587 159.057 124.579 159.057 124.993C159.057 125.406 158.395 125.571 157.566 125.241C156.821 124.993 154.667 124.827 152.845 124.91C151.023 124.993 149.283 125.489 148.952 126.067C148.621 126.646 148.289 127.308 148.289 127.721C148.289 128.052 152.679 128.382 157.981 128.548C163.447 128.713 168.583 129.292 169.577 129.788C170.654 130.367 171.482 131.276 171.482 131.855C171.565 132.682 171.316 132.682 170.239 131.855C169.577 131.276 168.334 130.945 167.506 131.111C166.761 131.359 164.524 131.938 162.536 132.351C160.383 132.93 159.057 133.756 159.057 134.501C159.057 135.162 158.643 135.741 158.229 135.741C157.732 135.741 157.401 136.319 157.401 136.981C157.401 137.642 157.732 138.386 158.229 138.634C158.643 138.882 161.045 138.469 163.365 137.725C166.098 136.815 169.163 136.485 171.482 136.815C174.05 137.146 175.706 137.89 176.783 139.213C177.611 140.288 178.688 141.032 179.02 140.949C179.434 140.784 179.765 141.115 179.765 141.528C179.765 141.941 180.096 142.19 180.593 141.941C181.008 141.693 182.498 143.016 183.907 144.835C185.315 146.654 186.143 148.142 185.729 148.142C185.398 148.142 185.729 148.473 186.392 148.886C187.385 149.465 187.303 149.713 185.729 150.127C184.514 150.457 183.962 150.292 184.072 149.63C184.238 149.052 183.824 148.638 183.244 148.804C182.747 148.886 182.25 148.638 182.25 148.142C182.25 147.646 181.836 147.481 181.422 147.729C180.925 147.977 180.593 147.812 180.593 147.316C180.593 146.819 180.179 146.654 179.765 146.902C179.268 147.15 178.937 146.985 178.937 146.489C178.937 145.993 178.357 145.827 177.694 146.075C177.032 146.323 175.872 145.91 175.209 145.249C174.215 144.256 172.476 144.091 166.678 144.504C162.702 144.753 156.821 144.753 153.673 144.422C147.958 144.008 147.792 143.926 144.976 140.288C143.402 138.221 141.497 136.567 140.835 136.567C139.841 136.567 139.675 137.229 140.172 140.04C140.503 142.024 140.917 144.174 141.166 144.835C141.414 145.497 141.083 146.819 140.338 147.729C139.509 148.886 138.929 149.052 138.515 148.473C138.184 147.894 136.03 146.902 133.794 146.241C129.735 145.083 129.652 145.001 129.984 142.272C130.232 140.701 130.398 137.229 130.481 129.54L125.097 129.126C122.115 128.878 118.884 128.217 117.808 127.638C116.399 126.894 116.151 126.233 116.565 124.827C116.979 123.835 119.464 121.52 122.198 119.701C124.931 117.882 128.41 115.319 129.818 114.079C131.309 112.756 132.551 111.268 132.551 110.772C132.551 110.193 133.877 107.052 135.533 103.91C137.107 100.768 139.509 97.0476 140.669 95.8074C141.911 94.4846 144.562 92.2523 146.633 90.8468C148.703 89.4412 152.017 86.9609 154.087 85.3074C156.158 83.6538 160.631 80.6774 164.027 78.6932C167.423 76.7916 171.896 74.2286 173.967 73.0711C176.038 71.9136 179.02 70.6734 180.593 70.3427C182.167 69.9293 185.232 69.2679 187.385 68.8545C190.616 68.1104 191.693 67.3663 193.018 65.0514C193.929 63.4805 195.337 62.1576 196.083 62.1576C196.911 62.1576 198.733 61.3309 200.059 60.3387C201.798 59.1813 204.283 58.5198 208.342 58.2718C211.572 58.0238 216.956 57.0316 220.352 55.9568C225.571 54.3033 226.813 53.5592 228.221 51.2442C229.132 49.6733 230.789 48.2678 231.948 48.0198C233.108 47.7718 238.078 48.0198 252.242 49.756L256.384 45.7048C258.62 43.4725 261.105 41.4883 261.768 41.2402C262.43 40.9922 265.826 40.9922 269.222 41.2402ZM328.943 89.4412C329.44 89.4412 330.352 90.6814 330.849 92.1696C331.76 94.3192 332.671 95.0633 335.984 96.0554C338.221 96.7169 340.705 97.957 341.451 98.7838C342.279 99.5279 343.687 101.595 344.516 103.331C345.427 104.985 346.918 106.886 347.829 107.465C348.823 107.961 349.568 108.87 349.568 109.284C349.568 109.78 347.829 108.953 345.675 107.63C342.114 105.398 341.037 105.15 328.446 105.15L321.82 97.461L323.891 95.8901C325.05 95.0633 326.624 94.3192 327.452 94.4019C328.198 94.4019 329.026 94.0712 329.275 93.5751C329.523 93.1617 329.358 92.7483 328.861 92.7483C328.364 92.7483 328.032 92.0042 328.032 91.0948C328.032 90.1853 328.446 89.4412 328.943 89.4412ZM334.99 107.63C335.984 107.713 339.38 110.193 342.942 113.583C346.338 116.808 349.651 120.528 350.231 121.851C350.894 123.422 350.976 124.579 350.397 125.406C349.651 126.481 349.403 126.481 348.326 125.406C347.663 124.745 346.421 124.166 345.675 124.166C344.847 124.248 342.693 124.745 340.871 125.406C337.641 126.481 337.392 126.481 333.83 124.166C331.76 122.843 329.606 121.355 329.109 120.859C328.529 120.445 327.867 120.032 327.618 120.032C327.37 120.032 327.535 121.024 327.949 122.347C328.364 123.587 328.943 125.323 329.275 126.233C329.855 127.721 329.772 127.721 328.612 126.646C327.949 125.985 326.79 123.339 326.044 120.859C325.299 118.378 324.636 115.898 324.636 115.402C324.553 114.906 326.541 113.004 328.943 111.103C331.263 109.201 333.996 107.63 334.99 107.63ZM225.736 108.457C225.985 108.457 227.144 109.367 228.47 110.607C229.712 111.764 233.688 113.831 237.332 115.319C243.628 117.882 244.373 117.965 252.656 117.552C257.46 117.386 266.406 117.221 272.536 117.138C280.819 117.138 284.215 117.469 285.789 118.378C286.948 119.04 288.191 119.453 288.688 119.288C289.185 119.205 289.267 119.371 288.936 119.784C288.605 120.115 289.516 121.272 291.007 122.347C292.415 123.422 295.977 125.406 298.876 126.729C301.692 128.052 304.508 128.878 305.088 128.548C305.751 128.107 305.889 128.245 305.502 128.961C305.061 129.623 305.751 130.284 307.573 130.945C308.981 131.524 312.129 133.674 314.365 135.823C316.684 137.973 320.66 140.701 323.311 141.859C325.879 143.016 328.032 144.339 328.032 144.835C328.032 145.331 327.37 145.993 326.624 146.406C325.796 146.819 320.329 147.729 314.365 148.473C308.484 149.217 300.781 150.788 291.173 153.93L288.77 160.296C287.528 163.851 286.617 167.489 286.865 168.398C287.114 169.308 287.859 172.119 288.605 174.599C289.267 177.079 290.179 179.312 290.676 179.56C291.09 179.808 292.332 179.973 293.409 179.89C294.403 179.89 296.06 179.642 296.971 179.312C297.882 179.064 300.201 178.65 302.189 178.402C304.094 178.072 305.668 178.072 305.668 178.32C305.668 178.568 305.502 179.312 305.254 179.973C305.005 180.635 304.508 181.048 304.011 180.8C303.514 180.552 303.183 180.717 303.183 181.213C303.183 181.709 302.603 181.875 301.941 181.627C301.195 181.379 300.781 181.627 300.947 182.288C301.112 182.784 301.609 183.198 302.023 183.115C302.438 183.115 303.514 183.446 304.426 183.942C305.337 184.438 306.413 184.934 306.91 185.016C307.407 185.016 308.07 185.182 308.567 185.265C309.064 185.43 310.721 185.43 312.294 185.347C313.951 185.265 315.608 184.603 316.187 183.859C316.767 183.115 317.513 182.784 317.844 183.115C318.258 183.528 318.424 188.737 318.424 194.69C318.341 205.355 318.258 205.769 315.359 212.217C313.703 215.855 310.721 223.875 308.733 229.993C306.662 236.111 302.106 247.769 298.462 255.871C292.332 270.009 291.752 270.836 287.031 275.052C282.641 278.938 281.316 279.682 276.097 280.757C272.784 281.501 268.56 282.08 266.737 282.08C264.915 282.08 263.259 281.749 263.01 281.253C262.762 280.757 261.022 280.426 259.117 280.426C257.129 280.426 252.739 279.682 249.343 278.773C245.947 277.946 242.965 277.367 242.717 277.533C242.468 277.698 236.007 274.722 228.221 270.753C220.518 266.867 212.152 262.403 209.833 260.914C207.431 259.344 202.212 256.45 198.236 254.466C192.604 251.655 188.959 249.009 173.967 234.954V229.58C173.967 225.198 174.381 223.627 176.038 221.147C177.197 219.41 178.108 217.757 178.108 217.426C178.108 217.013 177.446 216.599 176.7 216.351C175.706 216.131 175.016 214.836 174.63 212.465C174.298 210.481 173.801 207.835 173.47 206.43C172.973 204.28 173.387 204.528 176.7 208.745C178.854 211.308 181.173 213.458 181.836 213.458C182.83 213.458 182.995 212.713 182.581 209.985C182.333 208.001 181.422 204.032 180.511 201.056C179.682 198.08 178.937 194.772 178.854 193.615C178.854 192.457 178.44 190.804 178.026 189.894C177.446 188.572 177.363 188.82 177.529 191.135C177.694 193.698 177.446 194.028 175.623 194.276C174.464 194.359 173.139 194.194 172.642 193.863C171.896 193.367 171.979 191.465 172.642 186.587C173.47 181.048 174.215 179.146 177.114 174.847C179.02 171.953 180.428 169.638 180.179 169.638C179.931 169.638 180.428 168.977 181.256 168.15C182.001 167.323 182.747 166.745 182.913 166.91C182.995 167.075 181.422 169.638 175.623 178.32V186.009C175.623 190.142 175.872 193.615 176.286 193.615C176.617 193.615 176.866 192.375 176.866 190.969C176.866 189.481 177.28 188.158 177.694 187.993C178.191 187.828 178.854 188.985 180.014 193.202L180.676 190.556C181.09 189.068 181.836 187.662 182.25 187.414C182.747 187.166 183.078 185.265 183.078 183.115C183.078 180.552 183.658 178.568 184.569 177.576C185.646 176.501 185.977 174.516 186.06 169.721C186.143 166.249 185.812 162.859 185.232 162.197C184.404 161.123 184.486 161.123 185.812 162.197C187.137 163.355 187.303 163.272 187.22 161.205C187.22 159.304 188.214 158.146 193.266 154.591C196.497 152.276 204.2 145.662 210.247 139.957C216.211 134.252 221.18 129.209 221.18 128.713C221.263 128.3 220.601 128.465 219.772 129.209C218.944 129.953 216.211 131.607 213.726 132.847C209.418 134.914 208.922 134.997 205.608 133.922C203.289 133.178 202.129 132.351 202.129 131.441C202.129 130.201 202.875 129.953 205.857 129.953C207.928 129.953 209.584 130.036 209.584 130.201C209.667 130.284 209.004 130.945 208.259 131.607C207.431 132.268 207.016 132.516 207.265 132.02C207.596 131.524 206.685 131.111 205.36 131.028C204.034 130.863 202.958 131.028 202.958 131.441C202.958 131.772 204.366 132.516 206.022 133.178C208.922 134.17 209.501 134.087 213.063 132.351C215.217 131.276 217.37 129.54 217.867 128.548C218.53 127.06 218.447 126.811 217.702 127.225C217.122 127.473 216.045 128.217 215.382 128.878C214.72 129.54 213.229 129.871 209.998 129.374L212.069 129.292C213.394 129.209 216.211 127.308 219.524 124.331C223.417 120.859 225.819 119.288 228.221 118.792C230.043 118.461 232.197 117.8 233.025 117.221C233.771 116.725 234.433 116.146 234.433 115.898C234.433 115.65 232.445 115.485 229.961 115.485C227.476 115.485 225.239 115.319 224.908 115.071C224.577 114.823 224.577 113.252 224.908 111.599C225.156 109.863 225.571 108.457 225.736 108.457ZM120.458 144.256C120.955 144.422 122.032 146.406 122.86 148.638C123.689 150.871 124.186 153.682 123.854 155.005C123.606 156.575 122.943 157.237 121.783 157.237C120.872 157.237 119.547 157.402 118.884 157.65C118.056 157.898 117.642 157.485 117.642 156.245C117.642 155.17 118.056 152.028 118.636 149.134C119.216 146.158 119.961 144.091 120.458 144.256ZM308.816 149.879C309.313 149.879 309.81 150.292 309.81 150.871C309.81 151.367 308.319 152.524 303.183 154.756V152.69C303.183 151.036 303.68 150.54 305.502 150.292C306.745 150.209 308.236 149.961 308.816 149.879ZM116.731 162.197C116.979 162.197 117.145 162.694 116.979 163.272C116.814 163.768 117.393 164.595 118.222 164.926C119.05 165.339 121.286 166.662 123.192 167.82C125.925 169.556 126.67 170.548 126.588 172.119C126.505 173.276 127.085 175.095 127.83 176.253C128.576 177.41 128.99 179.146 128.824 180.221C128.493 181.792 128.079 181.957 125.759 181.461C124.268 181.131 121.949 180.883 120.541 180.965C119.216 180.965 117.062 181.296 115.82 181.544C113.749 181.957 113.418 181.792 113.086 179.808C112.755 178.485 113.418 174.02 114.411 169.886C115.323 165.67 116.399 162.197 116.731 162.197ZM120.127 184.52C121.535 184.52 124.103 185.43 125.925 186.587C128.741 188.324 129.238 189.068 129.073 191.135C128.907 192.457 128.658 193.615 128.41 193.615C128.161 193.698 127.416 193.036 126.753 192.292C126.091 191.548 124.02 190.143 122.198 189.233C120.375 188.324 118.636 187.166 118.305 186.67C117.973 186.174 117.642 185.513 117.642 185.182C117.642 184.768 118.802 184.52 120.127 184.52ZM134.871 208.662C135.533 208.828 136.61 210.564 137.19 212.631C137.853 214.698 138.929 217.178 139.592 218.253C140.255 219.245 140.752 220.568 140.586 221.147C140.42 221.643 139.509 220.899 138.515 219.493C137.438 217.839 136.196 216.93 135.451 217.178C134.705 217.426 134.208 217.095 134.208 216.351C134.208 215.69 133.96 215.111 133.628 215.111C133.214 215.111 133.131 213.623 133.297 211.721C133.545 209.406 134.042 208.497 134.871 208.662ZM169.577 265.792C170.157 265.875 170.571 266.454 170.654 267.033C170.654 267.611 171.068 268.025 171.482 268.025C171.979 268.025 172.145 268.438 171.896 268.852C171.648 269.348 171.896 269.678 172.476 269.678C172.973 269.678 173.139 269.844 172.89 270.092C172.559 270.34 173.056 271.828 173.967 273.399C174.878 274.97 176.12 276.871 176.7 277.615C177.197 278.359 178.523 279.848 179.599 280.922C180.593 281.997 181.173 283.072 180.842 283.32C180.593 283.568 180.759 283.733 181.256 283.733C181.836 283.733 182.664 284.643 183.078 285.8C183.575 287.041 185.812 288.859 188.711 290.43C191.279 291.836 194.592 293.572 195.917 294.316C197.988 295.391 199.065 295.474 202.792 294.647C206.602 293.737 207.348 293.82 209.833 295.308C211.241 296.135 217.536 299.194 223.665 301.923C229.795 304.734 237.084 308.289 239.817 309.942C242.551 311.596 246.278 314.324 248.101 315.895C249.923 317.549 252.905 320.112 254.727 321.682C256.549 323.171 260.774 325.734 264.087 327.222C268.808 329.454 270.465 329.868 271.956 329.206C272.95 328.793 275.849 327.883 278.334 327.222C282.724 326.064 283.055 325.734 287.445 319.202C289.93 315.482 292.746 311.927 293.658 311.348C295.148 310.356 295.148 310.108 294.072 308.95C293.161 308.041 293.161 307.627 293.906 307.71C294.403 307.71 294.9 308.123 294.9 308.537C294.9 309.115 295.397 309.115 296.391 308.537C297.302 308.041 298.13 308.123 298.876 308.785C299.456 309.364 299.87 310.521 299.87 311.43C299.87 312.34 300.45 315.316 301.195 318.045C301.858 320.773 303.266 325.568 304.26 328.71C305.475 332.513 306.772 334.883 308.153 335.82C309.313 336.564 312.129 337.805 314.365 338.631C316.684 339.375 320.743 339.954 323.477 339.954C326.21 339.954 332.174 340.533 336.73 341.112C341.285 341.773 351.556 342.931 359.508 343.675C371.104 344.832 374.749 345.411 377.731 346.982C379.802 347.974 382.701 349.049 384.192 349.379C385.6 349.627 387.008 350.289 387.256 350.702C387.505 351.198 387.174 351.529 386.677 351.529C386.097 351.529 382.784 352.852 379.387 354.423C375.991 356.076 370.193 357.978 366.549 358.639C362.904 359.301 359.839 359.962 359.757 360.045C359.674 360.128 358.597 362.443 357.437 365.171C356.195 367.899 351.556 376.415 347.083 384.187C342.528 391.958 338.221 398.903 337.392 399.73C335.984 401.136 335.736 401.053 331.346 398.159C328.308 396.175 325.547 393.336 323.062 389.643C320.163 385.344 319.335 384.517 319.087 385.84C318.921 386.75 318.424 387.99 318.01 388.569C317.513 389.147 317.761 390.305 318.507 391.628C319.169 392.785 322.151 396.092 325.133 399.069C328.115 402.045 330.849 404.443 331.346 404.443C331.843 404.443 332.174 404.691 332.174 405.104C332.174 405.435 333.168 406.262 336.481 408.163L331.263 411.966C328.364 414.033 324.802 416.348 323.477 417.092C322.068 417.836 320.743 418.167 320.329 417.836C319.998 417.506 319.749 417.671 319.749 418.084C319.749 418.581 317.347 420.069 314.365 421.392C311.383 422.714 308.981 424.12 308.981 424.533C308.981 424.864 308.65 424.947 308.153 424.699C307.656 424.451 307.325 424.699 307.325 425.112C307.325 425.608 306.993 425.773 306.496 425.525C305.999 425.277 305.668 425.525 305.668 425.939C305.668 426.435 305.337 426.6 304.84 426.352C304.343 426.104 304.011 426.435 304.011 427.014C304.011 427.51 303.763 427.758 303.432 427.427C303.017 427.096 301.858 427.344 300.698 428.006C299.538 428.667 298.379 428.915 297.965 428.585C297.633 428.254 297.385 428.502 297.385 429.081C297.385 429.577 297.054 429.907 296.557 429.659C296.06 429.411 295.728 429.659 295.728 430.073C295.728 430.569 295.148 430.9 294.486 430.9C293.823 430.9 292.912 431.561 292.415 432.388C291.835 433.463 291.587 433.545 291.587 432.553C291.532 431.726 291.255 431.864 290.758 432.966C290.344 433.876 290.013 434.124 290.013 433.628C289.93 433.049 289.599 432.718 289.102 432.966C288.605 433.214 288.439 433.793 288.688 434.207C288.936 434.703 288.853 434.951 288.522 434.868C288.108 434.785 286.286 435.529 284.38 436.522C282.393 437.514 279.908 438.423 278.748 438.589C277.588 438.671 276.677 438.919 276.677 439.167C276.677 439.415 275.435 439.581 273.861 439.581C272.37 439.581 271.21 439.994 271.459 440.407C271.624 440.904 270.134 441.813 268.228 442.474C266.24 443.136 264.17 443.549 263.673 443.466C263.093 443.384 262.596 443.715 262.596 444.128C262.596 444.624 262.265 444.789 261.768 444.541C261.271 444.293 260.939 444.541 260.939 444.955C260.939 445.451 259.697 446.03 258.289 446.36C256.798 446.691 255.224 446.939 254.893 446.939C254.561 447.022 253.982 447.435 253.65 447.848C253.319 448.344 252.491 448.675 251.828 448.675C251.165 448.675 250.088 448.344 249.591 448.014C248.929 447.683 248.598 447.848 248.763 448.427C248.846 448.923 247.604 449.75 246.03 450.246C244.456 450.742 242.551 451.486 241.888 451.9C241.226 452.313 239.155 452.726 237.332 452.892C235.51 453.057 231.037 453.553 227.393 454.049C223.748 454.545 219.441 455.124 217.867 455.372C216.293 455.537 212.815 455.868 210.247 456.116C206.105 456.447 205.443 456.778 205.443 458.183C205.443 459.589 204.863 459.837 201.715 459.837C198.319 459.837 197.988 459.671 197.988 457.77C197.988 455.868 197.739 455.703 194.923 455.951C192.273 456.116 191.693 456.447 191.527 458.183C191.279 460.085 191.03 460.167 188.628 459.589C187.137 459.258 185.315 459.01 184.569 459.01C183.741 459.01 183.078 458.431 183.078 457.77C183.078 456.943 184.127 456.419 186.226 456.199C187.882 456.033 186.474 456.116 183.078 456.282C179.682 456.447 176.452 456.282 176.038 455.868C175.623 455.372 173.139 454.793 170.654 454.463C168.169 454.132 165.435 453.801 164.69 453.719C163.862 453.719 163.199 453.388 163.199 453.057C163.199 452.644 162.371 452.396 161.377 452.396C160.3 452.396 159.14 452.148 158.809 451.817C158.395 451.404 157.815 451.156 157.566 451.156C157.235 451.156 154.005 449.915 150.36 448.427C145.473 446.443 142.408 444.459 138.681 440.986C135.865 438.423 132.469 435.364 131.226 434.207C129.901 433.049 128.327 431.313 127.747 430.486C127.167 429.577 126.919 429.411 127.25 430.073C127.582 430.734 126.836 430.403 125.594 429.246C124.434 428.088 123.44 426.931 123.44 426.6C123.44 426.187 123.937 426.104 124.517 426.27C125.014 426.435 125.428 427.014 125.345 427.51C125.179 428.006 125.511 428.171 126.091 427.84C126.919 427.344 126.919 427.51 126.339 428.419C125.759 429.329 125.759 429.494 126.588 429.081C127.333 428.585 127.333 428.006 126.422 426.6C125.759 425.525 124.848 424.781 124.351 424.947C123.854 425.029 123.606 424.781 123.854 424.285C124.103 423.872 123.44 422.301 120.541 418.415L123.274 413.124C125.594 408.411 126.67 407.254 131.723 404.029C134.954 401.962 138.101 400.309 138.764 400.309C139.426 400.309 140.006 399.978 140.006 399.482C140.006 399.069 141.166 398.325 142.491 397.828C143.899 397.415 145.39 397.167 145.804 397.415C146.301 397.663 146.467 397.332 146.219 396.836C145.97 396.258 146.633 395.348 147.627 394.769C148.703 394.273 150.526 393.364 151.851 392.951C153.094 392.454 154.087 391.71 154.087 391.214C154.087 390.801 154.667 390.388 155.33 390.388C155.993 390.388 156.572 390.057 156.572 389.561C156.572 389.147 157.401 388.486 158.478 388.238C159.471 387.907 161.874 386.171 163.862 384.269C165.849 382.368 168.666 379.226 170.157 377.159C171.648 375.092 173.553 371.785 174.298 369.718C175.127 367.651 176.203 365.75 176.7 365.419C177.446 364.923 177.446 364.757 176.7 364.757C176.12 364.757 175.789 364.179 176.038 363.517C176.286 362.856 176.7 362.277 177.114 362.277C177.446 362.277 178.191 363.021 178.771 363.931C179.599 365.254 179.599 365.502 178.771 365.006C178.191 364.675 178.44 365.336 179.351 366.576C180.262 367.817 181.504 369.057 182.084 369.305C182.747 369.553 183.41 368.395 184.901 361.864L186.226 364.757C186.971 366.328 187.468 367.899 187.385 368.313C187.303 368.643 187.634 368.891 188.048 368.891C188.545 368.891 188.711 369.47 188.462 370.132C188.214 370.793 188.462 371.372 188.876 371.372C189.373 371.372 189.539 371.785 189.291 372.198C189.042 372.695 189.456 373.025 190.119 373.025C190.782 373.025 191.527 372.281 191.776 371.372C192.024 370.462 191.858 369.718 191.361 369.718C190.947 369.718 190.533 368.313 190.616 366.659C190.616 364.923 190.285 363.435 189.788 363.352C189.291 363.187 189.042 362.856 189.208 362.525C189.456 362.112 189.125 360.21 188.462 358.143C187.882 356.076 187.303 354.919 187.303 355.498C187.22 355.994 186.309 356.49 185.149 356.49C183.161 356.49 183.078 356.242 183.078 352.19C183.078 347.974 182.995 347.809 180.428 346.982C178.854 346.486 177.611 345.494 177.529 344.75C177.363 343.592 177.86 343.261 180.179 343.261C182.995 343.261 183.161 343.427 184.404 347.643C185.066 349.958 185.812 351.777 185.977 351.529C186.143 351.281 185.398 348.139 184.238 344.501C183.078 340.864 180.842 333.423 179.268 327.966C177.694 322.509 176.203 317.466 175.872 316.805C175.624 316.143 175.458 315.316 175.458 314.986C175.541 314.572 175.044 313.001 174.381 311.43C173.718 309.86 173.304 308.371 173.553 308.123C173.801 307.875 173.718 307.214 173.387 306.718C173.056 306.139 172.724 304.486 172.642 303.163C172.559 301.84 171.73 296.631 170.736 291.588C169.825 286.627 168.914 278.69 168.831 273.978C168.666 267.694 168.831 265.544 169.577 265.792ZM158.974 279.6C159.72 279.6 162.039 280.84 164.276 282.493C167.423 284.808 168.169 285.883 168.169 287.867C168.169 289.19 168.086 290.348 168.003 290.348C167.837 290.348 166.098 289.521 164.027 288.611C161.956 287.619 159.223 286.545 157.815 286.214C156.241 285.883 155.247 285.139 155.081 284.147C154.916 283.237 155.496 281.832 156.241 281.088C156.987 280.261 158.229 279.6 158.974 279.6ZM249.177 451.569C249.509 451.569 250.337 451.982 251 452.396C251.828 452.892 251.966 453.443 251.414 454.049C250.917 454.463 249.674 454.959 248.515 455.124C247.355 455.207 246.361 455.041 246.195 454.711C246.113 454.297 246.278 454.049 246.61 454.132C247.024 454.132 247.604 453.636 247.935 452.892C248.266 452.148 248.846 451.569 249.177 451.569ZM243.959 454.049C244.207 454.049 244.373 454.628 244.373 455.289C244.373 455.951 244.125 456.447 243.71 456.364C243.379 456.282 242.385 456.612 241.474 457.108C240.563 457.604 238.575 458.183 237.084 458.514C235.51 458.762 234.433 458.679 234.433 458.183C234.433 457.77 234.765 457.522 235.262 457.77C235.759 458.018 236.09 457.852 236.09 457.356C236.09 456.943 236.421 456.695 236.918 456.943C237.415 457.191 237.912 457.026 238.161 456.53C238.409 456.116 238.906 455.868 239.403 456.116C239.9 456.364 240.397 456.199 240.646 455.703C240.894 455.289 241.391 455.041 241.888 455.289C242.385 455.537 242.882 455.372 243.131 454.876C243.462 454.463 243.793 454.049 243.959 454.049Z" fill="white"/>
<path fill-rule="evenodd" clip-rule="evenodd" d="M267.566 40C269.637 40 272.039 40.248 272.95 40.6614C274.192 41.2402 273.861 41.4055 271.293 41.3228C269.471 41.3228 267.069 40.9921 265.909 40.6614C264.17 40.0827 264.501 40 267.566 40ZM306.662 53.6418C307.987 54.4686 310.472 56.2875 312.129 57.693C313.868 59.0985 316.602 62.1576 318.258 64.4726C319.998 66.8702 321.323 68.9371 321.157 69.1852C321.075 69.4332 319.998 68.193 318.755 66.5395C317.513 64.8033 313.703 61.0001 310.224 58.0237C306.745 55.0473 304.011 52.567 304.094 52.4016C304.094 52.2363 305.254 52.815 306.662 53.6418ZM322.648 72.0789C322.897 72.0789 323.725 73.4844 324.636 75.138C325.465 76.8742 326.79 80.3466 327.618 82.827C328.446 85.3073 330.02 89.1931 331.097 91.5081C332.837 95.0632 332.836 95.394 331.428 93.5751C330.517 92.4176 329.689 91.0121 329.689 90.4333C329.689 89.9372 329.358 89.4412 328.861 89.4412C328.364 89.4412 328.032 90.1853 328.032 91.0947C328.032 92.0042 328.364 92.7483 328.861 92.7483C329.358 92.7483 329.523 93.1617 329.275 93.5751C329.026 93.9884 328.115 94.4018 327.204 94.4018C325.962 94.4018 325.465 93.7404 325.299 91.6735C324.968 89.1105 324.968 89.1105 325.05 91.9215C325.133 93.9058 324.636 95.2286 323.477 96.1381C321.82 97.4609 321.903 97.5436 325.133 101.347C327.287 103.827 329.109 105.15 330.269 105.15C332.091 105.15 332.008 105.233 329.689 107.217C328.364 108.374 326.955 109.284 326.541 109.284C326.21 109.284 325.962 108.788 325.962 108.126C325.962 107.465 326.21 107.134 326.541 107.3C326.955 107.465 327.204 106.969 327.204 106.142C327.287 105.398 325.547 103.083 323.477 101.016C320.246 97.8743 319.666 96.7995 319.666 94.1538C319.749 91.5081 319.418 90.9294 317.016 89.8546C315.608 89.1105 314.034 88.6144 313.537 88.6144C313.04 88.6144 312.129 87.3742 311.383 85.886C310.638 84.4805 309.478 83.1577 308.733 82.9923C307.904 82.9097 305.999 83.8191 304.343 85.0593C302.189 86.7128 301.526 87.7876 301.858 89.0278C302.189 90.3506 301.631 90.8602 299.975 90.6122C298.815 90.5295 298.213 89.7719 298.213 89.0278C298.213 88.2837 297.633 87.8703 296.722 88.0357C295.645 88.201 295.231 89.2758 294.9 92.7483C294.651 95.7247 294.32 96.7168 293.906 95.642C293.658 94.7325 293.16 92.9963 292.912 91.6735C292.664 90.4333 291.918 89.4412 291.338 89.4412C290.841 89.4412 289.212 89.3833 289.129 88.8046C289.129 88.2258 291.173 87.3742 292.746 87.4569C294.154 87.4569 297.551 86.6301 300.284 85.5553C303.266 84.3978 306.248 82.4963 307.822 80.76C309.23 79.1892 310.638 77.8663 310.969 77.8663C311.218 77.8663 311.466 79.1065 311.466 80.512C311.466 82.5789 312.046 83.6537 313.951 85.0593C315.276 86.1341 316.436 87.5396 316.436 88.201C316.436 88.8624 316.767 89.4412 317.264 89.4412C317.761 89.4412 318.258 88.8624 318.507 88.201C318.755 87.5396 318.921 85.8034 318.921 84.4805C318.921 83.075 319.169 82.0002 319.501 82.0002C319.915 82.0002 320.909 82.5789 321.82 83.2404C322.731 83.9845 324.305 84.4805 325.299 84.4805C326.79 84.4805 327.121 84.1498 326.707 82.9923C326.459 82.2482 325.962 80.6774 325.63 79.5199C325.299 78.3624 324.388 76.5435 323.642 75.386C322.814 74.2285 322.234 73.071 322.234 72.6576C322.234 72.3269 322.4 72.0789 322.648 72.0789ZM262.347 77.1222C266.158 77.0395 270.879 77.4529 272.95 77.8663C275.021 78.2797 276.677 78.7758 276.677 78.8584C276.677 79.0238 277.163 80.9331 276.5 83C275.92 85.0669 274.997 87.9173 274.5 88C274.003 88.1654 270.562 88.6144 267 82.827L261.933 80.5947C256.466 80.5947 255.887 80.76 254.727 82.6616C254.064 83.8191 253.485 83.8191 253.485 84.0671C253.485 84.3152 254.478 84.3152 255.721 84.1498C257.046 83.9845 259.531 84.5632 261.353 85.4727C263.838 86.7128 264.335 87.2916 263.424 87.7876C262.762 88.1183 259.78 89.2758 256.798 90.268C252.573 91.7561 250.42 92.0042 246.61 91.5908C244.042 91.3428 241.888 91.3428 241.888 91.6735C241.805 92.0869 242.468 93.2443 243.296 94.3192C244.456 95.8074 245.864 96.3034 249.343 96.6341C253.402 97.0475 254.064 96.8822 255.307 95.1459C256.052 94.0711 256.963 93.4924 257.378 93.8231C257.709 94.2365 257.378 94.9806 256.632 95.4766C255.804 96.0554 255.224 96.7168 255.141 97.0475C255.141 97.4609 256.798 97.6263 258.869 97.4609C262.265 97.2955 262.596 97.4609 262.596 99.1145C262.596 100.52 261.685 101.429 259.034 102.587C257.129 103.414 252.408 104.406 248.515 104.737C242.054 105.398 241.226 105.233 238.161 103.496C235.345 101.925 235.013 101.843 236.09 103.166C236.753 104.075 237.995 105.563 240.646 108.54L238.741 108.457C237.747 108.457 236.09 108.044 235.013 107.548C234.019 106.969 231.948 105.481 227.807 101.843L230.292 101.016C232.363 100.355 232.86 99.6105 233.357 96.7995C233.798 94.4845 234.571 93.1066 235.676 92.6656C236.587 92.3349 236.836 92.0042 236.256 92.0042C235.759 91.9215 235.179 91.4254 235.179 90.764C235.096 90.1026 235.51 89.3585 236.007 89.1105C236.504 88.8624 237.581 89.1105 238.326 89.6065C239.735 90.5987 239.735 90.516 238.575 89.0278C237.912 88.1183 236.173 86.2168 234.682 84.8939C233.191 83.4884 232.031 82.0002 231.948 81.5868C231.948 81.0907 234.599 80.8427 238.741 81.0081C244.539 81.2561 246.444 80.9254 250.585 79.1892C254.396 77.6183 257.129 77.2049 262.347 77.1222ZM281.647 80.8427C283.718 81.5041 285.871 81.8348 286.368 81.5868C286.948 81.3388 287.445 81.5868 287.445 82.0002C287.445 82.4136 288.439 82.827 289.682 82.827C290.841 82.827 291.268 84.2562 290.937 84.5869C290.605 85.0003 288.439 83.4884 285.623 82.827C282.807 82.1656 279.908 81.1734 279.245 80.5947C278.417 79.9333 279.328 80.0986 281.647 80.8427ZM168.749 92.7483C170.571 92.7483 170.654 93.079 170.654 98.9491C170.654 103.827 171.068 105.894 172.559 108.622C173.553 110.607 174.63 112.343 174.878 112.591C175.126 112.839 175.623 113.583 175.872 114.244C176.203 114.906 176.203 113.996 175.955 112.178C175.623 109.366 175.706 109.036 176.617 110.193C177.197 111.02 182.25 112.756 198.402 117.055L202.129 113.087C204.2 110.855 206.851 108.457 208.176 107.713C209.418 106.969 210.412 105.894 210.412 105.315C210.412 104.819 210.081 104.158 209.584 103.91C209.17 103.662 207.679 104.571 206.354 105.977C205.028 107.382 204.366 108.457 204.863 108.457C205.525 108.374 205.443 108.87 204.614 109.697C203.952 110.441 203.123 111.02 202.792 110.937C202.378 110.937 202.378 110.276 202.709 109.449C203.04 108.705 203.455 105.646 204.2 97.2955L212.069 97.6263C218.199 97.8743 220.518 97.6263 222.671 96.5514C224.991 95.394 225.405 95.394 225.736 96.4688C225.985 97.1302 224.991 99.8585 223.665 102.422C222.257 105.067 221.18 107.465 221.18 107.796C221.18 108.209 222.257 107.382 223.583 105.977C224.991 104.571 226.813 103.496 227.973 103.579C229.712 103.662 229.712 103.662 227.641 104.406C226.316 104.819 225.322 105.398 225.322 105.729C225.239 106.142 226.399 106.969 227.89 107.63C229.298 108.292 230.706 109.284 231.037 109.78C231.286 110.193 233.025 111.516 234.848 112.591C236.67 113.748 240.397 115.485 243.131 116.559C245.864 117.552 247.024 118.213 245.616 117.965C244.207 117.634 240.314 116.311 236.918 115.071C233.522 113.748 229.712 111.764 228.47 110.607C227.144 109.366 225.985 108.54 225.736 108.622C225.488 108.788 225.074 110.193 224.825 111.764C224.328 114.575 224.411 114.658 227.476 115.237C229.298 115.567 231.534 115.65 232.611 115.485C233.605 115.237 234.433 115.319 234.433 115.65C234.433 116.063 233.771 116.725 233.025 117.221C232.197 117.8 230.043 118.461 228.221 118.792C225.819 119.288 223.5 120.776 219.855 124.083C216.293 127.39 213.891 128.878 211.572 129.292C209.833 129.622 206.934 129.953 205.277 129.953C202.875 129.953 202.129 130.284 202.129 131.359C202.129 132.351 203.289 133.178 205.608 133.922C208.921 134.997 209.418 134.914 213.726 132.847C216.211 131.607 218.944 129.953 219.772 129.209C220.601 128.465 221.263 128.3 221.263 128.713C221.18 129.126 216.708 133.756 211.241 138.8C205.774 143.926 201.467 148.39 201.632 148.721C201.798 149.134 201.053 150.457 199.976 151.863C198.899 153.268 197.988 153.847 197.988 153.268C197.988 152.772 198.816 151.532 199.81 150.54C200.887 149.63 199.644 150.209 197.16 151.945C194.675 153.682 191.361 155.914 189.87 156.989C188.462 158.064 187.137 158.477 186.971 158.064C186.888 157.567 183.161 156.245 170.654 153.103L166.264 154.839C163.944 155.749 160.217 157.485 154.087 160.544L151.768 158.89C150.194 157.816 149.118 155.914 148.289 152.69C147.047 148.142 147.047 148.142 143.899 148.142C141.083 148.142 140.835 148.308 140.835 150.375C140.835 151.697 141.166 153.268 141.663 153.93C142.243 154.922 142.491 154.674 142.822 152.855C143.154 151.615 143.899 150.623 144.562 150.623C145.225 150.623 145.804 150.953 145.804 151.449C145.804 151.945 145.39 152.276 144.976 152.276C144.479 152.276 144.396 153.351 144.645 154.922C144.976 156.41 144.976 159.056 144.645 160.709C144.313 162.942 143.734 163.851 142.657 163.851C141.911 163.851 139.675 163.19 137.77 162.363C135.782 161.619 134.208 160.709 134.208 160.296C134.208 159.965 135.285 159.717 136.693 159.717C138.018 159.717 139.178 159.386 139.178 158.89C139.178 158.394 138.432 157.898 137.521 157.65C136.527 157.402 135.616 156.245 135.202 154.756C134.871 153.351 134.208 152.193 133.794 152.193C133.297 152.193 132.469 152.689 131.889 153.268C131.392 153.847 131.06 155.004 131.309 155.749C131.557 156.575 131.309 157.237 130.895 157.237C130.398 157.237 129.818 156.575 129.57 155.749C129.238 155.004 129.404 153.682 129.984 152.855C130.646 151.78 128.907 150.157 127.996 149.33C127.25 148.752 128.658 148.473 129.238 144.835L133.545 146.158C135.947 146.902 138.184 147.894 138.515 148.473C138.929 149.052 139.509 148.886 140.338 147.729C141.083 146.819 141.414 145.497 141.166 144.835C140.917 144.174 140.503 142.024 140.172 140.04C139.675 137.229 139.841 136.567 140.835 136.567C141.497 136.567 143.402 138.221 144.976 140.205C147.792 143.843 148.041 144.008 153.259 144.422C156.241 144.752 162.288 144.752 166.678 144.504C172.062 144.174 174.878 144.339 174.961 144.835C175.126 145.331 175.789 145.827 176.452 145.993C177.114 146.158 179.268 146.985 181.256 147.812C183.161 148.638 184.486 149.63 184.155 150.044C183.741 150.375 184.404 150.375 185.563 150.044C186.723 149.796 187.137 149.382 186.557 149.217C186.06 149.052 185.729 148.721 185.895 148.308C186.143 147.977 185.066 146.323 183.658 144.587C182.167 142.851 180.428 141.363 179.682 141.28C178.937 141.197 177.611 140.288 176.783 139.213C175.706 137.89 174.05 137.146 171.482 136.815C169.163 136.485 166.098 136.815 163.365 137.725C161.045 138.469 158.643 138.882 158.229 138.634C157.815 138.386 157.401 137.642 157.401 136.981C157.401 136.319 157.815 135.741 158.229 135.741C158.643 135.741 159.057 135.162 159.057 134.5C159.057 133.839 159.72 133.095 160.465 132.93C161.294 132.682 163.53 132.103 165.435 131.689C168.169 131.028 169.328 131.028 170.239 131.772C171.316 132.599 171.565 132.599 171.482 131.772C171.482 131.276 170.654 130.367 169.577 129.788C168.583 129.292 163.447 128.713 157.981 128.548C152.679 128.382 148.289 128.052 148.289 127.638C148.289 127.307 148.621 126.646 148.952 126.067C149.283 125.489 151.023 124.993 152.845 124.91C154.667 124.827 156.821 124.993 157.566 125.241C158.395 125.571 159.057 125.406 159.057 124.993C159.057 124.579 157.898 123.587 156.572 122.926C155.164 122.264 153.342 121.685 152.431 121.685C151.52 121.685 150.774 121.437 150.774 121.024C150.774 120.693 151.52 119.949 152.514 119.37C153.59 118.709 155.413 118.461 157.649 118.792C159.554 119.122 162.122 118.957 163.365 118.461C165.601 117.552 165.684 117.634 165.849 120.611C166.098 123.174 166.429 123.752 167.92 123.918C168.997 124.083 169.825 123.918 169.825 123.504C169.825 123.174 169.411 122.43 168.831 121.851C167.92 121.024 168.086 120.611 169.577 119.618C170.654 118.957 171.482 117.882 171.482 117.304C171.482 116.807 170.819 115.733 170.074 114.989C169.246 114.327 167.258 113.5 165.684 113.17C163.696 112.756 160.797 110.689 156.158 106.39C152.514 103 148.869 100.189 148.041 100.189C147.295 100.189 146.716 99.6932 146.881 99.1145C147.047 98.6184 149.2 97.1302 151.685 95.89C154.17 94.6499 156.987 93.6577 157.898 93.6577C159.306 93.5751 159.637 93.9884 159.471 95.8074C159.389 97.2955 158.643 98.453 157.566 98.9491C156.572 99.3625 155.744 100.024 155.744 100.355C155.744 100.768 156.407 101.016 157.152 101.016C157.981 101.016 160.465 99.1144 162.702 96.8822C165.27 94.3192 167.589 92.7483 168.749 92.7483ZM342.196 98.1223C343.108 99.0318 344.681 101.099 345.675 102.67C346.669 104.24 348.326 106.225 349.32 106.969C350.811 108.126 351.142 109.036 350.894 111.103C350.645 112.591 351.225 114.761 350.894 115.918C350.562 117.158 350.314 117.998 350.894 118.328C351.391 118.742 350.977 120.941 350.894 124.496L350.148 121.603C348.177 117.123 346.338 116.807 342.942 113.583C339.132 109.945 335.984 107.713 334.824 107.63C333.83 107.63 330.931 108.088 326.127 112.139L329.855 109.78C331.594 108.126 333.748 106.803 334.659 106.803C335.57 106.803 336.15 106.39 335.901 105.977C335.653 105.481 336.812 105.15 338.552 105.15C340.623 105.15 343.025 105.977 345.592 107.63C347.829 108.953 349.568 109.697 349.568 109.284C349.568 108.87 348.74 107.961 347.663 107.3C346.669 106.638 345.095 104.571 344.184 102.752C343.273 100.851 342.031 99.1145 341.451 98.9491C340.954 98.7011 340.457 98.0396 340.457 97.4609C340.374 96.8822 341.12 97.1302 342.196 98.1223ZM326.127 112.591C326.293 112.591 325.962 113.17 325.382 113.914C324.471 114.989 324.553 116.063 325.713 120.28C326.541 123.091 327.784 125.985 328.612 126.646C329.855 127.804 329.937 127.721 329.358 126.233C328.943 125.323 328.364 123.587 327.949 122.264C327.535 121.024 327.37 120.032 327.618 120.032C327.867 120.032 328.529 120.445 329.026 120.859C329.606 121.355 331.76 122.843 333.83 124.166C337.475 126.563 337.641 126.563 341.285 125.323C343.356 124.662 345.841 124.248 346.835 124.496C347.912 124.744 349.382 126.315 349.382 126.646C349.382 127.059 347.672 127.875 345.767 129.776C343.199 132.339 340.043 133.839 329.689 137.394L326.376 131.607C323.145 125.985 323.062 125.654 323.559 120.197C323.891 117.138 323.059 114.087 323.473 113.508C323.97 113.012 325.879 112.591 326.127 112.591ZM271 114.5C276.053 114.5 280.819 116.229 281.399 116.559C281.896 116.89 277.588 117.138 271.873 117.138C266.075 117.138 258.703 117.386 255.555 117.717C252.325 118.048 250.088 118.13 250.585 117.882C251.082 117.717 253.816 117.221 256.798 116.807C259.78 116.394 265.947 114.583 271 114.5ZM117.89 127.638C118.884 128.217 122.115 128.878 130.481 129.54L130.729 134.087C130.812 136.567 130.646 138.882 130.315 139.213C129.901 139.544 128.775 138.578 128.857 137.007C129.023 135.436 129.652 134.087 129.238 134.087C128.741 134.087 128.244 134.5 127.996 134.914C127.747 135.327 126.422 135.741 125.097 135.741C123.689 135.741 122.612 136.154 122.612 136.733C122.612 137.311 123.109 140.701 123.689 144.256C124.517 149.382 124.931 150.623 126.091 150.623C126.919 150.623 127.582 150.871 127.582 151.201C127.499 151.615 126.919 152.276 126.091 152.772C124.765 153.682 124.848 154.012 126.919 156.741C128.244 158.394 129.238 160.048 129.238 160.544C129.238 161.04 128.99 161.371 128.576 161.371C128.244 161.371 127.582 161.04 127.167 160.544C126.67 160.13 125.014 160.048 123.274 160.379C121.121 160.792 120.044 161.453 119.795 162.611C119.547 163.52 119.464 164.264 119.547 164.347C119.63 164.347 121.866 165.587 129.238 169.638V178.32L127.664 175.839C126.836 174.434 126.256 172.615 126.422 171.705C126.67 170.465 125.842 169.473 123.274 167.82C121.286 166.662 119.05 165.339 118.222 164.926C117.393 164.595 116.896 163.768 117.145 163.19C117.393 162.693 117.311 162.115 116.979 161.949C116.565 161.867 116.565 159.717 116.814 157.237C117.228 154.26 117.476 153.599 117.559 155.335C117.642 157.402 117.973 157.981 118.884 157.65C119.547 157.402 120.872 157.237 121.783 157.237C122.943 157.237 123.606 156.575 123.854 154.922C124.103 153.682 123.771 150.953 123.026 148.721C122.363 146.571 121.286 144.67 120.707 144.422C120.044 144.091 119.795 142.437 120.044 138.8C120.21 134.914 119.961 133.012 118.801 130.945C117.89 129.457 116.979 128.3 116.565 128.3C116.234 128.3 115.985 127.886 116.068 127.473C116.068 126.894 116.731 126.977 117.89 127.638ZM218.281 126.646C218.447 126.646 218.199 127.473 217.784 128.465C217.37 129.54 215.299 131.193 213.312 132.185C211.241 133.26 209.17 134.087 208.756 134.087C208.259 134.087 208.425 133.178 209.087 132.02C209.75 130.863 210.992 129.953 211.986 129.953C212.98 129.953 214.72 129.209 215.962 128.3C217.122 127.39 218.199 126.646 218.281 126.646ZM304.192 126.646C305.352 126.977 307.573 129.374 308.319 129.292C309.147 129.209 309.967 128.465 309.967 128.796C309.967 129.209 310.7 129.256 312.025 129.174C313.268 129.174 315.194 129.788 316.187 129.292C317.264 128.713 318.341 128.3 318.672 128.3C319.087 128.217 320.329 129.54 321.571 131.193C323.062 132.93 323.725 134.748 323.477 135.741C323.228 136.733 322.4 137.394 321.406 137.394C320.163 137.394 319.832 137.808 320.163 139.048C320.412 139.957 323.119 140.622 322.871 140.622C322.622 140.622 317.761 138.882 315.359 136.65C313.04 134.418 309.147 131.689 306.91 130.449C304.591 129.209 303.033 126.398 304.192 126.646ZM186.888 160.048C187.054 160.213 186.806 162.363 186.309 164.843C185.812 167.241 185.729 170.548 185.977 172.119C186.392 174.351 186.143 175.591 184.818 177.245C183.658 178.788 183.078 180.8 183.078 183.28C183.078 185.347 182.664 187.166 182.25 187.414C181.753 187.662 181.09 189.068 180.014 193.202L179.268 190.473C178.854 188.985 178.108 187.827 177.694 187.993C177.584 188.048 177.473 188.158 177.363 188.324L178.026 190.721C178.44 192.127 179.434 195.847 180.262 198.989C181.09 202.131 181.836 206.761 182.001 209.076C182.167 211.639 181.919 213.458 181.422 213.458C180.925 213.458 178.854 211.308 176.7 208.662C173.387 204.528 172.973 204.28 173.47 206.43C173.801 207.835 174.298 210.481 174.63 212.465C175.016 214.835 175.679 216.131 176.617 216.351C177.446 216.599 178.108 217.013 178.108 217.343C178.108 217.757 177.197 219.41 176.038 221.064C174.298 223.627 173.967 225.198 173.967 235.367L181.256 242.395C186.723 247.769 190.45 250.497 196.745 253.887C201.301 256.367 206.851 259.592 209.17 260.997C211.406 262.485 219.607 266.702 227.393 270.422C235.096 274.225 242.385 277.367 243.545 277.533C244.704 277.698 247.852 278.359 250.585 279.103C253.319 279.848 257.129 280.426 259.034 280.426C261.022 280.426 262.762 280.757 263.01 281.253C263.259 281.749 264.915 282.08 266.737 282.08C268.56 282.08 272.784 281.501 276.015 280.757C281.316 279.682 282.641 278.938 287.031 275.052C291.752 270.836 292.332 270.009 298.462 255.871C302.106 247.769 306.662 236.111 308.733 229.993C310.721 223.875 313.703 215.855 315.359 212.217C318.258 205.768 318.341 205.355 318.424 194.69C318.424 188.737 318.258 183.528 317.844 183.115C317.513 182.784 316.767 183.115 316.187 183.859C315.608 184.603 313.951 185.264 312.294 185.347C310.721 185.43 308.981 185.43 308.567 185.264C308.07 185.182 307.325 185.016 306.91 185.016C306.413 184.934 305.171 184.355 304.011 183.694C302.852 183.115 301.775 182.619 301.526 182.701C301.278 182.784 301.029 182.453 300.864 182.04C300.781 181.544 301.278 181.379 301.941 181.627C302.603 181.875 303.183 181.709 303.183 181.213C303.183 180.717 303.514 180.552 304.011 180.8C304.426 181.048 304.84 181.048 304.84 180.8C304.84 180.552 305.005 179.808 305.254 179.146C305.585 178.154 305.005 177.989 301.692 178.402C293.5 181 295.068 177.906 292.5 179.146L296 177.493C296.911 176.831 299.678 177.248 301.5 177C303.322 176.752 305.668 177.493 307.159 178.072C309.727 179.064 311.414 178.402 311 180.8C310.586 183.28 309.595 183.115 311.5 183.115C312.66 183.115 313.951 182.04 315.359 181.213C316.684 180.469 318.341 181.957 318.672 182.288C319.004 182.701 320.169 183.032 320.5 185.347C320.914 187.745 321.752 195.453 322 200C322.414 207.689 321.406 208.414 319.418 212.796C318.258 215.442 316.85 217.591 316.436 217.591C315.939 217.591 315.773 217.922 316.022 218.418C316.27 218.914 316.022 219.245 315.608 219.245C315.111 219.245 314.862 219.493 314.862 219.824C314.945 220.237 314.945 220.733 314.862 221.064C314.862 221.477 314.614 222.056 314.365 222.552C314.117 223.048 313.951 223.461 313.868 223.544C313.868 223.71 313.703 224.454 313.454 225.198C313.288 226.025 312.957 227.347 312.791 228.091C312.543 228.918 312.377 229.662 312.377 229.745C312.294 229.91 312.129 230.324 311.88 230.82C311.632 231.316 311.466 231.812 311.466 232.06C311.466 232.308 311.466 232.556 311.466 232.639C311.466 232.804 310.555 235.698 309.395 239.088C308.236 242.477 307.325 245.371 307.325 245.454C307.325 245.619 308.07 245.702 308.981 245.702C309.975 245.702 310.721 246.28 310.721 247.107C310.803 247.934 310.886 249.34 310.803 250.249C310.803 251.158 309.81 255.458 308.567 259.757C307.325 264.056 305.419 269.017 304.343 270.67C303.266 272.407 302.355 273.977 302.355 274.225C302.355 274.474 301.609 275.631 300.781 276.871C299.87 278.194 299.041 279.765 298.876 280.426C298.793 281.088 298.048 281.997 297.302 282.493C296.474 282.907 291.67 288.115 286.534 293.903C279.493 301.84 275.766 305.312 271.873 307.545C269.057 309.198 266.82 310.934 266.986 311.43C267.152 311.926 268.146 312.174 269.057 312.009C270.051 311.926 270.879 312.174 270.879 312.671C270.879 313.167 269.471 314.655 267.731 316.143C266.075 317.549 264.418 319.119 264.087 319.615C263.756 320.277 264.75 320.36 267.4 320.029C270.382 319.698 273.364 318.21 279.742 314.076C284.463 311.017 288.853 303.304 289.102 303.304C289.35 303.304 290.334 303.765 290.334 304.509C290.334 305.418 291.587 302.701 292.415 302.701C293.243 302.701 291.916 306.978 292.744 306.316C293.49 305.655 293.74 306.409 293.658 305.996C293.658 305.665 294.01 306.068 293.347 306.316C292.684 306.564 293.347 305.607 293.347 305.111C293.347 304.615 293.641 305.962 294.552 305.714C295.546 305.466 295.894 306.552 296.142 307.297C296.391 308.041 295.48 309.529 294.072 310.769C292.664 312.092 289.599 315.978 287.197 319.533C283.221 325.486 282.558 326.064 278.748 327.139C276.429 327.801 273.447 328.545 272.121 328.793C270.299 329.206 268.063 328.627 263.424 326.478C259.697 324.741 255.39 321.93 252.656 319.367C250.171 316.97 245.45 313.497 242.302 311.513C239.072 309.611 229.878 304.816 221.76 300.848C207.596 293.903 207.016 293.655 203.537 294.482C201.632 294.895 199.562 295.308 198.982 295.308C198.485 295.308 197.988 295.06 197.988 294.647C197.988 294.316 199.147 293.572 200.638 293.076C202.129 292.497 204.034 292.001 204.78 292.001C205.691 292.001 206.271 291.34 206.271 290.348C206.271 289.107 204.614 287.867 199.81 285.47C194.509 282.824 192.604 281.253 188.628 276.375C186.06 273.151 183.907 270.34 183.907 270.092C183.907 269.844 184.652 269.926 185.48 270.257C186.971 270.836 187.137 270.588 186.971 267.777C186.806 265.048 186.143 263.973 182.001 260.336C178.026 256.781 177.032 256.202 176.203 257.194C175.458 258.021 175.458 258.351 176.203 258.599C176.783 258.765 177.28 259.509 177.28 260.17C177.28 260.832 176.783 261.245 176.203 260.997C175.706 260.832 174.795 259.592 174.215 258.351C173.718 257.111 173.056 254.714 172.724 253.143C172.476 251.572 171.233 245.867 167.755 230.82L161.128 228.009C157.484 226.521 152.597 224.784 150.36 224.288C148.041 223.792 145.39 222.552 144.479 221.56C143.485 220.485 142.325 218.914 141.828 218.005C141 216.599 140.917 216.847 141.331 219.245C141.663 220.816 142.408 224.206 143.071 226.686C143.734 229.166 144.065 231.399 143.734 231.647C143.485 231.895 143.319 231.399 143.319 230.572C143.319 229.745 142.325 228.836 140.835 228.339C138.515 227.595 138.35 227.595 138.764 229.332C139.012 230.406 138.515 229.58 137.604 227.513C136.776 225.446 135.285 221.808 134.291 219.41C133.297 217.095 132.883 215.111 133.38 215.111C133.794 215.111 134.208 215.69 134.208 216.351C134.208 217.095 134.705 217.426 135.451 217.178C136.196 216.93 137.438 217.839 138.515 219.493C139.509 220.898 140.42 221.643 140.586 221.147C140.752 220.568 140.255 219.245 139.592 218.253C138.929 217.178 137.853 214.698 137.19 212.631C136.527 210.398 135.533 208.828 134.705 208.662C133.711 208.58 133.297 209.241 132.966 214.698L131.723 212.465C130.646 210.564 130.646 210.15 131.723 209.076C132.386 208.497 133.794 207.67 134.788 207.422C136.527 206.843 136.693 194.297 136.693 188.179C136.693 184.293 137.024 181.564 137.521 181.564C137.935 181.564 138.35 183.218 138.35 185.285C138.35 188.592 138.598 189.005 140.338 189.171C141.828 189.336 142.491 188.923 142.822 187.517C143.071 186.525 143.568 185.698 143.899 185.698C144.313 185.698 144.479 187.021 144.313 188.592C144.231 190.163 144.479 191.486 144.976 191.486C145.39 191.486 147.182 202.623 146.933 203.284C146.685 204.029 147.212 204.694 148.289 205.19C149.366 205.603 151.995 205.908 155.971 206.9C160.03 207.809 163.53 210.812 164.027 210.564C164.524 210.316 164.607 208.332 164.193 205.19C163.613 200.394 163.696 200.229 165.435 200.229C167.258 200.229 167.34 200.56 167.423 206.595C167.506 211.887 167.589 212.548 168.252 210.564C168.666 209.158 169.742 207.339 170.654 206.43C171.482 205.52 172.476 203.536 172.724 202.048C173.139 199.485 172.973 199.402 166.098 197.666L166.346 193.78C166.512 191.631 167.34 186.505 168.334 182.453C169.245 178.402 170.405 174.351 170.736 173.524C171.151 172.78 171.233 171.457 170.985 170.631C170.571 169.308 170.571 169.308 171.648 170.631C172.227 171.457 173.304 172.036 173.967 172.036C174.63 172.036 175.945 168.729 178.265 166.745C180.501 164.76 180.343 163.187 180.675 163.518C181.006 163.848 180.84 163.222 180.675 162.313C180.592 161.321 181.3 161.025 181.88 161.108C182.459 161.273 182.731 161.604 182.482 161.108C182.234 160.612 184.155 159.796 184.486 159.3C184.735 158.804 186.806 159.8 186.888 160.048ZM177.363 188.241C177.363 188.241 177.363 188.268 177.363 188.324V188.241ZM177.363 188.241C177.114 188.737 176.866 189.812 176.866 190.887C176.866 192.375 176.617 193.615 176.286 193.615C175.955 193.615 175.623 190.142 175.623 178.32L179.351 172.697C181.422 169.638 183.078 166.91 183.078 166.745C183.078 166.497 182.416 166.91 181.587 167.737C180.759 168.564 180.179 169.39 180.262 169.638C180.428 169.804 179.02 172.284 177.114 175.012C174.215 179.146 173.47 180.965 172.642 186.587C171.979 191.465 171.979 193.367 172.642 193.78C173.139 194.111 174.464 194.359 175.623 194.194C177.446 194.028 177.694 193.615 177.363 188.241ZM129.321 181.627C129.735 182.949 132.054 183.611 132.966 184.52C133.877 185.43 134.457 189.481 134.208 190.473C133.96 191.879 132.408 191.815 131 189.5C130.172 188.012 129.404 185.347 129.073 185.347C128.741 185.347 130.19 187.414 130.439 188.324C130.853 189.812 129.073 188.489 125.925 186.587C124.103 185.43 121.535 184.52 120.127 184.52C117.973 184.52 117.725 184.768 118.056 186.339C118.47 188.075 117.198 188.587 116.204 187.016C115.625 186.189 115.82 184.438 115.157 183.694C114.08 182.453 114.246 182.205 117.228 181.296C119.05 180.717 121.701 180.469 123.026 180.8C124.434 181.131 126.173 181.461 127.002 181.709C127.913 181.875 128.41 181.461 128.493 180.552C128.493 179.725 128.907 180.221 129.321 181.627ZM142.74 243.221C143.071 243.221 143.752 242.725 144 243.221C144.276 243.717 144.507 244.517 145.225 243.966C146.053 243.304 147.875 243.883 152.265 246.032C157.898 248.761 158.229 249.174 158.229 251.655C158.229 254.218 158.063 254.3 155.661 253.969C154.005 253.639 152.431 252.647 151.52 251.241C150.691 250.001 150.568 250 148 250L149 251.655C149.911 253.225 151.331 252.421 151 253C150.586 253.579 152.182 255.331 152.679 255C153.176 254.669 151.437 256.946 152.679 258.351C153.922 259.757 156.49 262.981 158.395 265.544C161.045 269.017 161.956 269.761 162.453 268.851C162.868 268.107 162.702 265.71 162.122 263.229C161.542 260.501 161.459 258.93 161.956 258.847C162.453 258.847 163.779 258.021 164.938 257.029C166.098 256.036 167.589 253.556 168.252 251.655C168.914 249.67 169.742 248.099 170.074 248.099C170.405 248.099 170.654 250.58 170.654 253.556C170.654 258.434 170.819 259.013 172.724 259.922C173.884 260.501 174.878 261.493 174.878 262.237C174.878 262.899 175.872 266.454 177.197 270.092C178.44 273.729 181.09 279.103 182.995 282.08C185.398 285.8 187.965 288.529 191.61 291.009C194.426 292.993 196.331 294.482 195.917 294.316C195.42 294.151 192.438 292.415 189.291 290.43C185.977 288.446 183.078 285.966 182.498 284.643C181.919 283.485 180.345 281.17 178.937 279.6C177.611 277.946 175.955 276.127 175.375 275.466C174.795 274.722 173.967 273.481 173.553 272.572C173.221 271.662 172.973 270.588 173.056 270.257C173.056 269.926 172.807 269.678 172.31 269.678C171.896 269.678 171.648 269.265 171.896 268.851C172.145 268.355 171.979 268.025 171.482 268.025C171.068 268.025 170.902 267.363 171.151 266.536C171.482 265.71 171.316 264.387 170.819 263.477C169.908 261.824 169.908 261.824 169.825 263.643C169.825 264.635 169.577 265.544 169.245 265.544C168.914 265.544 168.666 269.1 168.831 273.564C168.914 278.029 169.411 283.651 169.908 286.214C170.322 288.694 170.488 291.34 170.239 292.167C170.074 292.993 170.157 293.655 170.488 293.655C170.819 293.655 170.985 294.564 170.902 295.722C170.736 296.796 170.985 297.789 171.316 297.789C171.648 297.789 171.813 298.698 171.73 299.856C171.565 300.93 171.896 301.922 172.31 301.922C172.807 301.922 172.973 302.997 172.724 304.403C172.476 305.726 172.724 306.883 173.139 306.883C173.636 306.883 173.801 307.793 173.553 308.95C173.304 310.025 173.553 311.017 173.967 311.017C174.464 311.017 174.63 311.513 174.381 312.257C174.133 312.919 174.381 313.497 174.795 313.497C175.292 313.497 175.458 313.828 175.209 314.324C174.961 314.737 175.209 315.73 175.623 316.556C176.12 317.383 177.777 322.592 179.351 328.131C180.925 333.671 182.25 338.383 182.25 338.466C182.25 338.549 181.09 338.549 179.765 338.466C177.611 338.301 177.28 338.549 177.28 340.368C177.28 342.104 177.611 342.434 180.179 342.434C182.581 342.434 182.995 342.186 182.581 340.946C182.167 339.706 182.25 339.706 182.995 340.781C183.492 341.442 183.907 342.765 183.824 343.675C183.824 344.584 183.658 344.832 183.41 344.253C183.244 343.675 181.753 343.261 180.179 343.261C177.943 343.261 177.363 343.509 177.529 344.667C177.611 345.494 178.854 346.486 180.428 346.982C182.995 347.726 183.078 347.974 183.078 352.108C183.078 356.242 183.244 356.49 185.315 356.655C187.137 356.82 187.634 357.482 188.628 360.624C189.208 362.608 190.036 366.246 190.367 368.643C190.699 371.372 190.699 372.943 190.119 372.943C189.705 373.025 189.208 372.116 189.125 371.124C188.959 370.131 188.628 369.057 188.297 368.891C187.965 368.643 187.551 367.734 187.385 366.824C187.22 365.915 186.557 364.427 185.977 363.517C184.901 361.864 184.901 361.864 183.989 363.683C183.492 364.675 183.078 366.494 183.078 367.651C183.078 368.726 182.83 369.553 182.498 369.387C182.167 369.222 181.007 367.32 180.014 365.253C178.937 363.104 177.86 361.45 177.529 361.45C177.197 361.45 176.866 357.813 176.866 353.348C176.866 348.883 176.535 340.864 176.203 335.407C175.789 329.95 174.961 323.419 174.215 320.938C173.553 318.375 172.31 312.423 171.399 307.71C170.488 302.915 169.163 298.45 168.5 297.789C167.837 297.044 167.506 298.59 167.589 299.086C167.672 299.499 167.34 299.194 167.092 300.434C166.761 301.674 166.098 302.667 165.518 302.667C164.938 302.667 163.613 301.84 162.536 300.848C161.542 299.856 160.714 298.615 160.714 298.202C160.714 297.706 161.625 297.458 162.619 297.623C163.613 297.789 165.684 297.458 167.175 296.796C168.666 296.218 167.589 294.913 167.589 294.582C167.589 294.252 169.494 293.737 168.997 292.828C168.5 291.753 167.092 291.009 165.104 290.678C162.95 290.43 161.791 289.769 161.377 288.611C160.797 287.123 160.88 287.041 163.033 287.95C164.276 288.529 165.684 289.273 166.098 289.686C166.595 290.017 167.258 290.348 167.589 290.348C167.92 290.348 168.169 289.19 168.169 287.867C168.169 285.8 167.423 284.808 164.276 282.411C162.122 280.84 159.72 279.517 159.057 279.517C158.395 279.517 157.152 280.178 156.324 281.005C155.496 281.832 154.999 283.237 155.081 284.147C155.302 285.249 156.213 285.938 157.815 286.214C160.3 286.627 160.452 287.662 158.381 288.241C157.222 288.571 155.164 287.785 153.922 287.785C152.182 287.867 151.603 287.454 151.603 286.214C151.603 285.304 151.52 283.236 152.265 281.5C153.508 278.689 153.508 278.938 152.265 279.517C151.52 279.848 150.194 280.013 148.289 279.517C146.301 279.021 143.651 277.615 142.491 277.533C141.331 277.45 140.338 276.871 140.255 276.375C140.089 275.879 139.012 275.913 139.012 275.5C139.012 275.004 139.592 274.06 139.012 274.391C138.294 274.832 138.156 274.694 138.598 273.977C138.929 273.399 138.515 272.241 137.521 271.332C136.362 270.092 135.947 268.769 136.113 266.536C136.279 263.808 136.178 262 138 262C139.16 262 139.834 262.161 140 261.5C140.166 260.756 139.16 258.517 138 255.788C136.095 251.406 136.776 250.745 137.604 248.595C138.184 247.19 139.089 244.048 140 243.221C140.994 242.477 142.408 243.221 142.74 243.221Z" fill="#6562F6"/>
<path fill-rule="evenodd" clip-rule="evenodd" d="M267.98 79.5199L270.299 83.2404C271.542 85.3073 273.033 86.7955 273.612 86.7128C274.109 86.5475 274.938 85.142 275.269 83.5711C275.683 82.0002 276.263 80.4294 276.511 80.0986C276.843 79.6853 278.002 79.9333 279.162 80.5947C280.322 81.3388 283.552 82.3309 286.451 82.9924C289.433 83.5711 291.587 84.4806 291.587 85.0593C291.587 85.638 291.255 86.2995 290.758 86.5475C290.261 86.7955 289.93 87.5396 289.93 88.201C289.93 88.8625 290.51 89.4412 291.173 89.4412C291.835 89.4412 292.581 90.1026 292.746 90.9294C292.912 91.6735 293.409 93.4097 293.74 94.8152C294.32 97.0475 294.486 96.8822 294.9 92.7483C295.231 89.2758 295.645 88.201 296.722 88.0357C297.633 87.8703 298.213 88.2837 298.213 89.0278C298.213 89.7719 299.041 90.3507 300.201 90.516C301.858 90.6814 302.189 90.3507 301.858 89.0278C301.526 87.7877 302.189 86.7128 304.343 85.0593C305.999 83.8191 307.904 82.9097 308.733 82.9924C309.478 83.1577 310.638 84.4806 311.383 85.8861C312.129 87.3743 313.04 88.6144 313.537 88.6144C314.034 88.6144 315.608 89.1105 317.016 89.8546C319.418 90.9294 319.749 91.5081 319.666 94.2365C319.666 96.7995 320.246 97.8743 323.477 101.016C325.547 103.083 327.287 105.398 327.204 106.225C327.204 106.969 326.955 107.465 326.541 107.3C326.21 107.134 325.961 107.465 325.961 108.126C325.961 108.788 326.21 109.284 326.541 109.284C326.955 109.284 328.364 108.374 329.689 107.217C331.014 106.059 332.919 105.15 333.83 105.15C334.742 105.15 335.653 105.563 335.901 105.977C336.15 106.39 335.57 106.803 334.659 106.803C333.748 106.803 331.014 108.54 328.529 110.772C324.056 114.658 323.974 114.741 323.559 120.28C323.062 125.571 323.145 126.067 329.689 137.394L335.653 135.327C339.684 133.894 342.804 132.13 345.013 130.036C346.835 128.3 348.988 126.646 349.734 126.315C350.562 126.067 351.225 125.985 351.225 126.233C351.225 126.481 350.728 127.473 350.065 128.548C349.485 129.54 348.74 131.441 348.491 132.847C348.243 134.252 348.409 136.154 348.988 137.063C349.568 138.056 350.645 139.709 351.391 140.784C352.716 142.52 352.799 143.512 351.97 149.382C351.556 153.02 350.811 157.237 350.397 158.725C349.817 160.461 348.409 162.197 346.007 163.686C344.101 165.008 341.368 166.414 340.043 166.91C338.717 167.406 335.239 170.134 332.339 173.028C329.523 175.922 325.796 180.221 324.139 182.453C322.483 184.768 320.826 187.497 320.495 188.654C319.998 190.39 319.915 190.225 319.832 187.414C319.749 185.595 319.418 183.528 318.921 182.867C318.258 181.792 317.844 181.792 315.276 183.115C313.62 183.859 311.549 184.52 310.638 184.52C309.23 184.52 309.064 184.107 309.478 181.875C309.892 179.312 309.727 179.064 306.745 178.072C304.26 177.162 302.769 177.162 299.87 177.906C297.799 178.485 294.9 179.064 293.409 179.229C290.758 179.56 290.758 179.56 289.102 174.02C288.191 170.879 287.445 167.737 287.445 166.993C287.445 166.166 288.522 163.272 289.93 160.544C291.669 157.071 292.829 155.749 293.657 155.997C294.32 156.245 295.066 156.079 295.314 155.583C295.563 155.087 296.391 155.005 297.219 155.253C297.965 155.501 300.864 155.087 303.597 154.343C306.331 153.516 310.472 152.028 312.709 150.953C315.028 149.796 319.087 148.473 321.82 147.977C324.553 147.481 327.37 146.489 328.032 145.91C329.109 145.001 329.109 144.67 327.784 143.43C326.955 142.603 324.967 141.528 323.228 141.115C321.406 140.536 320.08 139.626 319.998 138.8C319.832 137.863 320.301 137.394 321.406 137.394C322.4 137.394 323.228 136.733 323.477 135.741C323.725 134.749 323.062 132.93 321.571 131.193C320.329 129.54 319.087 128.217 318.672 128.3C318.341 128.3 317.099 128.878 315.773 129.54C314.531 130.201 313.371 130.615 313.123 130.367C312.874 130.201 311.383 129.871 309.809 129.622C308.236 129.374 305.834 128.878 304.425 128.465C303.017 127.969 300.201 126.894 297.965 125.902C295.811 124.91 292.663 122.926 291.007 121.355C289.185 119.784 285.788 117.965 282.889 117.138C278.665 115.815 276.263 115.65 266.737 116.146C260.608 116.477 253.981 117.056 251.993 117.552C249.094 118.213 247.686 118.048 243.793 116.725C241.143 115.733 237.332 113.996 235.262 112.839C233.191 111.681 231.286 110.276 231.037 109.78C230.706 109.284 229.298 108.292 227.89 107.63C226.399 106.969 225.239 106.142 225.322 105.729C225.322 105.398 226.399 104.737 227.807 104.323C229.795 103.662 230.457 103.744 231.369 104.819C231.866 105.563 233.357 106.721 234.682 107.3C235.924 107.961 237.747 108.457 240.646 108.54L238.989 106.638C237.995 105.563 236.753 104.075 236.09 103.166C235.013 101.843 235.344 101.926 238.161 103.496C241.225 105.233 242.054 105.398 248.515 104.737C252.408 104.406 257.129 103.414 259.117 102.587C261.685 101.429 262.596 100.52 262.596 99.1145C262.596 97.4609 262.265 97.2956 258.868 97.5436C256.798 97.6263 255.141 97.4609 255.141 97.0475C255.224 96.7168 255.804 96.0554 256.632 95.4767C257.378 94.9806 257.709 94.2365 257.378 93.8231C256.963 93.4924 256.052 94.0711 255.307 95.146C254.064 96.8822 253.402 97.0475 249.343 96.6342C245.864 96.3034 244.456 95.8074 243.296 94.3192C242.468 93.2444 241.805 92.0869 241.888 91.6735C241.888 91.3428 244.042 91.3428 246.692 91.5908C250.42 92.0042 252.573 91.7562 256.798 90.268C259.78 89.2758 262.762 88.1184 263.424 87.7877C264.335 87.2916 263.838 86.7128 261.353 85.4727C259.531 84.5632 257.046 83.9845 255.804 84.1498C254.478 84.3152 253.402 84.3152 253.319 84.0672C253.236 83.8191 253.816 82.6616 254.644 81.5868C255.969 79.6853 256.715 79.5199 267.98 79.5199ZM129.238 134.087C129.735 134.087 129.818 136.733 129.569 140.453C129.321 144.008 128.99 147.564 128.741 148.308C128.575 149.134 128.99 150.044 129.735 150.375C130.812 150.953 130.895 151.284 130.066 152.69C129.487 153.599 129.238 155.005 129.569 155.749C129.818 156.575 130.481 157.237 130.895 157.237C131.392 157.237 131.557 156.575 131.309 155.749C131.06 155.005 131.392 153.847 131.889 153.268C132.469 152.69 133.38 152.193 133.794 152.193C134.291 152.193 134.871 153.351 135.285 154.756C135.616 156.245 136.527 157.402 137.521 157.65C138.432 157.898 139.178 158.394 139.178 158.89C139.178 159.386 138.101 159.717 136.693 159.717C135.368 159.717 134.208 159.965 134.208 160.296C134.208 160.709 135.782 161.619 137.77 162.363C139.675 163.19 141.911 163.851 142.74 163.851C143.734 163.851 144.313 162.942 144.645 160.709C144.976 159.056 144.976 156.41 144.645 154.922C144.396 153.351 144.479 152.276 144.976 152.276C145.473 152.276 145.804 151.945 145.804 151.449C145.804 150.953 145.225 150.623 144.562 150.623C143.899 150.623 143.154 151.615 142.822 152.855C142.491 154.674 142.243 154.922 141.663 153.93C141.166 153.268 140.834 151.697 140.834 150.375C140.834 148.308 141.083 148.142 143.982 148.142C147.047 148.142 147.047 148.142 148.289 152.69C149.118 155.914 150.194 157.816 154.087 160.544L158.063 158.56C160.217 157.485 163.944 155.749 170.654 153.103L177.943 154.839C181.919 155.831 185.646 157.071 186.226 157.568C187.137 158.312 186.806 159.221 184.486 162.611C182.913 164.843 180.013 167.985 178.191 169.39C176.286 170.879 174.298 172.119 173.801 172.119C173.221 172.036 172.227 171.457 171.648 170.631C170.571 169.308 170.571 169.308 170.985 170.631C171.233 171.457 171.151 172.78 170.736 173.524C170.405 174.351 169.245 178.402 168.334 182.453C167.34 186.505 166.512 191.631 166.098 197.666L169.66 198.493C172.973 199.402 173.139 199.485 172.724 202.048C172.476 203.536 171.482 205.52 170.654 206.43C169.742 207.339 168.666 209.158 168.251 210.564C167.589 212.548 167.506 211.887 167.423 206.595C167.34 200.56 167.258 200.229 165.518 200.229C163.696 200.229 163.613 200.394 164.276 205.19C164.607 208.332 164.524 210.316 164.027 210.564C163.613 210.812 159.968 210.233 155.993 209.241C151.934 208.332 148.041 207.422 147.295 207.174C146.301 206.954 145.611 205.658 145.225 203.288C144.893 201.387 144.728 199.32 144.81 198.741C144.893 198.245 144.645 197.749 144.148 197.749C143.734 197.749 143.154 198.493 142.905 199.402C142.629 200.505 141.801 201.056 140.42 201.056C138.515 201.056 138.35 200.725 138.35 197.335C138.35 195.268 138.018 193.615 137.521 193.615C137.024 193.615 136.693 196.343 136.693 200.229C136.693 206.347 136.527 206.843 134.871 207.422C133.794 207.67 132.469 208.414 131.972 209.076C131.06 209.902 131.475 211.639 133.794 217.757C135.368 221.973 136.527 225.611 136.279 225.859C136.113 226.107 135.782 225.528 135.533 224.619C135.285 223.71 133.628 222.304 131.723 221.477C128.907 220.32 127.996 219.162 125.511 214.036C123.854 210.812 121.701 207.174 120.624 206.017C119.547 204.859 117.89 202.379 116.896 200.394C115.902 198.493 115.157 195.682 115.157 194.194C115.157 192.788 114.577 189.894 113.914 187.827C113.252 185.761 113.274 181.901 113.192 180.991C113.192 179.503 113.094 180.814 114.999 182.799C116.159 184.121 116.814 185.678 116.814 186.174C116.814 186.67 118.553 187.91 120.789 188.985C122.943 190.06 125.262 191.548 125.925 192.292C126.588 193.036 127.747 193.698 128.41 193.698C129.404 193.615 129.569 192.788 129.238 189.481C128.99 187.249 128.99 185.347 129.238 185.347C129.487 185.347 130.398 186.587 131.226 188.076C132.469 190.142 132.883 190.39 133.131 189.233C133.297 188.489 132.469 186.67 131.309 185.347C129.487 183.115 129.238 182.123 129.238 169.638L124.517 166.993C121.866 165.587 119.63 164.347 119.547 164.347C119.464 164.264 119.547 163.52 119.795 162.611C120.044 161.453 121.121 160.792 123.274 160.379C125.014 160.048 126.67 160.131 127.167 160.544C127.664 161.04 128.244 161.371 128.658 161.371C128.99 161.371 129.238 161.04 129.238 160.544C129.238 160.048 128.244 158.394 127.002 156.741C124.848 154.012 124.765 153.682 126.091 152.772C126.919 152.276 127.499 151.615 127.582 151.201C127.582 150.871 126.919 150.623 126.173 150.623C124.931 150.623 124.517 149.382 123.688 144.256C123.109 140.701 122.612 137.312 122.612 136.733C122.612 136.154 123.688 135.741 125.097 135.741C126.505 135.741 127.747 135.327 127.996 134.914C128.327 134.418 128.824 134.087 129.238 134.087ZM321 209C321 209.165 320.743 211.804 320.329 213.127C319.998 214.45 319.501 217.343 319.418 219.658C319.252 221.891 318.507 227.099 317.761 231.233C317.016 235.284 315.856 240.741 315.111 243.221C314.365 245.702 312.543 252.068 310.886 257.277C309.312 262.485 306.579 269.182 304.84 272.159C303.1 275.135 300.864 278.442 298.047 281.667L299.5 279C300.163 277.843 301.361 276.044 302.355 274.226C303.349 272.407 304.42 269.909 305 269C305.58 268.091 307.49 263.477 308.898 258.517C310.306 253.473 310.666 248.575 310.5 247.5C310.252 246.343 310.058 245.702 308.981 245.702C308.07 245.702 306.834 245.661 307 245C307.166 244.504 308.595 238.87 310.5 233C312.322 227.047 314.261 219.224 316 216C317.657 212.693 320.917 208.835 321 209ZM141.828 218.005C142.325 218.914 143.485 220.485 144.479 221.56C145.39 222.552 148.124 223.792 150.36 224.288C152.679 224.784 157.483 226.521 167.754 230.82L169.991 240.493C171.233 245.867 172.476 251.572 172.724 253.143C173.056 254.714 173.718 257.111 174.215 258.351C174.795 259.592 175.706 260.832 176.286 260.997C176.783 261.245 177.28 260.832 177.28 260.17C177.28 259.509 176.783 258.765 176.286 258.599C175.458 258.351 175.458 258.021 176.203 257.194C177.032 256.202 178.026 256.781 182.001 260.336C186.143 263.974 186.806 265.048 186.971 267.777C187.137 270.588 186.971 270.836 185.48 270.257C184.652 269.926 183.907 269.844 183.907 270.092C183.907 270.34 186.06 273.151 188.711 276.375C192.272 280.757 194.675 282.824 198.402 284.726C201.135 286.131 203.537 287.619 203.786 288.033C204.034 288.446 204.531 288.694 204.946 288.529C205.36 288.446 205.857 289.107 206.022 290.1C206.188 291.422 205.94 291.836 205.277 291.505C204.697 291.174 202.875 291.67 201.301 292.497C199.727 293.407 198.319 294.316 198.236 294.647C198.071 295.06 195.337 293.572 192.19 291.34C187.551 288.281 185.563 286.296 182.747 281.667C180.759 278.442 178.191 272.985 176.949 269.43C175.789 265.958 174.795 262.568 174.795 261.989C174.795 261.493 173.884 260.501 172.724 259.922C170.819 259.013 170.654 258.517 170.654 253.556C170.654 250.58 170.405 248.182 170.074 248.182C169.66 248.182 168.914 249.753 168.251 251.655C167.589 253.639 166.098 256.036 164.938 257.029C163.779 258.021 162.453 258.93 161.956 258.93C161.459 258.93 161.459 260.501 162.122 263.312C162.702 265.71 162.867 268.19 162.453 268.851C161.956 269.844 161.045 269.1 158.395 265.544C156.489 263.064 154.253 260.253 153.425 259.344C152.514 258.434 150.609 255.706 149.2 253.308C146.798 249.34 146.715 249.009 148.289 249.009C149.2 249.009 150.609 250.001 151.52 251.241C152.431 252.647 154.005 253.721 155.661 253.97C158.063 254.383 158.229 254.218 158.229 251.655C158.229 249.174 157.815 248.844 152.265 246.032C148.124 244.048 145.97 243.387 145.39 243.966C144.81 244.544 144.231 244.544 143.485 243.8C142.574 243.056 141.994 243.056 140.752 243.8C139.344 244.792 139.178 244.627 138.681 241.733C138.432 240.08 137.935 237.103 137.438 235.119C137.024 233.217 136.693 230.406 136.859 226.273L138.018 228.753C138.847 230.406 139.095 230.599 138.764 229.332C138.35 227.595 138.515 227.595 140.834 228.339C142.325 228.836 143.319 229.745 143.319 230.572C143.319 231.399 143.485 231.895 143.734 231.647C144.065 231.399 143.734 229.166 143.071 226.686C142.408 224.206 141.663 220.816 141.331 219.245C140.917 216.847 141 216.599 141.828 218.005ZM138.764 256.45C139.923 258.93 140.669 261.576 140.42 262.237C140.255 262.899 139.509 263.477 138.929 263.477C138.101 263.477 137.77 262.403 137.853 259.757C137.935 257.69 137.687 255.127 137.273 253.97C136.941 252.812 137.604 253.97 138.764 256.45ZM146.798 278.442C149.2 279.021 151.768 279.434 152.431 279.186C153.508 278.855 153.508 279.269 152.431 282.493C151.52 285.222 151.023 285.8 150.691 284.726C150.36 283.981 149.615 282.907 149.035 282.411C148.372 281.915 146.964 281.17 145.804 280.84C144.645 280.509 143.237 279.93 142.74 279.517C142.16 279.104 141.828 278.442 141.994 278.029C142.243 277.615 144.313 277.781 146.798 278.442ZM294.734 285.387C294.983 285.387 294.403 286.214 293.492 287.206C292.581 288.281 291.587 289.438 291.338 289.934C291.007 290.348 291.587 292.249 292.415 294.068C293.326 295.887 294.072 297.871 294.072 298.367C294.072 298.946 294.9 300.848 295.894 302.501C296.888 304.237 298.13 306.222 298.71 306.883C299.538 307.875 299.456 308.123 298.13 308.123C297.219 308.123 296.225 307.627 295.894 307.049C295.397 306.056 294.983 306.056 293.243 306.966C291.587 307.875 291.421 308.123 292.663 308.289C293.409 308.454 294.072 308.785 294.072 309.115C294.154 309.529 293.575 310.356 292.829 311.017C291.918 311.926 291.504 311.926 291.587 311.182C291.587 310.686 291.007 310.356 290.344 310.604C289.599 310.852 289.102 310.521 289.102 309.777C289.102 309.115 289.516 307.793 289.93 306.883C290.482 305.781 290.482 305.23 289.93 305.23C289.516 305.23 288.936 305.891 288.853 306.635C288.688 307.462 284.629 310.686 279.908 313.911C273.281 318.293 270.382 319.698 267.4 320.112C264.749 320.36 263.755 320.277 264.087 319.616C264.418 319.119 266.075 317.549 267.814 316.143C269.471 314.655 270.879 313.084 270.879 312.671C270.879 312.175 270.051 311.927 269.057 312.009C268.146 312.175 267.152 311.844 266.986 311.43C266.82 310.934 269.057 309.198 271.873 307.545C275.6 305.395 279.493 301.84 285.706 294.978C290.344 289.686 294.486 285.387 294.734 285.387ZM159.306 287.123C160.051 287.123 160.962 287.785 161.377 288.694C161.791 289.769 162.95 290.43 165.104 290.761C167.175 291.009 168.417 291.753 169.08 292.993C169.908 294.647 169.742 295.143 168.086 296.383C166.926 297.21 165.021 297.706 163.447 297.623C161.956 297.458 160.714 297.706 160.714 298.202C160.714 298.615 162.039 298.946 163.613 298.781C165.187 298.698 166.512 298.863 166.512 299.194C166.512 299.608 166.181 300.434 165.684 301.096C165.104 302.171 164.69 302.088 161.128 299.029L162.785 300.93C163.696 301.923 164.938 302.832 165.518 302.749C166.015 302.749 166.761 301.757 167.092 300.434C167.34 299.194 167.589 297.954 167.506 297.541C167.423 297.21 167.754 297.127 168.169 297.375C168.666 297.623 169.494 299.277 170.074 301.096C170.571 302.915 170.902 304.568 170.654 304.734C170.405 304.982 168.914 304.816 167.34 304.403C165.684 303.989 163.364 302.501 161.956 300.765C160.631 299.194 158.643 296.714 157.649 295.308C156.572 293.985 155.744 292.415 155.744 292.001C155.744 291.505 154.75 290.513 151.188 288.281L154.502 287.785C156.324 287.537 158.477 287.206 159.306 287.123Z" fill="#0400BD"/>
<path d="M147.461 259.344C147.875 259.592 148.206 259.426 148.206 259.013C148.124 258.599 148.786 258.351 149.615 258.434C150.526 258.434 151.603 259.095 152.182 259.757C152.762 260.418 153.259 262.981 153.259 265.296C153.259 269.099 153.508 269.678 154.916 269.678C155.827 269.678 156.738 269.182 156.904 268.603C157.152 267.859 157.484 267.942 158.146 268.851C158.643 269.513 159.057 270.753 159.057 271.497C159.057 272.737 158.643 272.903 156.407 272.407C154.916 272.076 152.679 271.745 151.437 271.745C150.112 271.745 149.118 271.497 149.118 271.084C149.118 270.753 148.041 270.588 146.633 270.67C145.307 270.836 144.148 270.67 144.148 270.257C144.148 269.926 142.657 269.678 140.835 269.678C138.626 269.678 137.383 269.265 137.107 268.438C136.859 267.777 136.693 266.536 136.693 265.71C136.693 264.966 136.941 264.552 137.273 264.883C137.687 265.214 138.598 265.131 139.426 264.718C140.172 264.221 140.669 263.477 140.42 263.064C140.172 262.568 140.586 262.403 141.249 262.651C141.911 262.899 142.491 262.651 142.491 262.237C142.491 261.741 142.905 261.576 143.319 261.824C143.734 262.072 144.313 261.658 144.562 260.997C144.81 260.336 145.39 259.922 145.804 260.17C146.219 260.418 146.633 260.17 146.633 259.757C146.633 259.261 147.047 259.095 147.461 259.344Z" fill="#6562F6"/>
<path d="M273.944 55.2126C281.398 55.13 281.647 55.0473 285.54 52.0709C287.694 50.4173 290.344 49.0118 291.421 49.0118C292.415 48.9291 293.989 49.8386 294.9 50.9961C295.811 52.1536 296.308 53.5591 295.977 54.0551C295.645 54.6339 294.983 55.626 294.486 56.2048C294.072 56.8662 292.084 58.9331 290.096 60.752C287.445 63.3977 286.617 64.8032 286.617 66.7048C286.7 68.6064 285.871 69.9292 279.99 75.386L276.511 73.4844C274.689 72.4922 272.867 71.0867 272.536 70.4253C272.204 69.7639 271.376 68.193 270.796 66.8702C270.133 65.63 269.057 64.5552 268.394 64.6379C267.731 64.6379 266.24 63.8938 265.081 62.9843C263.341 61.6615 262.182 61.4961 258.04 61.9095C255.307 62.2402 252.822 62.0749 252.49 61.6615C252.159 61.2481 252.408 60.1733 253.07 59.2638C253.816 58.1063 256.052 57.2796 260.277 56.4528C263.59 55.7914 269.719 55.2126 273.944 55.2126Z" fill="#0400BD"/>
<path d="M188.959 89.0278C188.876 88.6144 190.947 86.8781 193.515 85.1419C197.491 82.5789 198.485 82.2482 200.307 82.9923C201.549 83.4057 203.04 84.1498 203.62 84.5632C204.283 85.0592 204.449 86.7955 204.117 90.4333C203.786 93.327 203.206 96.138 202.626 96.7168C201.964 97.5435 201.135 97.5435 199.23 96.7994C197.822 96.3034 195.006 94.5672 192.852 92.9136C190.699 91.1774 188.959 89.4411 188.959 89.0278Z" fill="#0400BD"/>
<path d="M204.614 95.642C204.366 95.3939 204.697 94.7325 205.36 93.9884C205.94 93.327 207.845 92.7482 209.667 92.7482C212.317 92.7482 212.897 92.9963 212.897 94.4018C212.897 95.3112 213.56 96.2207 214.388 96.4687C215.134 96.6341 213.394 96.6341 210.412 96.3861C207.43 96.2207 204.863 95.8073 204.614 95.642Z" fill="#0400BD"/>
<path d="M270.879 96.8821C272.536 96.9648 274.275 96.3861 274.938 95.642C275.6 94.8979 276.677 94.5672 277.257 94.8152C277.837 95.0632 278.665 95.2286 279.162 95.2286C279.659 95.2286 279.99 96.0553 279.99 97.0475C279.907 98.8664 279.99 98.8664 281.647 97.4609C282.889 96.4687 283.718 96.3034 284.795 96.8821C285.54 97.2955 286.451 97.3782 286.865 97.0475C287.197 96.7168 287.445 98.205 287.445 100.355C287.445 102.587 287.114 104.488 286.617 104.736C286.12 104.985 285.126 104.571 284.38 103.91C283.552 103.248 282.144 102.587 281.233 102.422C280.322 102.339 277.505 101.512 275.02 100.685C272.536 99.8585 269.885 98.6184 269.222 98.0396C268.146 97.0475 268.394 96.8821 270.879 96.8821Z" fill="#0400BD"/>
<path d="M235.924 143.347C235.841 142.934 236.67 142.189 237.747 141.693C238.906 141.197 240.728 140.784 241.888 140.784C243.048 140.784 245.45 141.115 247.272 141.528C249.094 142.024 254.478 142.934 259.283 143.595C264.087 144.256 269.885 145.248 272.121 145.827C274.441 146.406 276.346 146.819 276.429 146.819C276.511 146.902 275.683 149.548 274.523 152.689C273.364 155.831 271.459 159.717 270.216 161.288C268.974 162.776 267.649 164.678 267.152 165.422C266.655 166.166 266.323 166.827 266.323 166.91C266.323 167.075 264.004 167.737 261.188 168.398C258.289 169.06 255.638 169.473 255.141 169.225C254.644 168.977 254.313 169.142 254.313 169.638C254.313 170.134 253.733 170.3 253.07 170.052C252.408 169.804 251.165 170.382 250.42 171.292C249.591 172.119 248.68 172.863 248.349 172.945C247.935 172.945 246.941 171.705 246.03 170.3C245.119 168.812 244.373 168.068 244.373 168.646C244.373 169.142 244.042 169.638 243.545 169.638C243.048 169.638 242.634 168.481 242.551 166.993C242.385 165.505 241.805 164.264 241.06 164.099C239.983 163.768 239.983 163.851 241.06 164.595C241.888 165.201 241.971 165.505 241.308 165.505C240.728 165.505 239.403 165.174 238.409 164.76C237.167 164.264 235.096 164.347 232.363 165.008C230.126 165.505 226.73 167.158 224.908 168.646C223.086 170.052 220.186 171.457 218.53 171.705C216.211 172.036 215.465 171.871 215.796 171.127C215.962 170.548 217.122 169.473 218.281 168.812C219.441 168.15 220.352 167.323 220.352 166.993C220.352 166.579 220.683 166.331 221.18 166.331C221.677 166.331 223.417 165.422 225.156 164.43C226.813 163.355 230.209 162.032 232.611 161.536C234.93 160.957 237.167 160.13 237.581 159.552C237.995 158.89 237.167 158.808 234.433 159.304C232.363 159.634 229.215 160.627 227.393 161.536C225.57 162.445 222.009 164.43 219.524 166.001C217.039 167.489 214.471 168.729 213.974 168.812C213.394 168.812 212.897 168.15 212.897 167.406C212.897 166.166 213.063 166.083 213.726 167.158C214.305 168.068 214.554 167.489 214.554 164.926C214.554 162.941 214.223 161.205 213.726 160.957C213.229 160.709 212.897 156.906 212.897 152.111L212.897 152.093C212.98 143.678 212.981 143.597 214.14 146.902C214.802 148.721 216.045 150.953 216.956 151.863C217.784 152.772 218.695 154.178 219.027 155.004C219.358 155.997 218.944 156.658 217.453 157.237C216.293 157.733 215.382 158.229 215.382 158.477C215.382 158.725 217.867 157.898 221.015 156.658C224.079 155.501 229.96 153.764 234.019 152.855C238.078 151.945 241.971 150.788 242.634 150.292C243.213 149.796 245.284 148.969 250.585 147.646L245.201 145.662C242.219 144.587 238.989 143.76 237.995 143.843C236.918 143.926 236.007 143.678 235.924 143.347Z" fill="#0400BD"/>
<path d="M305.502 187.414C304.674 187.166 304.26 186.587 304.508 186.174C304.922 185.512 305.337 185.512 305.999 186.091C306.496 186.587 308.153 186.918 309.727 186.753C312.129 186.587 312.709 186.918 313.123 188.654C313.454 189.812 313.371 191.383 312.957 192.209C312.543 193.119 311.383 193.615 309.644 193.615C308.153 193.615 304.922 192.457 302.603 191.135C300.201 189.729 298.296 188.489 298.462 188.241C298.544 188.075 300.118 188.241 301.941 188.737C304.177 189.316 305.502 189.316 306.082 188.737C306.634 188.131 306.441 187.69 305.502 187.414Z" fill="#0400BD"/>
<path d="M289.764 211.391C291.669 211.143 293.243 210.646 293.243 210.15C293.243 209.654 293.575 209.324 294.072 209.324C294.569 209.324 295.148 209.654 295.48 209.985C295.811 210.316 295.645 212.135 295.066 213.954C294.486 215.772 294.072 220.898 294.154 225.859C294.154 230.654 294.237 237.682 294.237 241.568C294.32 247.025 293.906 249.34 292.581 251.903C291.669 253.721 290.427 256.863 289.847 258.93C289.267 260.997 288.605 262.899 288.356 263.229C288.108 263.643 286.368 263.147 284.546 262.237C282.724 261.328 278.831 260.253 275.849 259.674C272.701 259.178 268.228 257.607 265.081 255.871C262.099 254.3 258.868 252.151 257.874 250.993C256.798 249.918 255.804 249.257 255.555 249.67C255.307 250.001 255.141 249.588 255.141 248.843C255.141 247.603 255.638 247.438 258.289 247.851C259.945 248.099 264.17 248.843 267.566 249.505C270.962 250.166 277.008 250.662 281.067 250.662C285.043 250.662 288.273 250.414 288.273 250.084C288.273 249.67 287.445 248.595 286.368 247.521C285.043 246.115 283.635 245.702 280.819 245.702C278.748 245.702 274.689 245.288 271.707 244.792C268.725 244.296 264.998 243.883 263.424 243.966C261.85 244.048 259.531 244.214 258.289 244.462C256.466 244.792 256.052 244.544 256.218 243.469C256.301 242.477 257.709 241.651 260.111 240.989C262.182 240.493 265.826 239.997 268.228 239.997C270.548 239.914 272.536 239.584 272.536 239.088C272.536 238.591 274.192 238.343 276.263 238.509C278.334 238.591 279.99 238.426 279.99 238.095C279.99 237.682 280.322 237.599 280.819 237.847C281.316 238.095 281.647 237.765 281.647 237.269C281.647 236.552 281.923 236.607 282.475 237.434C283.138 238.509 283.304 238.426 283.304 237.269C283.304 236.028 283.718 236.194 285.374 238.095C287.362 240.245 287.362 240.328 287.445 238.509C287.445 237.186 287.031 236.773 286.203 237.021C285.54 237.269 285.126 237.103 285.374 236.607C285.623 236.111 284.712 235.202 283.304 234.54C281.978 233.879 280.239 233.465 279.576 233.713C278.914 233.962 277.588 233.383 276.677 232.473C275.766 231.564 275.02 230.489 275.02 229.993C275.02 229.497 275.517 229.414 276.097 229.662C276.594 229.993 276.346 229.497 275.435 228.67C274.523 227.761 272.204 226.19 270.299 225.198C268.311 224.206 266.24 223.544 265.743 223.792C265.081 224.04 264.004 222.8 263.01 220.898C261.602 218.087 261.519 217.426 262.513 216.517C263.424 215.69 263.507 215.772 262.927 216.765C262.43 217.674 262.513 217.839 263.258 217.343C263.755 217.013 264.087 216.186 263.838 215.524C263.59 214.863 264.087 213.954 264.915 213.54C265.661 213.127 269.305 212.713 272.95 212.713C276.594 212.631 281.067 212.465 282.889 212.217C284.712 212.052 287.776 211.639 289.764 211.391Z" fill="#0400BD"/>
</svg>
