<svg width="334" height="157" viewBox="0 0 334 157" fill="none" xmlns="http://www.w3.org/2000/svg">
<g filter="url(#filter0_i_205_1229)">
<path d="M212 55V149C212 152.314 214.686 155 218 155H326C329.314 155 332 152.314 332 149V55L319.779 41.9061C318.644 40.6903 317.056 40 315.393 40H218C214.686 40 212 42.6863 212 46V55Z" fill="white"/>
</g>
<path d="M332 55V149C332 152.314 329.314 155 326 155H218C214.686 155 212 152.314 212 149V55M332 55L319.779 41.9061C318.644 40.6903 317.056 40 315.393 40H218C214.686 40 212 42.6863 212 46V55M332 55H212" stroke="#001AFF" stroke-width="3"/>
<path d="M278.08 114.576C272.56 114.576 262.816 110.112 262.816 105.6C262.816 103.584 264.16 102.144 266.224 102.144C271.936 102.144 269.392 110.88 271.936 112.32C272.608 112.704 273.808 112.896 274.912 112.896C278.848 112.896 281.392 109.584 281.392 104.112C281.392 99.408 278.848 96.048 274.864 96.048C273.28 96.048 272.272 96.24 270.496 96.576C275.2 94.176 278.752 89.232 278.752 84.816C278.752 81.6 277.12 79.296 274.816 79.296C273.952 79.296 273.232 79.584 272.656 80.064C270.16 82.128 272.848 90.192 267.472 90.192C265.408 90.192 263.968 88.656 263.968 86.496C263.968 80.928 276.592 77.04 280.672 77.04C285.76 77.04 289.072 79.776 289.072 83.712C289.072 89.472 280.72 92.304 274.72 94.992C275.968 94.704 277.6 94.56 279.088 94.56C286.816 94.56 291.904 98.496 291.904 104.208C291.904 110.304 286.384 114.576 278.08 114.576Z" fill="#001AFF"/>
<path d="M122 55V149C122 152.314 119.314 155 116 155H8C4.68629 155 2 152.314 2 149V55L14.221 41.9061C15.3557 40.6903 16.9442 40 18.6073 40H116C119.314 40 122 42.6863 122 46V55Z" fill="white"/>
<path d="M2 55V149C2 152.314 4.68629 155 8 155H116C119.314 155 122 152.314 122 149V55M2 55L14.221 41.9061C15.3557 40.6903 16.9442 40 18.6073 40H116C119.314 40 122 42.6863 122 46V55M2 55H122" stroke="#001AFF" stroke-width="3"/>
<path d="M73.504 114H47.344C52.096 108.912 55.456 104.304 56.896 102.432C60.16 98.16 62.224 92.208 62.224 87.072C62.224 82.224 60.304 79.344 57.376 79.344C56.512 79.344 55.792 79.632 55.216 80.112C52.72 82.176 55.408 90.192 50.032 90.192C47.968 90.192 46.528 88.656 46.528 86.496C46.528 80.928 59.152 77.04 63.232 77.04C68.656 77.04 72.448 80.256 72.448 84.864C72.448 91.056 66.736 94.608 56.848 104.4L56.56 104.688H73.504V114Z" fill="#001AFF"/>
<g filter="url(#filter1_i_205_1229)">
<path d="M222 20V155H112V20L124.199 3.87935C125.334 2.38067 127.104 1.5 128.984 1.5H205.016C206.896 1.5 208.666 2.38066 209.801 3.87934L222 20Z" fill="white"/>
</g>
<path d="M112 20V155H222V20M112 20L124.199 3.87935C125.334 2.38067 127.104 1.5 128.984 1.5H205.016C206.896 1.5 208.666 2.38066 209.801 3.87934L222 20M112 20H222" stroke="#001AFF" stroke-width="3"/>
<g clip-path="url(#clip0_205_1229)">
<path d="M188.557 47.0326C188.557 47.0521 188.642 47.5013 188.753 48.0287C189.143 50.0013 189.475 51.056 190.087 52.306C191.09 54.3763 192.49 55.5873 194.456 56.0821C195.048 56.2383 196.109 56.388 196.174 56.3295C196.194 56.3099 196.207 55.7956 196.207 55.1836C196.207 54.2071 196.188 53.9922 196.051 53.5104C195.523 51.6159 194.241 50.0664 192.086 48.7383C191.448 48.3412 189.938 47.5664 189.124 47.2214C188.583 46.987 188.557 46.9805 188.557 47.0326Z" fill="#001AFF"/>
<path d="M145.751 47.1953C145.608 47.267 145.061 47.5209 144.54 47.7683C140.849 49.5131 138.981 51.4792 138.525 54.0899C138.421 54.6563 138.395 55.6198 138.466 56.1407L138.512 56.4467L138.811 56.4076C140.048 56.2448 140.758 56.056 141.52 55.6784C143.427 54.7214 144.729 52.8334 145.517 49.8646C145.693 49.2136 146.109 47.2735 146.109 47.1172C146.109 47.0456 146.051 47.0586 145.751 47.1953Z" fill="#001AFF"/>
<path d="M198.883 49.9753C198.037 51.681 197.548 52.9505 197.268 54.2071C197.06 55.1315 197.06 56.694 197.268 57.4818C197.568 58.5951 198.128 59.5521 199.033 60.4961L199.579 61.069L199.84 60.8216C200.543 60.1511 201.259 58.9466 201.546 57.9701C201.832 56.9805 201.858 55.5417 201.611 54.3242C201.468 53.6211 201.012 52.2735 200.602 51.362C200.263 50.6068 199.449 49.0182 199.397 49.0182C199.378 49.0182 199.15 49.4479 198.883 49.9753Z" fill="#001AFF"/>
<path d="M134.833 49.8776C133.479 52.4297 132.887 54.3438 132.887 56.1276C132.887 57.0196 132.952 57.5013 133.167 58.1849C133.44 59.0768 134.091 60.1511 134.736 60.7891L135.087 61.1341L135.589 60.6198C136.214 59.9883 136.598 59.4479 136.969 58.6862C137.34 57.9245 137.509 57.2344 137.561 56.3034C137.646 54.6367 137.132 52.8008 135.862 50.2031C135.556 49.5912 135.296 49.0834 135.283 49.0834C135.27 49.0834 135.068 49.4414 134.833 49.8776Z" fill="#001AFF"/>
<path d="M189.989 55.6589C189.989 55.8086 190.855 58.3086 191.116 58.9206C192.294 61.6615 193.824 63.2175 195.914 63.8164C196.897 64.1029 198.485 64.2266 198.557 64.0248C198.577 63.9727 198.564 63.5821 198.525 63.1589C198.219 59.819 196.142 57.7227 191.552 56.1146C190.393 55.7045 189.989 55.5873 189.989 55.6589Z" fill="#001AFF"/>
<path d="M143.538 56.043C140.953 56.9154 139.423 57.7422 138.173 58.9466C136.864 60.2032 136.246 61.5964 136.116 63.53L136.07 64.2071L136.975 64.168C140.341 64.0183 142.489 62.0977 143.98 57.905C144.273 57.0847 144.696 55.7175 144.664 55.6914C144.651 55.6849 144.149 55.8412 143.538 56.043Z" fill="#001AFF"/>
<path d="M203.889 58.543C201.825 61.1146 200.816 62.9701 200.536 64.7214C200.419 65.4375 200.484 66.7526 200.667 67.3776C200.849 68.0157 201.24 68.849 201.656 69.474C202.027 70.0404 201.962 70.0339 202.587 69.5717C205.1 67.7097 205.862 64.8516 204.963 60.711C204.807 60.0013 204.319 58.25 204.26 58.1849C204.234 58.1589 204.065 58.3217 203.889 58.543Z" fill="#001AFF"/>
<path d="M130.399 58.2435C130.341 58.3412 129.833 60.1967 129.703 60.7826C128.98 64.0899 129.332 66.5899 130.777 68.3998C131.011 68.6928 131.357 69.0638 131.545 69.2201C131.982 69.5912 132.587 70.0469 132.646 70.0469C132.717 70.0469 133.251 69.2006 133.538 68.6342C133.974 67.7553 134.143 67.0977 134.176 66.0691C134.202 65.392 134.189 65.0599 134.104 64.6368C133.811 63.198 133.205 61.9284 132.001 60.2292C131.363 59.3373 130.439 58.1849 130.399 58.2435Z" fill="#001AFF"/>
<path d="M194.638 65.0404C194.807 69.0834 195.667 71.4792 197.47 72.9245C198.271 73.5625 199.54 74.168 200.387 74.3047L200.654 74.3503L200.803 73.7448C201.018 72.8659 201.025 71.3555 200.81 70.5677C200.419 69.1224 199.488 67.7227 198.062 66.4271C197.294 65.7305 195.855 64.6693 194.846 64.0573L194.592 63.9011L194.638 65.0404Z" fill="#001AFF"/>
<path d="M138.981 64.6954C137.678 65.5678 137.145 65.9909 136.259 66.8503C134.417 68.6407 133.609 70.3855 133.694 72.4232C133.733 73.3803 133.954 74.4089 134.124 74.4089C134.592 74.4089 136.064 73.8034 136.806 73.2956C138.408 72.2214 139.449 70.2357 139.82 67.586C139.944 66.7201 140.074 64.8125 140.042 64.3373L140.022 63.9922L138.981 64.6954Z" fill="#001AFF"/>
<path d="M206.904 68.6081C204.807 69.8711 203.453 70.9844 202.6 72.1433C201.604 73.4974 201.194 74.806 201.272 76.3555C201.305 77.0001 201.448 77.8724 201.578 78.2175L201.637 78.3672L202.079 78.2566C204.632 77.5925 206.337 75.8021 207.177 72.8855C207.418 72.0586 207.665 70.6264 207.757 69.5261C207.867 68.2566 207.887 68.0287 207.867 68.0287C207.861 68.0287 207.424 68.2891 206.904 68.6081Z" fill="#001AFF"/>
<path d="M126.799 68.3672C126.819 68.4844 126.852 68.862 126.871 69.2006C127.171 73.7904 128.642 76.642 131.35 77.892C131.754 78.0808 132.861 78.4454 133.017 78.4454C133.075 78.4454 133.258 77.6771 133.355 77.0131C133.453 76.375 133.388 75.1576 133.232 74.5717C132.704 72.6511 131.376 71.069 128.889 69.3959C128.258 68.9727 126.904 68.1589 126.825 68.1589C126.793 68.1589 126.78 68.2565 126.799 68.3672Z" fill="#001AFF"/>
<path d="M194.95 72.0391C194.28 75.1706 194.228 77.5404 194.788 79.2266C195.334 80.8998 196.344 82.0587 198.088 83.0157C198.336 83.1524 198.544 83.2566 198.557 83.2501C198.564 83.237 198.687 82.9962 198.83 82.7097C199.377 81.6159 199.599 80.5547 199.54 79.4024C199.416 77.1954 198.205 74.9883 195.679 72.3972L195.015 71.7136L194.95 72.0391Z" fill="#001AFF"/>
<path d="M138.863 72.599C137.691 73.8555 137.066 74.6302 136.474 75.5808C134.918 78.0612 134.697 80.405 135.79 82.7097C136.109 83.3868 136.083 83.3607 136.415 83.198C136.988 82.905 137.776 82.3516 138.251 81.9024C139.312 80.8933 139.957 79.5912 140.185 78.0157C140.289 77.2865 140.269 75.5612 140.146 74.6042C140.042 73.8034 139.697 71.8763 139.644 71.8242C139.625 71.8112 139.28 72.1563 138.863 72.599Z" fill="#001AFF"/>
<path d="M207.796 77.7618C204.54 78.2826 202.581 79.0769 201.214 80.431C200.497 81.1342 199.951 82.0586 199.625 83.1133C199.488 83.5495 199.28 84.6954 199.326 84.7409C199.391 84.806 200.25 84.8907 200.862 84.8907C203.577 84.8907 205.79 83.3217 207.757 80.0013C208.134 79.3633 209 77.7162 209 77.6381C209 77.5795 208.779 77.599 207.796 77.7618Z" fill="#001AFF"/>
<path d="M125.667 77.7097C125.667 77.7292 125.907 78.224 126.207 78.7969C127.203 80.724 127.913 81.7461 128.98 82.8139C130.029 83.8555 130.986 84.448 132.183 84.7735C132.659 84.9037 132.88 84.9232 133.87 84.9232C134.495 84.9232 135.087 84.9037 135.191 84.8711C135.361 84.8256 135.367 84.806 135.328 84.5456C134.944 81.8829 133.713 80.2032 131.311 79.0639C130.126 78.504 128.785 78.1394 126.767 77.8269C125.569 77.6381 125.667 77.6511 125.667 77.7097Z" fill="#001AFF"/>
<path d="M192.997 81.017C192.327 83.2305 192.099 84.6172 192.157 86.1211C192.229 87.9636 192.776 89.2657 194 90.4961C194.547 91.0495 195.484 91.7591 195.582 91.694C195.706 91.6224 196.304 90.6003 196.5 90.1185C197.118 88.6407 197.164 87.1953 196.663 85.444C196.441 84.6823 195.666 83.1003 195.068 82.1888C194.573 81.4466 193.433 79.8841 193.375 79.8776C193.355 79.8776 193.186 80.392 192.997 81.017Z" fill="#001AFF"/>
<path d="M140.589 80.8672C137.763 84.6302 137.021 87.5339 138.193 90.2422C138.427 90.7761 138.74 91.336 138.987 91.642L139.13 91.8243L139.475 91.5834C140.966 90.5547 141.884 89.3047 142.314 87.7227C142.483 87.1172 142.496 86.9805 142.496 85.8021C142.496 84.4675 142.438 84.0052 142.106 82.6446C141.878 81.7201 141.344 80.0078 141.285 80.0078C141.259 80.0078 140.94 80.3985 140.589 80.8672Z" fill="#001AFF"/>
<path d="M189.521 85.4766C187.971 88.3412 187.372 90.1576 187.379 91.9935C187.385 93.875 188.095 95.4375 189.579 96.8243L189.775 97L190.185 96.5834C191.708 95.0274 192.32 93.0352 191.969 90.698C191.767 89.3308 191.266 87.8724 190.361 86.03L189.82 84.9297L189.521 85.4766Z" fill="#001AFF"/>
<path d="M144.306 86.1081C143.655 87.4493 143.297 88.3347 143.017 89.3308C142.294 91.8243 142.529 93.9792 143.707 95.724C144.065 96.2448 144.794 97.0652 144.905 97.0652C145.048 97.0652 146.018 95.9258 146.376 95.3464C147.477 93.556 147.587 91.5313 146.721 88.9792C146.474 88.2305 145.185 85.4896 144.911 85.1185C144.846 85.0274 144.762 85.1641 144.306 86.1081Z" fill="#001AFF"/>
<path d="M205.198 85.1576C202.431 85.3855 200.458 86.0756 199.189 87.2605C198.206 88.1784 197.672 89.0769 197.249 90.5092L197.099 91.017L197.268 91.0821C197.789 91.2774 198.46 91.3685 199.43 91.3685C200.283 91.362 200.523 91.3425 200.992 91.2123C203.141 90.6133 204.996 89.0053 207.034 85.9519C207.327 85.5157 207.568 85.1446 207.568 85.1251C207.568 85.073 205.966 85.0925 205.198 85.1576Z" fill="#001AFF"/>
<path d="M127.099 85.1901C127.099 85.2943 128.336 87.0847 128.876 87.7553C129.553 88.5951 130.679 89.7019 131.33 90.1576C131.982 90.6133 132.828 91.0365 133.525 91.2513C134.052 91.4076 134.195 91.4271 135.237 91.4271C136.22 91.4336 136.454 91.4141 136.975 91.2839L137.567 91.1342L137.444 90.6654C136.552 87.4428 134.319 85.7891 130.211 85.3204C129.208 85.2032 127.099 85.112 127.099 85.1901Z" fill="#001AFF"/>
<path d="M184.67 90.8152C183.01 92.4558 182.073 93.6928 181.526 94.9623C180.855 96.5248 180.777 97.9571 181.278 99.5391C181.435 100.034 181.845 100.971 181.955 101.095C181.968 101.108 182.19 101.01 182.45 100.874C184.377 99.8972 185.588 98.2501 186.044 95.9844C186.304 94.6954 186.291 92.6641 186.018 90.7631C185.946 90.2748 185.888 89.8321 185.888 89.7865C185.888 89.7475 185.862 89.7084 185.836 89.7084C185.81 89.7084 185.282 90.2032 184.67 90.8152Z" fill="#001AFF"/>
<path d="M148.726 90.2813C148.446 92.1303 148.362 94.2071 148.512 95.3855C148.674 96.6224 149.084 97.8139 149.651 98.6993C150.035 99.2917 150.868 100.125 151.48 100.522C151.949 100.828 152.574 101.167 152.672 101.167C152.821 101.167 153.42 99.6823 153.603 98.8555C153.746 98.211 153.713 96.8764 153.538 96.2188C153.225 95.0469 152.704 94.0313 151.832 92.8985C151.357 92.28 149.664 90.5027 149.097 90.0274L148.798 89.78L148.726 90.2813Z" fill="#001AFF"/>
<path d="M197.19 92.28C195.139 92.612 193.616 93.5756 192.555 95.2097C192.197 95.7631 191.878 96.362 191.878 96.4792C191.878 96.5964 192.945 97.0652 193.603 97.2279C195.901 97.8139 198.141 97.1563 200.634 95.1771C200.921 94.9493 201.637 94.2852 202.223 93.7058L203.297 92.6576L202.841 92.5795C201.246 92.2995 200.641 92.2344 199.235 92.2149C198.16 92.1954 197.613 92.2084 197.19 92.28Z" fill="#001AFF"/>
<path d="M134.13 92.3191C133.538 92.3842 131.441 92.7032 131.409 92.7357C131.37 92.7748 133.127 94.4935 133.674 94.9558C135.015 96.0886 136.545 96.9545 137.776 97.293C138.896 97.599 140.198 97.5795 141.285 97.2474C142.001 97.0326 142.789 96.668 142.789 96.5573C142.789 96.3946 142.216 95.3985 141.806 94.8581C140.706 93.3933 139.176 92.5665 137.125 92.3126C136.48 92.2344 134.924 92.2409 134.13 92.3191Z" fill="#001AFF"/>
<path d="M180.061 95.711C179.957 95.737 179.397 95.8672 178.824 95.9974C174.456 96.987 172.125 98.7318 171.37 101.59C171.227 102.137 171.057 103.413 171.123 103.478C171.207 103.563 172.919 103.51 173.447 103.413C175.81 102.957 177.672 101.251 179.267 98.0678C179.612 97.3777 180.302 95.7631 180.276 95.698C180.263 95.6784 180.172 95.6784 180.061 95.711Z" fill="#001AFF"/>
<path d="M154.378 95.7826C154.378 95.8737 154.931 97.1498 155.315 97.9441C156.064 99.4935 156.774 100.574 157.626 101.447C158.701 102.56 159.781 103.178 161.175 103.491C161.656 103.595 163.44 103.647 163.531 103.556C163.609 103.484 163.453 102.254 163.297 101.655C163.219 101.369 163.03 100.861 162.867 100.522C161.813 98.2826 159.69 96.961 155.66 96.03C154.547 95.7761 154.378 95.737 154.378 95.7826Z" fill="#001AFF"/>
<path d="M190.282 97.8529C188.792 98.0027 187.476 98.6211 186.396 99.6954C185.94 100.145 185.367 100.848 185.367 100.958C185.367 101.056 186.279 101.662 186.845 101.948C187.698 102.371 188.388 102.547 189.404 102.579C191.044 102.638 192.542 102.228 194.449 101.18C195.087 100.835 197.281 99.4089 197.281 99.3438C197.281 99.2852 194.983 98.4974 194.15 98.2761C192.769 97.905 191.35 97.7487 190.282 97.8529Z" fill="#001AFF"/>
<path d="M142.528 97.9506C142.437 97.9636 142.164 98.0092 141.91 98.0482C140.946 98.198 139.195 98.7123 137.555 99.3438L137.366 99.4154L137.782 99.7149C138.622 100.333 139.918 101.121 140.803 101.557C142.483 102.384 143.596 102.677 145.002 102.677C146.025 102.671 146.786 102.514 147.639 102.117C148.134 101.889 149.189 101.225 149.273 101.095C149.332 100.991 149.006 100.548 148.407 99.9232C147.502 98.9857 146.552 98.4128 145.393 98.1068C144.95 97.9896 144.625 97.9571 143.765 97.944C143.173 97.931 142.62 97.931 142.528 97.9506Z" fill="#001AFF"/>
<path d="M181.389 101.981C180.83 102.085 180.1 102.339 179.567 102.606C179.176 102.801 178.395 103.315 178.16 103.53L178.017 103.66L178.297 104.025C179 104.936 180.074 105.776 181.038 106.173C182.542 106.798 184.469 106.857 186.767 106.342C187.607 106.154 189.925 105.425 189.925 105.346C189.925 105.294 188.271 104.109 187.711 103.758C186.442 102.951 185.205 102.391 184.124 102.117C183.264 101.896 182.112 101.844 181.389 101.981Z" fill="#001AFF"/>
<path d="M151.435 102.013C149.716 102.228 147.724 103.191 145.367 104.943L144.716 105.425L144.911 105.509C145.302 105.678 146.715 106.121 147.457 106.31C148.668 106.616 149.319 106.714 150.413 106.746C152.307 106.811 153.687 106.434 154.957 105.496C155.419 105.151 156.142 104.435 156.454 103.999L156.663 103.712L156.253 103.406C154.742 102.293 153.056 101.805 151.435 102.013Z" fill="#001AFF"/>
<path d="M166.962 103.51C165.966 103.745 165.432 104.839 165.862 105.757C166.448 107.02 168.225 107 168.785 105.724C169.169 104.858 168.694 103.816 167.783 103.55C167.411 103.439 167.288 103.432 166.962 103.51Z" fill="#001AFF"/>
<path d="M173.421 104.728C172.385 104.858 171.298 105.262 170.341 105.867L169.996 106.089L170.335 106.609C170.986 107.593 172.125 108.589 173.089 109.012C175.061 109.884 177.522 109.891 180.96 109.025L181.793 108.816L180.992 108.126C179.417 106.772 178.492 106.128 177.262 105.522C175.901 104.858 174.573 104.585 173.421 104.728Z" fill="#001AFF"/>
<path d="M159.879 104.819C157.828 105.099 155.777 106.284 152.958 108.823C152.887 108.882 153.062 108.947 153.837 109.129C155.855 109.617 156.676 109.728 158.186 109.721C159.814 109.721 160.823 109.5 161.93 108.908C162.841 108.419 163.694 107.625 164.332 106.675L164.67 106.18L164.26 105.913C162.906 105.04 161.265 104.63 159.879 104.819Z" fill="#001AFF"/>
</g>
<path d="M157.832 90L160.904 86.88V60.288L155.672 57.888L171.032 53.04V86.88L174.104 90H157.832Z" fill="#001AFF"/>
<defs>
<filter id="filter0_i_205_1229" x="210.5" y="38.5" width="123" height="124" filterUnits="userSpaceOnUse" color-interpolation-filters="sRGB">
<feFlood flood-opacity="0" result="BackgroundImageFix"/>
<feBlend mode="normal" in="SourceGraphic" in2="BackgroundImageFix" result="shape"/>
<feColorMatrix in="SourceAlpha" type="matrix" values="0 0 0 0 0 0 0 0 0 0 0 0 0 0 0 0 0 0 127 0" result="hardAlpha"/>
<feOffset dy="6"/>
<feGaussianBlur stdDeviation="7"/>
<feComposite in2="hardAlpha" operator="arithmetic" k2="-1" k3="1"/>
<feColorMatrix type="matrix" values="0 0 0 0 1 0 0 0 0 1 0 0 0 0 1 0 0 0 1 0"/>
<feBlend mode="normal" in2="shape" result="effect1_innerShadow_205_1229"/>
</filter>
<filter id="filter1_i_205_1229" x="110.5" y="0" width="113" height="162.5" filterUnits="userSpaceOnUse" color-interpolation-filters="sRGB">
<feFlood flood-opacity="0" result="BackgroundImageFix"/>
<feBlend mode="normal" in="SourceGraphic" in2="BackgroundImageFix" result="shape"/>
<feColorMatrix in="SourceAlpha" type="matrix" values="0 0 0 0 0 0 0 0 0 0 0 0 0 0 0 0 0 0 127 0" result="hardAlpha"/>
<feOffset dy="6"/>
<feGaussianBlur stdDeviation="7"/>
<feComposite in2="hardAlpha" operator="arithmetic" k2="-1" k3="1"/>
<feColorMatrix type="matrix" values="0 0 0 0 1 0 0 0 0 1 0 0 0 0 1 0 0 0 1 0"/>
<feBlend mode="normal" in2="shape" result="effect1_innerShadow_205_1229"/>
</filter>
<clipPath id="clip0_205_1229">
<rect width="83.3334" height="62.7605" fill="white" transform="translate(125.667 47)"/>
</clipPath>
</defs>
</svg>
