<svg width="36" height="36" viewBox="0 0 36 36" fill="none" xmlns="http://www.w3.org/2000/svg">
<path d="M6.41367 5.17931C6.39204 5.08028 6.45668 5 6.55805 5H11.5135C11.6149 5 11.7146 5.08028 11.7362 5.17931L12.7936 10.0207C12.8152 10.1197 12.7506 10.2 12.6492 10.2H7.69373C7.59237 10.2 7.49266 10.1197 7.47104 10.0207L6.41367 5.17931Z" fill="white"/>
<path d="M12.8375 5.17931C12.8158 5.08028 12.8805 5 12.9818 5H21.241C22.4574 5 23.6539 5.96336 23.9134 7.15172L26.8113 20.4207C26.833 20.5197 26.7683 20.6 26.667 20.6H21.971C21.8697 20.6 21.805 20.6803 21.8267 20.7793L22.884 25.6207C22.9057 25.7197 23.0054 25.8 23.1067 25.8H27.8027C27.904 25.8 28.0037 25.8803 28.0254 25.9793L29.0827 30.8207C29.1043 30.9197 29.0397 31 28.9383 31H23.9828C23.8815 31 23.7818 30.9197 23.7601 30.8207L22.7028 25.9793C22.6812 25.8803 22.5814 25.8 22.4801 25.8H17.5246C17.4232 25.8 17.3235 25.7197 17.3019 25.6207L16.2445 20.7793C16.2229 20.6803 16.2875 20.6 16.3889 20.6H21.3444C21.4458 20.6 21.5104 20.5197 21.4888 20.4207L19.4915 11.2759C19.3618 10.6817 18.7635 10.2 18.1553 10.2H14.1175C14.0162 10.2 13.9165 10.1197 13.8948 10.0207L12.8375 5.17931Z" fill="white"/>
<path d="M7.9287 11.2759C7.82734 11.2759 7.7627 11.3561 7.78433 11.4552L12.0138 30.8207C12.0354 30.9197 12.1351 31 12.2365 31H17.192C17.2933 31 17.358 30.9197 17.3363 30.8207L13.1069 11.4552C13.0853 11.3561 12.9856 11.2759 12.8842 11.2759H7.9287Z" fill="white"/>
</svg>
