<svg width="113" height="219" viewBox="0 0 113 219" fill="none" xmlns="http://www.w3.org/2000/svg">
<path d="M28.8709 56.5446C30.7748 57.2837 31.7496 59.9694 33.5824 59.8629C35.1813 59.7701 36.1227 58.3113 36.2241 56.9758C36.4286 54.2811 36.1385 51.5559 35.9654 48.7093C35.8219 46.3471 35.4263 44.1 36.2932 42.1471C37.0003 40.554 37.6506 38.7433 39.0078 37.799C40.246 36.9374 41.6009 35.9822 42.6754 34.8935C43.7088 33.8464 44.7255 32.7643 45.131 31.1326C45.4785 29.7342 45.1865 28.4027 44.7097 26.8293C44.0422 24.6264 43.935 22.7413 43.8641 20.6446C43.7605 17.5795 42.7292 14.3444 40.4927 11.6053C38.8969 9.6508 37.2434 7.47689 35.3956 5.86544C33.4502 4.16882 31.5969 3.318 29.4272 2.47573C27.5642 1.75254 25.7328 0.861872 23.947 0.985768C21.792 1.13527 19.7894 1.9989 17.9901 2.90787C15.6663 4.08177 13.4021 5.42227 11.8399 7.63893C10.5884 9.41467 9.64793 11.5753 8.66761 13.6017C8.32626 14.3073 7.99853 15.0198 7.67719 15.7415C7.36291 16.4474 6.86971 16.9651 6.66984 17.7486C6.47758 18.5022 5.95875 19.3144 5.50484 19.8458C4.18834 21.3871 1.92657 22.3311 1.15207 24.4416C0.913821 25.0909 0.830861 25.9558 0.698821 26.6764C0.276418 28.9815 1.43957 32.0396 2.96039 34.231C4.59629 36.5883 6.81923 38.3512 8.94519 40.0062C10.7071 41.3778 11.8601 42.4477 13.1423 44.4248C14.6819 46.7991 16.1675 49.6444 18.1695 51.5638C19.1993 52.5511 20.2337 53.4478 21.3513 54.2567C21.8597 54.6247 22.4352 55.2496 22.9962 55.4064C24.9871 55.9629 26.8535 55.7615 28.8709 56.5446Z" fill="white" stroke="white" stroke-width="1.12447" stroke-linecap="round"/>
<path d="M42.9451 53.942C42.4428 56.1528 37.5622 59.4563 37.5622 59.4563C37.5622 59.4563 44.2724 56.614 47.7098 55.4354C49.2847 54.8954 50.8467 54.7167 52.3826 54.0136C53.9591 53.2919 55.3975 52.0931 56.8545 51.1483C58.0334 50.3838 58.8847 49.0727 60.2122 48.5385C61.3676 48.0735 62.2892 47.5761 63.5225 47.2825C64.559 47.0358 65.4963 47.0434 66.5435 46.9405C67.4301 46.8534 68.2975 46.4863 69.1328 46.2126C71.3228 45.495 73.2791 44.9593 75.1668 43.6228C76.3577 42.7796 77.8193 41.529 78.0964 40.0194C78.276 39.0409 78.4419 37.8711 78.424 36.8841C78.3643 33.6003 81.0697 31.0008 83.3071 28.8923C84.459 27.8067 85.65 26.6734 86.4879 25.3163C87.0871 24.3458 88.0518 23.722 88.6335 22.7575C90.1991 20.1616 92.04 17.0731 90.5438 13.9954C89.967 12.8086 89.0829 11.6892 88.3654 10.5828C87.1572 8.71959 85.8108 7.1552 84.355 5.47856C82.9454 3.85515 81.024 2.6179 78.8673 2.28353C77.4847 2.06918 75.5159 1.65867 74.1251 2.03817C71.0824 2.86839 68.0623 3.90545 65.5515 5.88581C63.8963 7.19122 62.0933 8.57612 60.9343 10.3673C60.1439 11.5889 59.4192 12.8851 58.7008 14.1505C57.0876 16.9917 56.2201 19.8625 55.4568 23.0165C54.7531 25.9243 53.7452 28.9258 53.4942 31.9249C53.3853 33.2264 53.2543 34.5886 52.6144 35.7555C51.9363 36.9922 50.8102 37.3891 49.9168 38.3696C48.8195 39.5738 47.7394 40.7289 46.707 42.0076C45.509 43.4915 44.6864 45.2059 43.9314 46.9552C42.9871 49.1427 43.4598 51.6768 42.9451 53.942Z" fill="white"/>
<path d="M37.5622 59.4563L37.247 58.9907C37.0074 59.1529 36.93 59.4705 37.0682 59.7247C37.2064 59.979 37.515 60.0868 37.7815 59.974L37.5622 59.4563ZM42.9451 53.942L42.3968 53.8175L42.3968 53.8175L42.9451 53.942ZM43.9314 46.9552L43.4152 46.7324L43.4152 46.7324L43.9314 46.9552ZM46.707 42.0076L46.2695 41.6545L46.707 42.0076ZM49.9168 38.3696L49.5012 37.9909L49.9168 38.3696ZM52.6144 35.7555L52.1215 35.4852L52.6144 35.7555ZM53.4942 31.9249L52.934 31.878L53.4942 31.9249ZM55.4568 23.0165L56.0033 23.1487L56.0033 23.1487L55.4568 23.0165ZM58.7008 14.1505L59.1897 14.4281L58.7008 14.1505ZM60.9343 10.3673L60.4623 10.0619L60.9343 10.3673ZM65.5515 5.88581L65.8996 6.32726L65.5515 5.88581ZM74.1251 2.03817L74.2731 2.58058L74.2731 2.58058L74.1251 2.03817ZM78.8673 2.28353L78.9535 1.72793L78.9535 1.72793L78.8673 2.28353ZM84.355 5.47856L84.7795 5.10994L84.355 5.47856ZM90.5438 13.9954L91.0495 13.7496L91.0495 13.7496L90.5438 13.9954ZM88.6335 22.7575L89.1149 23.0479L89.1149 23.0479L88.6335 22.7575ZM86.4879 25.3163L86.0095 25.0209L86.4879 25.3163ZM83.3071 28.8923L82.9215 28.4831L82.9215 28.4831L83.3071 28.8923ZM78.424 36.8841L78.9861 36.8739L78.9861 36.8739L78.424 36.8841ZM78.0964 40.0194L78.6494 40.1209L78.0964 40.0194ZM75.1668 43.6228L75.4917 44.0816L75.1668 43.6228ZM69.1328 46.2126L68.9577 45.6784L69.1328 46.2126ZM66.5435 46.9405L66.4886 46.3809L66.4886 46.3809L66.5435 46.9405ZM63.5225 47.2825L63.3923 46.7355L63.3923 46.7355L63.5225 47.2825ZM60.2122 48.5385L60.0023 48.0169L60.2122 48.5385ZM52.3826 54.0136L52.1486 53.5024L52.3826 54.0136ZM47.7098 55.4354L47.8921 55.9673L47.7098 55.4354ZM37.5622 59.4563C37.8773 59.9219 37.8774 59.9218 37.8775 59.9217C37.8776 59.9217 37.8777 59.9216 37.8778 59.9216C37.878 59.9214 37.8783 59.9212 37.8787 59.9209C37.8795 59.9204 37.8805 59.9197 37.8819 59.9188C37.8845 59.917 37.8884 59.9144 37.8933 59.911C37.9032 59.9042 37.9177 59.8943 37.9363 59.8815C37.9736 59.8558 38.0278 59.8182 38.0966 59.7697C38.2341 59.6729 38.4303 59.5326 38.667 59.3576C39.1397 59.0079 39.7768 58.5172 40.4317 57.9546C41.0846 57.3937 41.7657 56.7522 42.3203 56.1007C42.8627 55.4634 43.3366 54.7566 43.4934 54.0666L42.3968 53.8175C42.3025 54.2328 41.9779 54.768 41.464 55.3719C40.9621 55.9615 40.3289 56.5604 39.6989 57.1017C39.0708 57.6414 38.4564 58.1147 37.9983 58.4535C37.7696 58.6227 37.5805 58.7578 37.4492 58.8503C37.3836 58.8965 37.3324 58.932 37.2979 58.9558C37.2807 58.9676 37.2677 58.9766 37.2591 58.9824C37.2548 58.9854 37.2516 58.9875 37.2496 58.9889C37.2486 58.9896 37.2479 58.9901 37.2475 58.9904C37.2472 58.9905 37.2471 58.9906 37.247 58.9907C37.247 58.9907 37.247 58.9907 37.247 58.9907C37.247 58.9907 37.247 58.9907 37.5622 59.4563ZM43.4934 54.0666C43.7645 52.8734 43.7764 51.6025 43.8386 50.4498C43.9024 49.2666 44.018 48.1732 44.4476 47.1781L43.4152 46.7324C42.9005 47.9247 42.7803 49.1921 42.7157 50.3892C42.6495 51.6167 42.6404 52.7455 42.3968 53.8175L43.4934 54.0666ZM44.4476 47.1781C45.1994 45.4363 45.9973 43.7817 47.1444 42.3608L46.2695 41.6545C45.0207 43.2013 44.1735 44.9756 43.4152 46.7324L44.4476 47.1781ZM47.1444 42.3608C48.1634 41.0987 49.2283 39.9599 50.3323 38.7483L49.5012 37.9909C48.4106 39.1877 47.3154 40.3591 46.2695 41.6545L47.1444 42.3608ZM50.3323 38.7483C50.7377 38.3035 51.1791 38.0059 51.6942 37.6004C52.1929 37.2077 52.7141 36.7432 53.1074 36.0258L52.1215 35.4852C51.8367 36.0045 51.4558 36.3569 50.9985 36.7169C50.5576 37.0641 49.9893 37.4553 49.5012 37.9909L50.3323 38.7483ZM53.1074 36.0258C53.8132 34.7386 53.9469 33.2572 54.0545 31.9718L52.934 31.878C52.8237 33.1957 52.6953 34.4386 52.1215 35.4852L53.1074 36.0258ZM54.0545 31.9718C54.3007 29.0301 55.2834 26.1232 56.0033 23.1487L54.9103 22.8842C54.2227 25.7255 53.1898 28.8216 52.934 31.878L54.0545 31.9718ZM56.0033 23.1487C56.7623 20.0121 57.6152 17.2012 59.1897 14.4281L58.2118 13.8729C56.56 16.7822 55.6778 19.7129 54.9103 22.8842L56.0033 23.1487ZM59.1897 14.4281C59.9115 13.1568 60.6269 11.8774 61.4064 10.6727L60.4623 10.0619C59.6609 11.3004 58.9269 12.6134 58.2118 13.8729L59.1897 14.4281ZM61.4064 10.6727C62.5044 8.97568 64.2232 7.64953 65.8996 6.32726L65.2033 5.44435C63.5695 6.73291 61.6822 8.17657 60.4623 10.0619L61.4064 10.6727ZM65.8996 6.32726C68.3171 4.42057 71.2444 3.40699 74.2731 2.58058L73.9771 1.49576C70.9205 2.32979 67.8075 3.39033 65.2033 5.44435L65.8996 6.32726ZM74.2731 2.58058C74.8678 2.41831 75.6251 2.41763 76.4446 2.49773C77.2625 2.57765 78.0669 2.72839 78.7812 2.83913L78.9535 1.72793C78.2852 1.62432 77.4139 1.46262 76.554 1.37859C75.6958 1.29471 74.7732 1.27853 73.9771 1.49576L74.2731 2.58058ZM78.7812 2.83913C80.7807 3.14913 82.5892 4.30249 83.9305 5.84718L84.7795 5.10994C83.3016 3.40781 81.2673 2.08667 78.9535 1.72793L78.7812 2.83913ZM83.9305 5.84718C85.3882 7.526 86.7097 9.06289 87.8937 10.8887L88.8372 10.2769C87.6047 8.37629 86.2334 6.7844 84.7795 5.10994L83.9305 5.84718ZM87.8937 10.8887C88.6529 12.0594 89.4805 13.0939 90.0382 14.2412L91.0495 13.7496C90.4534 12.5233 89.5129 11.3189 88.8372 10.2769L87.8937 10.8887ZM90.0382 14.2412C90.7051 15.6131 90.6407 16.9978 90.2008 18.3875C89.7554 19.7946 88.9408 21.1592 88.152 22.4671L89.1149 23.0479C89.8917 21.7599 90.7804 20.2824 91.2728 18.7268C91.7707 17.1538 91.8787 15.4554 91.0495 13.7496L90.0382 14.2412ZM88.152 22.4671C87.9002 22.8846 87.5606 23.237 87.1651 23.6417C86.7839 24.0318 86.3473 24.4738 86.0095 25.0209L86.9663 25.6116C87.2277 25.1883 87.5731 24.8331 87.9693 24.4276C88.3515 24.0366 88.785 23.5948 89.1149 23.0479L88.152 22.4671ZM86.0095 25.0209C85.2167 26.305 84.0815 27.3899 82.9215 28.4831L83.6927 29.3015C84.8365 28.2235 86.0833 27.0418 86.9663 25.6116L86.0095 25.0209ZM82.9215 28.4831C81.8077 29.5327 80.5322 30.7451 79.5471 32.12C78.5587 33.4996 77.829 35.0879 77.8618 36.8944L78.9861 36.8739C78.9593 35.3966 79.5525 34.0432 80.4612 32.7749C81.3732 31.502 82.5691 30.3603 83.6927 29.3015L82.9215 28.4831ZM77.8618 36.8944C77.8787 37.8234 77.7214 38.9483 77.5434 39.9179L78.6494 40.1209C78.8306 39.1335 79.0051 37.9188 78.9861 36.8739L77.8618 36.8944ZM77.5434 39.9179C77.431 40.5301 77.0695 41.1276 76.5573 41.6938C76.0481 42.2567 75.4225 42.7528 74.8419 43.1639L75.4917 44.0816C76.102 43.6495 76.8027 43.0987 77.3912 42.4482C77.9768 41.8009 78.4847 41.0183 78.6494 40.1209L77.5434 39.9179ZM74.8419 43.1639C73.0399 44.4398 71.1824 44.9494 68.9577 45.6784L69.3078 46.7469C71.4632 46.0407 73.5182 45.4789 75.4917 44.0816L74.8419 43.1639ZM68.9577 45.6784C68.0581 45.9731 67.2936 46.3018 66.4886 46.3809L66.5985 47.5C67.5667 47.4049 68.537 46.9995 69.3078 46.7469L68.9577 45.6784ZM66.4886 46.3809C65.5135 46.4768 64.4774 46.4772 63.3923 46.7355L63.6527 47.8294C64.6406 47.5943 65.4791 47.61 66.5985 47.5L66.4886 46.3809ZM63.3923 46.7355C62.1051 47.0419 61.0912 47.5787 60.0023 48.0169L60.4221 49.0601C61.6441 48.5683 62.4733 48.1102 63.6527 47.8294L63.3923 46.7355ZM60.0023 48.0169C59.2349 48.3257 58.6255 48.8508 58.0944 49.3456C57.5401 49.862 57.0843 50.3291 56.5486 50.6765L57.1604 51.62C57.8036 51.2029 58.3629 50.6322 58.8609 50.1684C59.382 49.683 59.8621 49.2854 60.4221 49.0601L60.0023 48.0169ZM56.5486 50.6765C55.8144 51.1526 55.0588 51.7104 54.3448 52.2013C53.6137 52.704 52.8919 53.1621 52.1486 53.5024L52.6166 54.5248C53.4498 54.1434 54.2354 53.6412 54.9819 53.1279C55.7455 52.6028 56.4375 52.0887 57.1604 51.62L56.5486 50.6765ZM52.1486 53.5024C51.4281 53.8322 50.6937 54.0427 49.921 54.2411C49.1602 54.4364 48.3424 54.6241 47.5274 54.9036L47.8921 55.9673C48.6521 55.7067 49.4027 55.535 50.2006 55.3302C50.9867 55.1284 51.8012 54.8981 52.6166 54.5248L52.1486 53.5024ZM47.5274 54.9036C45.792 55.4986 43.2418 56.5094 41.135 57.3671C40.0795 57.7968 39.1318 58.1895 38.4479 58.4749C38.1059 58.6175 37.8299 58.7334 37.6392 58.8136C37.5439 58.8537 37.4699 58.8849 37.4197 58.9061C37.3946 58.9167 37.3755 58.9248 37.3626 58.9302C37.3561 58.933 37.3512 58.935 37.3479 58.9364C37.3463 58.9371 37.345 58.9376 37.3442 58.938C37.3438 58.9382 37.3435 58.9383 37.3432 58.9384C37.3431 58.9384 37.3431 58.9385 37.343 58.9385C37.3429 58.9385 37.3429 58.9385 37.5622 59.4563C37.7815 59.974 37.7815 59.974 37.7815 59.9739C37.7816 59.9739 37.7817 59.9739 37.7818 59.9739C37.7819 59.9738 37.7822 59.9736 37.7826 59.9735C37.7834 59.9731 37.7846 59.9726 37.7862 59.972C37.7894 59.9706 37.7942 59.9686 37.8005 59.9659C37.8132 59.9605 37.8322 59.9525 37.8571 59.942C37.9069 59.921 37.9804 59.89 38.0753 59.8501C38.265 59.7702 38.54 59.6548 38.8809 59.5126C39.5626 59.2282 40.5072 58.8367 41.559 58.4086C43.6666 57.5505 46.1902 56.5508 47.8921 55.9673L47.5274 54.9036Z" fill="white"/>
<path d="M79.6071 58.5564C77.8982 58.9186 73.7175 55.9075 74.0138 58.0796C74.1691 59.2182 75.1884 59.6718 75.8468 60.3815C76.9216 61.5402 78.5159 62.1854 79.656 63.2839C80.1496 63.7595 80.5033 64.3494 80.9748 64.8422C81.5254 65.4179 82.1718 65.8678 82.7176 66.4625C83.2851 67.0808 83.8466 67.5782 84.1629 68.3859C84.4944 69.2326 84.9089 70.0883 85.3119 70.9028C85.8915 72.074 86.3933 73.2996 87.046 74.4327C87.5662 75.336 88.347 76.0272 88.9781 76.8445C89.9384 78.0878 90.7786 78.9957 92.0365 79.9302L94.366 81.661C94.9998 82.1319 96.2076 82.8844 96.4518 83.7078C96.5649 84.0891 96.6887 84.4626 96.811 84.8424C96.8914 85.0921 96.7924 84.3146 96.835 84.0558C96.8735 83.822 96.9764 83.6061 97.0249 83.3744C97.4379 81.4036 97.9645 79.4922 98.21 77.4848C98.3645 76.2214 98.7489 73.8539 97.5424 72.9575C96.916 72.492 96.2598 72.0536 95.7002 71.5074C93.9566 69.8054 92.0073 68.4088 90.9685 66.1118C90.4568 64.9804 90.126 63.7723 89.7989 62.5764C89.5869 61.8016 89.2964 60.9101 88.673 60.357C87.5346 59.347 85.9094 58.426 84.4041 58.1706C83.65 58.0426 82.9994 57.8075 82.2803 57.9755C81.3987 58.1815 80.4937 58.3685 79.6071 58.5564Z" fill="#001AFF" stroke="white" stroke-width="1.16817" stroke-linecap="round"/>
<path d="M43.4947 62.959C43.1516 63.1539 42.7054 63.144 42.1899 63.1739C40.2162 63.2883 45.9489 61.0668 46.6988 60.8725C48.1603 60.4938 49.6176 60.3019 51.1164 60.3772C52.3092 60.4371 53.5983 60.9476 54.7594 60.6609C55.7461 60.4173 56.9239 60.1819 57.8364 59.7119C58.487 59.3767 59.0377 58.8622 59.7007 58.5462C60.2822 58.2689 60.7825 58.1302 61.3689 58.3983C62.4288 58.8828 63.4999 59.8054 64.4332 60.51C65.2254 61.1082 66.0554 61.6958 66.9463 62.1318C67.8767 62.5871 68.9137 62.6262 69.9336 62.858C70.6756 63.0266 71.4576 63.8356 71.9656 64.3611L71.9851 64.3813C72.6817 65.1018 73.585 66.3449 73.9061 67.3036C74.4546 68.941 74.7845 70.6251 75.1244 72.316C75.4061 73.7171 75.6457 74.995 75.4525 76.4357C75.2513 77.9353 75.3466 79.4412 75.0291 80.9302C74.8207 81.9076 74.4207 83.3342 73.8169 84.1548C73.5847 84.4704 72.9985 85.302 72.6553 85.4808C72.3267 85.652 72.5966 84.714 72.6126 84.538C72.6722 83.8827 72.6797 83.2745 72.2976 82.7188C71.0175 80.857 68.3886 80.2203 66.3673 79.6811C64.8722 79.2823 63.1551 79.2451 61.776 78.4818C60.9574 78.0287 59.8468 77.6216 59.226 76.9099C58.5467 76.131 58.0013 75.0304 57.725 74.0351C57.4118 72.9069 57.5984 71.7438 57.4869 70.6009C57.2753 68.4335 56.0208 66.5534 54.344 65.1676C52.4087 63.5681 49.877 63.061 47.4745 62.5487C46.083 62.2519 44.7843 62.2265 43.4947 62.959Z" fill="#001AFF" stroke="white" stroke-width="1.16817" stroke-linecap="round"/>
<path d="M83.3936 200.062L82.4315 200.481C82.2619 200.092 82.2431 199.703 82.2512 199.423C82.2572 199.215 82.2839 198.984 82.302 198.827C82.307 198.784 82.3113 198.747 82.3144 198.717C82.489 197.026 82.7049 195.353 82.9738 193.672C83.2933 191.673 83.8482 189.85 84.7373 188.028C85.0623 187.361 85.6316 186.899 86.1563 186.59C86.6929 186.274 87.2795 186.061 87.7793 185.936L88.014 186.872L87.7793 185.936C88.0636 185.865 88.3474 185.813 88.6026 185.768C88.6487 185.76 88.6938 185.752 88.7378 185.744C88.9476 185.708 89.1355 185.675 89.3216 185.635C89.7841 185.537 90.1902 185.36 90.6883 185.091C90.7193 185.075 90.7501 185.058 90.781 185.041C91.8517 184.464 92.853 183.924 93.5771 183.216C94.192 182.614 94.8421 182.073 95.4864 181.562C96.6372 180.65 97.8707 180.115 99.0694 179.601C100.133 179.145 101.257 178.694 102.475 178.412L83.3936 200.062ZM83.3936 200.062L82.4315 200.481C82.4884 200.612 82.5396 200.725 82.5869 200.829C82.6714 201.015 82.7433 201.174 82.8122 201.355L83.7931 200.982M83.3936 200.062L83.7931 200.982M104.242 180.621L104.825 181.493C104.854 181.474 104.908 181.445 105.017 181.393C105.032 181.385 105.05 181.377 105.07 181.368C105.159 181.326 105.287 181.266 105.394 181.206C105.512 181.142 105.763 180.997 105.952 180.744C106.058 180.6 106.16 180.403 106.193 180.156C106.227 179.906 106.18 179.676 106.098 179.485C105.725 178.624 104.871 178.362 104.301 178.288C103.686 178.208 103.022 178.285 102.475 178.412L104.242 180.621ZM104.242 180.621L104.825 181.493C104.21 181.905 103.75 182.233 103.381 182.678C102.773 183.413 102.227 184.21 101.673 185.051C101.55 185.237 101.426 185.427 101.301 185.619C100.871 186.278 100.426 186.96 99.9542 187.617C99.5417 188.191 99.4156 188.595 99.3759 189.361C99.3648 189.576 99.3509 189.77 99.3378 189.955C99.315 190.274 99.2943 190.565 99.2933 190.884C99.2918 191.353 99.3403 191.73 99.4632 192.044C99.4895 192.111 99.5155 192.178 99.5412 192.244C99.7636 192.813 99.967 193.334 100.214 193.827C100.296 193.99 100.385 194.154 100.484 194.334L100.505 194.372C100.595 194.536 100.693 194.715 100.786 194.898C100.989 195.293 101.195 195.753 101.315 196.279C101.367 196.508 101.424 196.712 101.488 196.941C101.524 197.071 101.563 197.208 101.604 197.363C101.708 197.756 101.812 198.204 101.848 198.693C101.851 198.735 101.855 198.777 101.858 198.818C101.911 199.538 101.949 200.049 102.141 200.542C102.285 200.911 102.551 201.244 102.924 201.711C102.97 201.768 103.018 201.828 103.067 201.89C103.323 202.213 103.568 202.552 103.795 202.868C103.845 202.937 103.894 203.004 103.942 203.071C104.218 203.452 104.476 203.798 104.751 204.109C105.371 204.811 106.06 205.451 106.794 206.131C106.877 206.209 106.961 206.287 107.046 206.366C107.857 207.12 108.71 207.932 109.455 208.868C110.153 209.745 110.853 210.764 111.267 211.951C111.272 211.968 111.281 211.992 111.293 212.024C111.387 212.287 111.655 213.032 111.813 213.75C111.898 214.138 111.978 214.627 111.935 215.068C111.914 215.289 111.853 215.601 111.656 215.888C111.428 216.222 111.07 216.445 110.643 216.486C110.184 216.53 109.754 216.463 109.441 216.409C109.383 216.399 109.33 216.389 109.279 216.38C109.019 216.335 108.845 216.304 108.67 216.299C108.02 216.281 107.336 216.49 106.483 216.752C106.446 216.763 106.409 216.774 106.372 216.786C106.306 216.806 106.24 216.826 106.174 216.846C104.859 217.25 103.479 217.674 101.827 217.566C101.081 217.517 100.431 217.191 99.9735 216.927C99.8296 216.845 99.6579 216.753 99.4709 216.654C99.0276 216.418 98.4986 216.137 98.0505 215.813C97.4476 215.378 97.0378 214.841 96.7105 214.412C96.6374 214.316 96.5684 214.226 96.5023 214.143C96.3589 213.964 96.2027 213.79 96.021 213.589L95.9944 213.559C95.8094 213.354 95.5986 213.119 95.401 212.864C94.5705 211.79 93.2584 210.949 91.8795 210.363C91.0853 210.026 90.3123 209.665 89.5482 209.288C88.3365 208.69 87.4104 207.86 86.5539 207.041C84.9087 205.466 83.6151 203.465 82.8122 201.355L83.7931 200.982M104.242 180.621L83.7931 200.982" fill="white" stroke="#001AFF" stroke-width="2.09894" stroke-linecap="round"/>
</svg>
