<svg width="248" height="241" viewBox="0 0 248 241" fill="none" xmlns="http://www.w3.org/2000/svg">
<path d="M114.035 46.0361C114.684 45.437 120.256 42.3245 118.722 43.6816C118.166 44.1729 117.704 44.392 117.335 44.8866C117.206 45.0587 116.947 45.4975 116.953 45.6889C116.968 46.179 117.568 46.581 117.556 47.0715C117.542 47.6514 117.192 47.9778 117.262 48.5465C117.342 49.1964 117.523 49.7676 117.744 50.3802C118.012 51.1211 118.457 51.7495 118.618 52.5418C118.793 53.4026 118.853 54.2184 118.903 55.096C118.929 55.5378 118.751 56.3646 118.388 56.5891C118.128 56.7497 117.92 56.7351 117.668 56.8551C116.648 57.3395 115.57 57.5024 114.474 57.6154C113.575 57.7081 112.613 58.3354 111.703 58.235C110.77 58.1319 109.653 58.8259 108.83 59.2078C108.356 59.4278 107.721 59.6693 107.216 59.7891C106.949 59.8526 106.408 59.8291 106.246 59.5865C105.852 58.9987 105.477 58.3868 105.19 57.7447C104.877 57.0428 104.852 56.3049 104.832 55.5687C104.816 54.9371 104.832 54.2601 104.93 53.6428C104.98 53.3272 105.229 52.7161 105.412 52.4652C105.525 52.3113 105.642 52.2434 105.725 52.0593C105.796 51.9034 105.835 51.6854 105.966 51.5676C106.891 50.7356 107.791 49.893 108.991 49.4328C109.426 49.2659 109.845 49.0594 110.25 48.8287C110.537 48.6651 110.878 48.6148 111.175 48.431C112.228 47.7807 113.127 46.8744 114.035 46.0361Z" fill="white" stroke="#001AFF" stroke-width="4" stroke-linecap="round"/>
<path d="M54.7352 14.3431C52.9204 12.0089 36.2169 -1.32427 40.542 3.99884C42.1079 5.92604 43.5172 6.90309 44.4643 8.73888C44.7939 9.37784 45.4119 10.9695 45.2869 11.5983C44.9668 13.2085 42.7649 14.2079 42.5364 15.8351C42.2664 17.7583 43.2427 19.0281 42.6998 20.8682C42.0794 22.9712 41.1714 24.7591 40.1042 26.6614C38.8136 28.9621 36.9998 30.7944 36.0337 33.3233C34.984 36.0708 34.3384 38.7326 33.6917 41.6041C33.3661 43.0496 33.5005 45.878 34.5779 46.8186C35.3483 47.4912 36.0413 47.5566 36.8105 48.0915C39.9145 50.2501 43.3858 51.3783 46.9447 52.3519C49.864 53.1506 52.6971 55.7493 55.7577 55.9158C58.8966 56.0865 62.2072 58.9905 64.7156 60.7027C66.1607 61.689 68.1274 62.8345 69.7275 63.5065C70.5755 63.8626 72.3744 64.0812 73.0446 63.3688C74.6683 61.643 76.24 59.8266 77.5392 57.8628C78.9594 55.7159 79.4462 53.2922 79.9133 50.8711C80.314 48.7939 80.6316 46.5487 80.645 44.4558C80.6519 43.3858 80.1647 41.2309 79.6966 40.3018C79.4096 39.732 79.0589 39.4431 78.8855 38.7895C78.7387 38.2363 78.7289 37.4946 78.3606 37.0337C75.7597 33.7789 73.2492 30.5029 69.5372 28.3255C68.191 27.5359 66.9187 26.6239 65.7079 25.6404C64.849 24.9427 63.7509 24.5898 62.8692 23.82C59.7481 21.0952 57.2747 17.6093 54.7352 14.3431Z" fill="white" stroke="#001AFF" stroke-width="4" stroke-linecap="round"/>
<path d="M166.672 139.527C165.639 139.648 151.971 142.918 156.189 144.635C157.505 145.17 158.583 145.047 159.786 145.185C161.451 145.377 163.195 144.93 164.792 145.607C167.057 146.568 169.218 148.163 171.01 149.815C172.823 151.488 174.419 153.055 176.689 154.084C179.201 155.223 181.655 156.743 184.018 158.162L190.966 162.336C192.854 163.47 195.178 165.567 197.462 165.441C200.799 165.256 202.054 161.661 201.944 158.767C201.833 155.864 200.314 153.28 198.842 150.847C196.032 146.203 190.974 142.703 186.009 140.537C185.016 140.104 182.765 139.712 181.83 140.361C179.996 141.635 179.002 141.733 176.8 141.062C173.593 140.084 170.041 139.134 166.672 139.527Z" fill="white" stroke="#001AFF" stroke-width="4" stroke-linecap="round"/>
<path d="M146.21 156.937C145.496 154.074 148.264 151.646 146.466 149.232C144.897 147.125 142.066 146.471 140.16 146.891C136.316 147.741 132.875 149.267 129.165 150.686C126.086 151.864 123.39 153.332 119.955 152.983C117.153 152.699 114.107 152.581 111.599 151.154C109.312 149.852 106.792 148.433 104.343 147.445C101.988 146.495 99.6011 145.582 97.0188 145.719C94.8056 145.836 93.2604 146.783 91.5533 148.079C89.1633 149.893 86.6995 150.823 83.9153 151.793C79.8451 153.21 76.3813 155.943 74.6785 160.086C73.4635 163.042 72.0026 166.167 71.4809 169.318C70.9317 172.636 71.4482 175.478 72.2619 178.74C72.9606 181.541 73.4032 184.37 75.1829 186.714C77.3304 189.543 80.3106 191.87 83.1689 193.905C86.8603 196.533 90.7243 199.012 95.1449 200.184C98.6863 201.122 102.47 201.483 106.107 201.953C107.374 202.117 108.637 202.26 109.907 202.39C111.15 202.517 112.298 202.963 113.543 202.904C114.74 202.848 116.311 203.205 117.443 203.593C120.724 204.716 124.047 207.357 127.613 207.516C128.71 207.565 129.96 207.316 131.058 207.192C134.57 206.798 137.675 203.962 139.279 201.007C141.005 197.829 141.394 194.111 141.724 190.569C141.997 187.633 142.41 185.64 143.939 183.095C145.775 180.039 148.299 176.859 149.1 173.372C149.512 171.579 149.797 169.817 149.887 167.98C149.928 167.145 150.258 166.112 149.965 165.294C148.924 162.391 146.966 159.97 146.21 156.937Z" fill="white" stroke="#001AFF" stroke-width="4" stroke-linecap="round"/>
<path d="M129.123 137.812C132.793 136.948 141.293 141.829 141.293 141.829C141.293 141.829 132.147 133.878 127.876 129.602C125.919 127.643 124.512 125.44 122.34 123.658C120.11 121.829 117.269 120.555 114.793 119.068C112.79 117.865 110.21 117.55 108.442 115.957C106.904 114.57 105.488 113.556 104.149 111.927C103.023 110.559 102.35 109.153 101.432 107.663C100.654 106.402 99.4726 105.374 98.4539 104.326C95.7826 101.577 93.5538 99.0453 90.1784 97.2006C88.049 96.0368 85.1133 94.7659 82.6554 95.4541C81.0621 95.9002 79.1931 96.5063 77.7315 97.2537C72.8684 99.7406 67.0088 97.5961 62.2248 95.7925C59.7617 94.8639 57.1988 93.9118 54.5592 93.6507C52.6716 93.464 51.0352 92.478 49.1694 92.313C44.1475 91.869 38.1886 91.3734 34.6822 95.856C33.3302 97.5844 32.3029 99.7228 31.1736 101.603C29.2718 104.768 27.9174 107.922 26.4751 111.322C25.0786 114.613 24.6327 118.387 25.7078 121.854C26.3969 124.076 27.2211 127.318 28.8036 129.119C32.2656 133.059 36.0203 136.815 40.8125 139.12C43.9715 140.64 47.3573 142.323 50.8798 142.747C53.2823 143.036 55.7481 143.173 58.1635 143.322C63.5866 143.658 68.5095 142.859 73.7794 141.696C78.6381 140.625 83.8588 139.939 88.5232 138.125C90.5475 137.337 92.6785 136.538 94.8892 136.642C97.2323 136.753 98.6476 138.145 100.765 138.764C103.365 139.525 105.88 140.295 108.544 140.904C111.636 141.611 114.799 141.588 117.964 141.439C121.922 141.253 125.363 138.697 129.123 137.812Z" fill="white"/>
<path d="M141.293 141.829L140.297 143.563C141.19 144.076 142.326 143.827 142.922 142.988C143.519 142.15 143.382 140.995 142.605 140.319L141.293 141.829ZM129.123 137.812L128.665 135.865L129.123 137.812ZM117.964 141.439L117.87 139.441L117.87 139.441L117.964 141.439ZM108.544 140.904L108.099 142.854L108.099 142.854L108.544 140.904ZM100.765 138.764L100.204 140.684L100.765 138.764ZM94.8892 136.642L94.9833 134.644L94.9833 134.644L94.8892 136.642ZM88.5232 138.125L87.7981 136.261L88.5232 138.125ZM73.7794 141.696L74.2102 143.649L73.7794 141.696ZM58.1635 143.322L58.2871 141.326L58.2871 141.326L58.1635 143.322ZM50.8798 142.747L50.6408 144.733L50.6408 144.733L50.8798 142.747ZM40.8125 139.12L41.6797 137.318L41.6797 137.318L40.8125 139.12ZM28.8036 129.119L27.3012 130.439L28.8036 129.119ZM25.7078 121.854L23.7975 122.446L23.7975 122.446L25.7078 121.854ZM26.4751 111.322L28.3162 112.103L26.4751 111.322ZM34.6822 95.856L33.1069 94.6237L34.6822 95.856ZM49.1694 92.313L49.3455 90.3208L49.1694 92.313ZM54.5592 93.6507L54.7561 91.6604L54.7561 91.6604L54.5592 93.6507ZM62.2248 95.7925L62.9304 93.9211L62.9304 93.9211L62.2248 95.7925ZM77.7315 97.2537L78.6421 99.0344L78.6421 99.0344L77.7315 97.2537ZM82.6554 95.4541L83.1946 97.38L83.1946 97.38L82.6554 95.4541ZM90.1784 97.2006L89.2193 98.9556L90.1784 97.2006ZM98.4539 104.326L99.8881 102.932L99.8881 102.932L98.4539 104.326ZM101.432 107.663L103.134 106.613L103.134 106.613L101.432 107.663ZM104.149 111.927L102.604 113.198L104.149 111.927ZM108.442 115.957L109.781 114.471L108.442 115.957ZM122.34 123.658L123.608 122.112L122.34 123.658ZM127.876 129.602L126.461 131.015L127.876 129.602ZM141.293 141.829C142.289 140.094 142.289 140.094 142.288 140.094C142.288 140.094 142.288 140.094 142.287 140.094C142.287 140.093 142.286 140.093 142.285 140.092C142.284 140.091 142.282 140.09 142.279 140.089C142.274 140.086 142.266 140.081 142.257 140.076C142.238 140.066 142.212 140.05 142.177 140.031C142.109 139.993 142.01 139.937 141.884 139.868C141.633 139.73 141.273 139.535 140.83 139.305C139.947 138.846 138.724 138.24 137.375 137.659C136.034 137.082 134.522 136.509 133.069 136.138C131.681 135.782 130.07 135.534 128.665 135.865L129.581 139.759C130.011 139.657 130.84 139.696 132.077 140.013C133.25 140.313 134.551 140.798 135.794 141.333C137.028 141.865 138.159 142.425 138.985 142.854C139.396 143.068 139.729 143.248 139.957 143.373C140.07 143.436 140.158 143.485 140.216 143.517C140.245 143.533 140.266 143.546 140.28 143.553C140.287 143.557 140.291 143.56 140.294 143.562C140.296 143.562 140.297 143.563 140.297 143.563C140.297 143.563 140.297 143.563 140.297 143.563C140.297 143.563 140.297 143.563 140.297 143.563C140.297 143.563 140.297 143.563 141.293 141.829ZM128.665 135.865C126.57 136.358 124.54 137.325 122.838 138.046C121.035 138.809 119.467 139.366 117.87 139.441L118.058 143.437C120.418 143.326 122.55 142.512 124.398 141.729C126.345 140.904 127.916 140.15 129.581 139.759L128.665 135.865ZM117.87 139.441C114.734 139.589 111.801 139.597 108.99 138.955L108.099 142.854C111.472 143.625 114.863 143.587 118.058 143.437L117.87 139.441ZM108.99 138.955C106.4 138.363 103.961 137.615 101.326 136.845L100.204 140.684C102.77 141.434 105.36 142.228 108.099 142.854L108.99 138.955ZM101.326 136.845C100.477 136.597 99.8428 136.223 98.7803 135.711C97.7844 135.231 96.5559 134.718 94.9833 134.644L94.7952 138.64C95.5656 138.676 96.2163 138.915 97.0432 139.314C97.8034 139.681 98.9352 140.313 100.204 140.684L101.326 136.845ZM94.9833 134.644C92.285 134.517 89.7686 135.494 87.7981 136.261L89.2483 139.988C91.3265 139.18 93.072 138.559 94.7952 138.64L94.9833 134.644ZM87.7981 136.261C83.3245 138.001 78.4454 138.619 73.3487 139.743L74.2102 143.649C78.8309 142.63 84.3931 141.877 89.2483 139.988L87.7981 136.261ZM73.3487 139.743C68.1406 140.892 63.4322 141.645 58.2871 141.326L58.0398 145.319C63.7409 145.672 68.8784 144.825 74.2102 143.649L73.3487 139.743ZM58.2871 141.326C55.8476 141.175 53.4501 141.042 51.1188 140.762L50.6408 144.733C53.1144 145.031 55.6486 145.171 58.0398 145.319L58.2871 141.326ZM51.1188 140.762C47.9922 140.385 44.9259 138.88 41.6797 137.318L39.9454 140.923C43.0171 142.401 46.7223 144.261 50.6408 144.733L51.1188 140.762ZM41.6797 137.318C37.2687 135.196 33.7341 131.7 30.306 127.799L27.3012 130.439C30.7971 134.418 34.7718 138.433 39.9454 140.923L41.6797 137.318ZM30.306 127.799C29.7599 127.177 29.2603 126.194 28.7945 124.945C28.3308 123.702 27.9871 122.452 27.618 121.262L23.7975 122.446C24.1176 123.479 24.5306 124.96 25.0468 126.344C25.561 127.722 26.2647 129.26 27.3012 130.439L30.306 127.799ZM27.618 121.262C26.7105 118.335 27.0645 115.053 28.3162 112.103L24.6339 110.541C23.0926 114.173 22.5549 118.44 23.7975 122.446L27.618 121.262ZM28.3162 112.103C29.7625 108.694 31.0679 105.662 32.888 102.633L29.4592 100.573C27.4758 103.874 26.0722 107.151 24.6339 110.541L28.3162 112.103ZM32.888 102.633C34.1578 100.519 35.0017 98.6937 36.2575 97.0882L33.1069 94.6237C31.6587 96.4752 30.4481 98.9267 29.4592 100.573L32.888 102.633ZM36.2575 97.0882C37.6039 95.367 39.4348 94.5457 41.6523 94.2152C43.9341 93.8751 46.441 94.0796 48.9932 94.3053L49.3455 90.3208C46.8759 90.1024 43.8924 89.8371 41.0627 90.2589C38.1687 90.6902 35.2669 91.8624 33.1069 94.6237L36.2575 97.0882ZM48.9932 94.3053C49.6583 94.3641 50.3177 94.5715 51.2281 94.8726C52.0701 95.151 53.161 95.5222 54.3623 95.641L54.7561 91.6604C54.0697 91.5925 53.3986 91.3773 52.4841 91.0749C51.6379 90.795 50.5463 90.427 49.3455 90.3208L48.9932 94.3053ZM54.3623 95.641C56.6981 95.872 59.0191 96.7214 61.5193 97.664L62.9304 93.9211C60.5044 93.0065 57.6995 91.9516 54.7561 91.6604L54.3623 95.641ZM61.5193 97.664C63.8888 98.5573 66.7248 99.6163 69.6157 100.104C72.5266 100.595 75.6892 100.544 78.6421 99.0344L76.8209 95.4731C74.9107 96.4499 72.7119 96.5701 70.2813 96.1599C67.8306 95.7464 65.3449 94.8314 62.9304 93.9211L61.5193 97.664ZM78.6421 99.0344C79.9201 98.3809 81.6323 97.8174 83.1946 97.38L82.1162 93.5281C80.4919 93.9829 78.466 94.6318 76.8209 95.4731L78.6421 99.0344ZM83.1946 97.38C83.9268 97.175 84.8653 97.2312 85.9857 97.5545C87.0912 97.8734 88.2113 98.4047 89.2193 98.9556L91.1376 95.4456C90.0162 94.8327 88.6037 94.1467 87.0945 93.7112C85.6002 93.2801 83.8419 93.045 82.1162 93.5281L83.1946 97.38ZM89.2193 98.9556C92.2667 100.621 94.2579 102.878 97.0196 105.72L99.8881 102.932C97.3073 100.276 94.8409 97.4696 91.1376 95.4456L89.2193 98.9556ZM97.0196 105.72C98.2064 106.941 99.1049 107.7 99.7294 108.713L103.134 106.613C102.204 105.104 100.739 103.807 99.8881 102.932L97.0196 105.72ZM99.7294 108.713C100.512 109.983 101.366 111.692 102.604 113.198L105.693 110.657C104.681 109.426 104.188 108.323 103.134 106.613L99.7294 108.713ZM102.604 113.198C104.068 114.978 105.754 116.226 107.103 117.442L109.781 114.471C108.053 112.913 106.907 112.133 105.693 110.657L102.604 113.198ZM107.103 117.442C108.282 118.505 109.674 119.089 110.813 119.526C112.058 120.003 112.957 120.298 113.763 120.783L115.823 117.354C114.626 116.635 113.234 116.171 112.246 115.791C111.152 115.372 110.37 115.002 109.781 114.471L107.103 117.442ZM113.763 120.783C115.022 121.539 116.47 122.296 117.676 122.977C118.945 123.693 120.092 124.401 121.071 125.204L123.608 122.112C122.357 121.086 120.969 120.243 119.642 119.493C118.25 118.708 117.04 118.085 115.823 117.354L113.763 120.783ZM121.071 125.204C122.014 125.977 122.814 126.861 123.666 127.861C124.49 128.827 125.409 129.963 126.461 131.015L129.291 128.189C128.386 127.282 127.623 126.336 126.711 125.266C125.827 124.229 124.838 123.12 123.608 122.112L121.071 125.204ZM126.461 131.015C128.641 133.198 132.034 136.288 134.853 138.809C136.268 140.075 137.549 141.207 138.477 142.022C138.94 142.429 139.316 142.758 139.576 142.985C139.706 143.098 139.807 143.186 139.875 143.246C139.909 143.276 139.936 143.299 139.953 143.314C139.962 143.322 139.969 143.328 139.974 143.332C139.976 143.334 139.978 143.335 139.979 143.336C139.979 143.337 139.98 143.337 139.98 143.338C139.98 143.338 139.98 143.338 139.981 143.338C139.981 143.338 139.981 143.338 141.293 141.829C142.605 140.319 142.605 140.319 142.605 140.319C142.605 140.319 142.605 140.319 142.605 140.319C142.604 140.319 142.604 140.319 142.604 140.318C142.603 140.317 142.601 140.316 142.599 140.314C142.595 140.31 142.588 140.305 142.579 140.297C142.562 140.282 142.537 140.26 142.503 140.231C142.436 140.172 142.336 140.085 142.207 139.973C141.95 139.748 141.578 139.422 141.117 139.017C140.196 138.208 138.924 137.084 137.519 135.828C134.698 133.305 131.382 130.282 129.291 128.189L126.461 131.015Z" fill="#001AFF"/>
<path d="M141.934 131.143C144.525 133.439 142.151 142.507 145.949 142.277C148.083 142.147 146.376 138.85 147.234 137.498C148.423 135.625 147.492 135.089 148.635 133.187C149.859 131.149 149.57 128.174 150.241 125.913C151.984 120.04 149.011 114.621 148.967 108.853C148.959 107.769 148.847 106.716 148.83 105.639L148.829 105.561C148.812 104.452 148.785 102.705 148.302 101.747C147.322 99.7996 146.815 97.2543 145.113 95.6943C142.729 93.5093 140.403 91.1909 137.215 90.2996C136.411 90.0748 135.128 90.4776 134.404 90.7975C132.99 91.4236 131.679 91.8641 130.173 92.1851C127.235 92.8113 124.025 90.5121 121.144 90.0258C118.03 89.5001 114.26 89.3623 112.486 92.3144C112.102 92.9541 110.327 95.4764 110.996 96.1467C111.957 97.1085 112.807 98.0822 113.635 99.18C114.73 100.631 115.718 102.096 116.139 103.89C116.508 105.459 116.618 107.114 117.105 108.651C117.29 109.233 117.995 109.8 118.336 110.291C118.949 111.176 119.425 112.184 120.167 112.972C122.472 115.422 124.679 118.012 127.391 120.03C129.426 121.544 131.168 123.397 133.343 124.729C134.92 125.694 136.513 126.633 138.098 127.585C139.927 128.684 140.327 129.719 141.934 131.143Z" fill="white"/>
<path d="M145.949 142.277L145.828 140.28L145.949 142.277ZM141.934 131.143L143.261 129.646L141.934 131.143ZM133.343 124.729L132.299 126.434L132.299 126.434L133.343 124.729ZM127.391 120.03L128.585 118.426L128.585 118.426L127.391 120.03ZM120.167 112.972L118.71 114.343L118.71 114.343L120.167 112.972ZM118.336 110.291L119.979 109.152L119.979 109.152L118.336 110.291ZM117.105 108.651L119.012 108.047L119.012 108.047L117.105 108.651ZM116.139 103.89L118.086 103.432L116.139 103.89ZM113.635 99.18L112.039 100.385L112.039 100.385L113.635 99.18ZM110.996 96.1467L109.581 97.5602L109.581 97.5602L110.996 96.1467ZM121.144 90.0258L121.477 88.0537L121.477 88.0537L121.144 90.0258ZM130.173 92.1851L130.59 94.1412L130.173 92.1851ZM134.404 90.7975L133.595 88.9686L133.595 88.9686L134.404 90.7975ZM137.215 90.2996L136.676 92.2257L136.676 92.2257L137.215 90.2996ZM145.113 95.6943L146.464 94.2199L146.464 94.2199L145.113 95.6943ZM148.302 101.747L150.088 100.847L150.088 100.847L148.302 101.747ZM148.829 105.561L146.829 105.592L146.829 105.592L148.829 105.561ZM148.83 105.639L146.83 105.67L146.83 105.67L148.83 105.639ZM148.967 108.853L146.967 108.868L146.967 108.868L148.967 108.853ZM150.241 125.913L152.159 126.482L150.241 125.913ZM147.234 137.498L145.545 136.427L147.234 137.498ZM145.828 140.28C145.777 140.283 145.883 140.276 146.001 140.365C146.077 140.423 146.028 140.426 145.933 140.195C145.718 139.673 145.588 138.796 145.482 137.496C145.388 136.334 145.313 134.831 145.092 133.545C144.881 132.322 144.46 130.709 143.261 129.646L140.608 132.64C140.704 132.725 140.958 133.107 141.149 134.223C141.33 135.275 141.385 136.456 141.495 137.819C141.595 139.044 141.746 140.535 142.235 141.72C142.492 142.342 142.9 143.034 143.584 143.552C144.309 144.102 145.172 144.327 146.071 144.273L145.828 140.28ZM143.261 129.646C142.557 129.023 142.178 128.546 141.57 127.886C140.96 127.225 140.257 126.549 139.128 125.871L137.068 129.299C137.768 129.72 138.18 130.111 138.629 130.598C139.08 131.087 139.704 131.839 140.608 132.64L143.261 129.646ZM139.128 125.871C137.523 124.906 135.956 123.983 134.388 123.023L132.299 126.434C133.884 127.405 135.504 128.36 137.068 129.299L139.128 125.871ZM134.388 123.023C133.44 122.443 132.559 121.732 131.611 120.925C130.696 120.146 129.672 119.234 128.585 118.426L126.197 121.635C127.145 122.34 128.009 123.112 129.018 123.971C129.994 124.801 131.071 125.683 132.299 126.434L134.388 123.023ZM128.585 118.426C126.058 116.545 124.024 114.153 121.624 111.602L118.71 114.343C120.92 116.691 123.301 119.48 126.197 121.635L128.585 118.426ZM121.624 111.602C121.39 111.353 121.168 111.038 120.899 110.607C120.664 110.232 120.32 109.644 119.979 109.152L116.692 111.431C116.964 111.823 117.165 112.181 117.508 112.728C117.815 113.22 118.202 113.803 118.71 114.343L121.624 111.602ZM119.979 109.152C119.822 108.925 119.648 108.724 119.519 108.58C119.453 108.505 119.383 108.429 119.326 108.366C119.266 108.299 119.214 108.242 119.165 108.186C119.065 108.072 119.01 108.001 118.979 107.956C118.946 107.908 118.979 107.942 119.012 108.047L115.198 109.255C115.43 109.986 115.919 110.551 116.158 110.824C116.527 111.245 116.607 111.309 116.692 111.431L119.979 109.152ZM119.012 108.047C118.814 107.422 118.683 106.742 118.55 105.952C118.424 105.201 118.29 104.299 118.086 103.432L114.192 104.347C114.357 105.05 114.462 105.759 114.605 106.613C114.742 107.427 114.91 108.343 115.198 109.255L119.012 108.047ZM118.086 103.432C117.562 101.203 116.347 99.4532 115.232 97.9751L112.039 100.385C113.113 101.808 113.873 102.989 114.192 104.347L118.086 103.432ZM115.232 97.9751C114.347 96.8022 113.436 95.7589 112.411 94.7333L109.581 97.5602C110.478 98.4581 111.267 99.3623 112.039 100.385L115.232 97.9751ZM112.411 94.7333C112.73 95.0527 112.82 95.4095 112.84 95.597C112.859 95.7649 112.831 95.8494 112.842 95.8028C112.864 95.7055 112.945 95.4822 113.125 95.1331C113.497 94.4078 113.912 93.8244 114.2 93.3443L110.772 91.2845C110.676 91.4441 110.011 92.4417 109.567 93.3051C109.338 93.7503 109.077 94.3233 108.943 94.9074C108.844 95.3397 108.619 96.5971 109.581 97.5602L112.411 94.7333ZM114.2 93.3443C114.708 92.5001 115.499 92.0364 116.653 91.8366C117.867 91.6266 119.318 91.7459 120.811 91.9979L121.477 88.0537C119.856 87.78 117.865 87.5675 115.971 87.8952C114.019 88.2331 112.038 89.1765 110.772 91.2845L114.2 93.3443ZM120.811 91.9979C122.011 92.2005 123.192 92.7607 124.952 93.4018C126.507 93.968 128.519 94.5826 130.59 94.1412L129.756 90.2291C128.889 90.4139 127.827 90.1919 126.321 89.6434C125.022 89.1699 123.157 88.3374 121.477 88.0537L120.811 91.9979ZM130.59 94.1412C132.245 93.7886 133.686 93.3024 135.214 92.6265L133.595 88.9686C132.293 89.5449 131.114 89.9397 129.756 90.2291L130.59 94.1412ZM135.214 92.6265C135.477 92.51 135.851 92.3764 136.209 92.2975C136.385 92.2587 136.527 92.2401 136.629 92.2355C136.74 92.2305 136.744 92.2446 136.676 92.2257L137.753 88.3734C136.87 88.1264 135.955 88.2578 135.35 88.391C134.684 88.5373 134.055 88.7651 133.595 88.9686L135.214 92.6265ZM136.676 92.2257C139.302 92.9599 141.248 94.8644 143.761 97.1686L146.464 94.2199C144.211 92.1541 141.504 89.4219 137.753 88.3734L136.676 92.2257ZM143.761 97.1686C144.295 97.6579 144.712 98.3682 145.141 99.3652C145.356 99.8659 145.544 100.363 145.769 100.933C145.984 101.478 146.227 102.074 146.516 102.646L150.088 100.847C149.886 100.446 149.698 99.9929 149.49 99.4643C149.291 98.9612 149.062 98.3593 148.815 97.7854C148.32 96.633 147.632 95.2907 146.464 94.2199L143.761 97.1686ZM146.516 102.646C146.583 102.78 146.685 103.147 146.75 103.796C146.809 104.395 146.82 105.027 146.829 105.592L150.828 105.53C150.82 104.986 150.809 104.191 150.73 103.399C150.656 102.658 150.504 101.672 150.088 100.847L146.516 102.646ZM146.829 105.592L146.83 105.67L150.83 105.608L150.828 105.53L146.829 105.592ZM146.83 105.67C146.839 106.26 146.875 106.838 146.905 107.36C146.936 107.897 146.963 108.384 146.967 108.868L150.967 108.838C150.962 108.238 150.929 107.656 150.898 107.127C150.866 106.582 150.837 106.095 150.83 105.607L146.83 105.67ZM146.967 108.868C146.991 111.991 147.816 115.109 148.309 117.715C148.825 120.445 149.055 122.879 148.324 125.344L152.159 126.482C153.17 123.074 152.785 119.862 152.239 116.972C151.67 113.959 150.987 111.483 150.967 108.838L146.967 108.868ZM148.324 125.344C147.928 126.679 147.805 128.265 147.662 129.379C147.499 130.647 147.299 131.528 146.921 132.157L150.35 134.217C151.195 132.808 151.463 131.183 151.629 129.889C151.816 128.439 151.884 127.408 152.159 126.482L148.324 125.344ZM146.921 132.157C146.123 133.484 146.031 134.442 145.961 135.16C145.917 135.616 145.902 135.865 145.545 136.427L148.923 138.57C149.755 137.258 149.869 136.302 149.942 135.546C149.99 135.053 150.004 134.792 150.35 134.217L146.921 132.157ZM145.545 136.427C145.001 137.285 144.965 138.251 144.972 138.821C144.978 139.329 145.059 140.186 145.073 140.45C145.099 140.955 145.043 140.988 145.099 140.859C145.152 140.739 145.27 140.559 145.479 140.421C145.678 140.29 145.831 140.28 145.828 140.28L146.071 144.273C146.601 144.241 147.168 144.099 147.684 143.758C148.212 143.409 148.553 142.94 148.76 142.471C149.123 141.646 149.094 140.746 149.067 140.241C149.029 139.496 148.977 139.267 148.971 138.773C148.966 138.341 149.038 138.388 148.923 138.57L145.545 136.427Z" fill="#001AFF"/>
<path d="M161.065 156.011C158.938 154.007 155.583 147.395 153.33 150.178C151.707 152.182 153.935 154.861 154.397 156.843C154.621 157.801 155.056 158.673 155.11 159.655C155.159 160.562 155.139 161.469 155.267 162.375C155.561 164.456 155.966 166.347 155.96 168.446C155.952 171.392 156.202 174.383 155.974 177.311C155.802 179.504 155.851 181.684 156.088 183.899C156.51 187.852 157.161 191.826 156.969 195.784C156.837 198.494 157.097 200.579 158.332 203.052C160.702 207.796 165.031 211.668 169.033 215.171C170.922 216.824 172.766 218.243 174.91 219.531C176.327 220.382 177.828 221.172 179.172 222.137C180.743 223.265 182.119 224.615 183.65 225.783C186.212 227.737 189.31 229.08 192.402 229.843C194.081 230.257 195.777 229.82 197.366 230.487C199.656 231.449 202.618 230.939 204.78 230.138C206.992 229.318 209.754 228.528 211.473 226.892C213.109 225.333 214.056 222.899 215.233 220.997C217.004 218.134 218.863 215.32 220.601 212.427C222.064 209.992 223.36 207.495 224.162 204.754C224.632 203.147 224.83 201.56 225.15 199.923C225.597 197.646 226.042 195.621 226.075 193.292C226.085 192.496 225.686 191.692 225.67 190.86C225.658 190.253 225.577 189.655 225.477 189.051C225.238 187.618 223.845 186.165 223.095 184.96C222.016 183.227 220.187 182.05 218.458 181.011C213.954 178.306 209.392 177.187 204.257 176.545C202.522 176.328 200.926 176.248 199.24 176.618C197.845 176.924 196.717 177.411 195.225 177.396C191.722 177.362 189.194 175.455 186.277 173.702C183.567 172.074 180.895 170.178 177.787 169.431C175.426 168.864 173.346 168.26 171.482 166.634C169.923 165.273 168.719 163.583 167.269 162.122C165.232 160.07 163.171 157.995 161.065 156.011Z" fill="white" stroke="#001AFF" stroke-width="4" stroke-linecap="round"/>
</svg>
