<svg width="248" height="241" viewBox="0 0 248 241" fill="none" xmlns="http://www.w3.org/2000/svg">
<path d="M114.035 46.0361C114.684 45.437 120.256 42.3245 118.722 43.6816C118.166 44.1729 117.704 44.392 117.335 44.8866C117.206 45.0587 116.947 45.4975 116.953 45.6889C116.968 46.179 117.568 46.581 117.556 47.0715C117.542 47.6514 117.192 47.9778 117.262 48.5465C117.342 49.1964 117.523 49.7676 117.744 50.3802C118.012 51.1211 118.457 51.7495 118.618 52.5418C118.793 53.4026 118.853 54.2184 118.903 55.096C118.929 55.5378 118.751 56.3646 118.388 56.5891C118.128 56.7497 117.92 56.7351 117.668 56.8551C116.648 57.3395 115.57 57.5024 114.474 57.6154C113.575 57.7081 112.613 58.3354 111.703 58.235C110.77 58.1319 109.653 58.8259 108.83 59.2078C108.356 59.4278 107.721 59.6693 107.216 59.7891C106.949 59.8526 106.408 59.8291 106.246 59.5865C105.852 58.9987 105.477 58.3868 105.19 57.7447C104.877 57.0428 104.852 56.3049 104.832 55.5687C104.816 54.9371 104.832 54.2601 104.93 53.6428C104.98 53.3272 105.229 52.7161 105.412 52.4652C105.525 52.3113 105.642 52.2434 105.725 52.0593C105.796 51.9034 105.835 51.6854 105.966 51.5676C106.891 50.7356 107.791 49.893 108.991 49.4328C109.426 49.2659 109.845 49.0594 110.25 48.8287C110.537 48.6651 110.878 48.6148 111.175 48.431C112.228 47.7807 113.127 46.8744 114.035 46.0361Z" fill="white" stroke="#001AFF" stroke-width="2.14307" stroke-linecap="round"/>
<path d="M54.7352 14.3431C52.9204 12.0089 36.2169 -1.32427 40.542 3.99884C42.1079 5.92604 43.5172 6.90309 44.4643 8.73888C44.7939 9.37784 45.4119 10.9695 45.2869 11.5983C44.9668 13.2085 42.7649 14.2079 42.5364 15.8351C42.2664 17.7583 43.2427 19.0281 42.6998 20.8682C42.0794 22.9712 41.1714 24.7591 40.1042 26.6614C38.8136 28.9621 36.9998 30.7944 36.0337 33.3233C34.984 36.0708 34.3384 38.7326 33.6917 41.6041C33.3661 43.0496 33.5005 45.878 34.5779 46.8186C35.3483 47.4912 36.0413 47.5566 36.8105 48.0915C39.9145 50.2501 43.3858 51.3783 46.9447 52.3519C49.864 53.1506 52.6971 55.7493 55.7577 55.9158C58.8966 56.0865 62.2072 58.9905 64.7156 60.7027C66.1607 61.689 68.1274 62.8345 69.7275 63.5065C70.5755 63.8626 72.3744 64.0812 73.0446 63.3688C74.6683 61.643 76.24 59.8266 77.5392 57.8628C78.9594 55.7159 79.4462 53.2922 79.9133 50.8711C80.314 48.7939 80.6316 46.5487 80.645 44.4558C80.6519 43.3858 80.1647 41.2309 79.6966 40.3018C79.4096 39.732 79.0589 39.4431 78.8855 38.7895C78.7387 38.2363 78.7289 37.4946 78.3606 37.0337C75.7597 33.7789 73.2492 30.5029 69.5372 28.3255C68.191 27.5359 66.9187 26.6239 65.7079 25.6404C64.849 24.9427 63.7509 24.5898 62.8692 23.82C59.7481 21.0952 57.2747 17.6093 54.7352 14.3431Z" fill="white" stroke="#001AFF" stroke-width="2.14307" stroke-linecap="round"/>
<path d="M166.672 139.527C165.639 139.648 151.971 142.918 156.189 144.635C157.505 145.17 158.583 145.047 159.786 145.185C161.451 145.377 163.195 144.93 164.792 145.607C167.057 146.568 169.218 148.163 171.01 149.815C172.823 151.488 174.419 153.055 176.689 154.084C179.201 155.223 181.655 156.743 184.018 158.162L190.966 162.336C192.854 163.47 195.178 165.567 197.462 165.441C200.799 165.256 202.054 161.661 201.944 158.767C201.833 155.864 200.314 153.28 198.842 150.847C196.032 146.203 190.974 142.703 186.009 140.537C185.016 140.104 182.765 139.712 181.83 140.361C179.996 141.635 179.002 141.733 176.8 141.062C173.593 140.084 170.041 139.134 166.672 139.527Z" fill="white" stroke="#001AFF" stroke-width="2.24366" stroke-linecap="round"/>
<path d="M146.21 156.937C145.496 154.074 148.264 151.646 146.466 149.232C144.897 147.125 142.066 146.471 140.16 146.891C136.316 147.741 132.875 149.267 129.165 150.686C126.086 151.864 123.39 153.332 119.955 152.983C117.153 152.699 114.107 152.581 111.599 151.154C109.312 149.852 106.792 148.433 104.343 147.445C101.988 146.495 99.6011 145.582 97.0188 145.719C94.8056 145.836 93.2604 146.783 91.5533 148.079C89.1633 149.893 86.6995 150.823 83.9153 151.793C79.8451 153.21 76.3813 155.943 74.6785 160.086C73.4635 163.042 72.0026 166.167 71.4809 169.318C70.9317 172.636 71.4482 175.478 72.2619 178.74C72.9606 181.541 73.4032 184.37 75.1829 186.714C77.3304 189.543 80.3106 191.87 83.1689 193.905C86.8603 196.533 90.7243 199.012 95.1449 200.184C98.6863 201.122 102.47 201.483 106.107 201.953C107.374 202.117 108.637 202.26 109.907 202.39C111.15 202.517 112.298 202.963 113.543 202.904C114.74 202.848 116.311 203.205 117.443 203.593C120.724 204.716 124.047 207.357 127.613 207.516C128.71 207.565 129.96 207.316 131.058 207.192C134.57 206.798 137.675 203.962 139.279 201.007C141.005 197.829 141.394 194.111 141.724 190.569C141.997 187.633 142.41 185.64 143.939 183.095C145.775 180.039 148.299 176.859 149.1 173.372C149.512 171.579 149.797 169.817 149.887 167.98C149.928 167.145 150.258 166.112 149.965 165.294C148.924 162.391 146.966 159.97 146.21 156.937Z" fill="white" stroke="#001AFF" stroke-width="1.387" stroke-linecap="round"/>
<path d="M129.123 137.812C132.793 136.948 141.293 141.829 141.293 141.829C141.293 141.829 132.147 133.878 127.876 129.602C125.919 127.643 124.512 125.44 122.34 123.658C120.11 121.829 117.269 120.555 114.793 119.068C112.79 117.865 110.21 117.55 108.442 115.957C106.904 114.57 105.488 113.556 104.149 111.927C103.023 110.559 102.35 109.153 101.432 107.663C100.654 106.402 99.4726 105.374 98.4539 104.326C95.7826 101.577 93.5538 99.0453 90.1784 97.2006C88.049 96.0368 85.1133 94.7659 82.6554 95.4541C81.0621 95.9002 79.1931 96.5063 77.7315 97.2537C72.8684 99.7406 67.0088 97.5961 62.2248 95.7925C59.7617 94.8639 57.1988 93.9118 54.5592 93.6507C52.6716 93.464 51.0352 92.478 49.1694 92.313C44.1475 91.869 38.1886 91.3734 34.6822 95.856C33.3302 97.5844 32.3029 99.7228 31.1736 101.603C29.2718 104.768 27.9174 107.922 26.4751 111.322C25.0786 114.613 24.6327 118.387 25.7078 121.854C26.3969 124.076 27.2211 127.318 28.8036 129.119C32.2656 133.059 36.0203 136.815 40.8125 139.12C43.9715 140.64 47.3573 142.323 50.8798 142.747C53.2823 143.036 55.7481 143.173 58.1635 143.322C63.5866 143.658 68.5095 142.859 73.7794 141.696C78.6381 140.625 83.8588 139.939 88.5232 138.125C90.5475 137.337 92.6785 136.538 94.8892 136.642C97.2323 136.753 98.6476 138.145 100.765 138.764C103.365 139.525 105.88 140.295 108.544 140.904C111.636 141.611 114.799 141.588 117.964 141.439C121.922 141.253 125.363 138.697 129.123 137.812Z" fill="white"/>
<path d="M141.293 141.829L140.948 142.43C141.257 142.608 141.651 142.522 141.858 142.231C142.065 141.94 142.017 141.54 141.748 141.305L141.293 141.829ZM129.123 137.812L128.965 137.137L128.965 137.137L129.123 137.812ZM117.964 141.439L117.931 140.747L117.931 140.747L117.964 141.439ZM108.544 140.904L108.39 141.58L108.544 140.904ZM100.765 138.764L100.57 139.43L100.765 138.764ZM94.8892 136.642L94.9218 135.95L94.8892 136.642ZM88.5232 138.125L88.2718 137.478L88.5232 138.125ZM73.7794 141.696L73.9288 142.374L73.7794 141.696ZM58.1635 143.322L58.2064 142.63L58.1635 143.322ZM50.8798 142.747L50.7969 143.436L50.8798 142.747ZM40.8125 139.12L41.1132 138.496L40.8125 139.12ZM28.8036 129.119L28.2826 129.577L28.2826 129.577L28.8036 129.119ZM25.7078 121.854L25.0454 122.059L25.0454 122.059L25.7078 121.854ZM26.4751 111.322L27.1135 111.593L26.4751 111.322ZM34.6822 95.856L34.136 95.4287L34.6822 95.856ZM49.1694 92.313L49.2305 91.6222L49.1694 92.313ZM54.5592 93.6507L54.6275 92.9606L54.6275 92.9606L54.5592 93.6507ZM62.2248 95.7925L62.4695 95.1436L62.2248 95.7925ZM77.7315 97.2537L78.0472 97.8712L78.0472 97.8712L77.7315 97.2537ZM82.6554 95.4541L82.8424 96.1219L82.8424 96.1219L82.6554 95.4541ZM90.1784 97.2006L89.8459 97.8091L90.1784 97.2006ZM98.4539 104.326L98.9512 103.842L98.4539 104.326ZM101.432 107.663L102.022 107.299L101.432 107.663ZM104.149 111.927L103.613 112.368L104.149 111.927ZM108.442 115.957L108.907 115.442L108.442 115.957ZM122.34 123.658L122.779 123.122L122.34 123.658ZM127.876 129.602L127.385 130.092L127.876 129.602ZM141.293 141.829C141.638 141.227 141.638 141.227 141.638 141.227C141.638 141.227 141.638 141.227 141.637 141.227C141.637 141.227 141.637 141.226 141.636 141.226C141.635 141.225 141.633 141.224 141.631 141.223C141.626 141.22 141.62 141.217 141.611 141.212C141.594 141.202 141.569 141.188 141.537 141.17C141.472 141.133 141.377 141.08 141.255 141.013C141.011 140.879 140.66 140.689 140.227 140.464C139.363 140.015 138.17 139.424 136.859 138.859C135.55 138.296 134.107 137.752 132.745 137.403C131.406 137.06 130.051 136.881 128.965 137.137L129.282 138.487C130.031 138.311 131.114 138.417 132.401 138.747C133.666 139.071 135.035 139.585 136.31 140.133C137.582 140.681 138.743 141.256 139.588 141.695C140.009 141.914 140.351 142.099 140.586 142.228C140.704 142.293 140.795 142.344 140.856 142.378C140.887 142.396 140.91 142.409 140.926 142.418C140.933 142.422 140.939 142.425 140.943 142.427C140.944 142.428 140.946 142.429 140.947 142.43C140.947 142.43 140.947 142.43 140.947 142.43C140.948 142.43 140.948 142.43 140.948 142.43C140.948 142.43 140.948 142.43 141.293 141.829ZM128.965 137.137C127.01 137.597 125.13 138.494 123.347 139.249C121.53 140.018 119.778 140.66 117.931 140.747L117.996 142.132C120.107 142.033 122.055 141.302 123.888 140.526C125.756 139.735 127.477 138.912 129.282 138.487L128.965 137.137ZM117.931 140.747C114.776 140.895 111.693 140.913 108.699 140.228L108.39 141.58C111.579 142.309 114.821 142.281 117.996 142.132L117.931 140.747ZM108.699 140.228C106.06 139.625 103.572 138.863 100.96 138.099L100.57 139.43C103.159 140.187 105.7 140.966 108.39 141.58L108.699 140.228ZM100.96 138.099C99.9736 137.811 99.1767 137.353 98.2129 136.888C97.2722 136.434 96.2325 136.011 94.9218 135.95L94.8566 137.335C95.8891 137.384 96.7285 137.712 97.6106 138.137C98.4695 138.551 99.4389 139.099 100.57 139.43L100.96 138.099ZM94.9218 135.95C92.5421 135.838 90.2774 136.698 88.2718 137.478L88.7746 138.771C90.8176 137.976 92.815 137.239 94.8566 137.335L94.9218 135.95ZM88.2718 137.478C83.6735 139.267 78.5713 139.929 73.6301 141.019L73.9288 142.374C78.705 141.32 84.044 140.611 88.7746 138.771L88.2718 137.478ZM73.6301 141.019C68.3816 142.177 63.533 142.96 58.2064 142.63L58.1206 144.015C63.6401 144.357 68.6374 143.541 73.9288 142.374L73.6301 141.019ZM58.2064 142.63C55.7826 142.48 53.3404 142.345 50.9627 142.059L50.7969 143.436C53.2241 143.728 55.7136 143.866 58.1206 144.015L58.2064 142.63ZM50.9627 142.059C47.5774 141.651 44.3024 140.03 41.1132 138.496L40.5118 139.745C43.6406 141.251 47.1371 142.995 50.7969 143.436L50.9627 142.059ZM41.1132 138.496C36.4532 136.253 32.7748 132.588 29.3245 128.661L28.2826 129.577C31.7564 133.53 35.5873 137.376 40.5118 139.745L41.1132 138.496ZM29.3245 128.661C28.6183 127.858 28.052 126.693 27.5704 125.402C27.0895 124.113 26.7232 122.787 26.3701 121.649L25.0454 122.059C25.3815 123.143 25.7718 124.549 26.2709 125.887C26.7693 127.223 27.4063 128.58 28.2826 129.577L29.3245 128.661ZM26.3701 121.649C25.3532 118.369 25.7672 114.766 27.1135 111.593L25.8367 111.051C24.3899 114.461 23.9122 118.405 25.0454 122.059L26.3701 121.649ZM27.1135 111.593C28.5572 108.19 29.8946 105.078 31.7681 101.96L30.5792 101.245C28.6491 104.458 27.2776 107.655 25.8367 111.051L27.1135 111.593ZM31.7681 101.96C32.9461 99.9988 33.9098 97.9691 35.2285 96.2833L34.136 95.4287C32.7506 97.1998 31.6598 99.4467 30.5792 101.245L31.7681 101.96ZM35.2285 96.2833C36.8406 94.2223 39.0213 93.2864 41.4597 92.9229C43.9205 92.5562 46.583 92.7805 49.1083 93.0038L49.2305 91.6222C46.7338 91.4015 43.906 91.156 41.2553 91.5511C38.5822 91.9495 36.0302 93.0071 34.136 95.4287L35.2285 96.2833ZM49.1083 93.0038C49.9483 93.0781 50.7489 93.338 51.6383 93.6321C52.5041 93.9184 53.4578 94.2386 54.4909 94.3408L54.6275 92.9606C53.7729 92.876 52.9647 92.6099 52.0738 92.3153C51.2067 92.0285 50.2562 91.7129 49.2305 91.6222L49.1083 93.0038ZM54.4909 94.3408C57.0252 94.5915 59.5042 95.508 61.9802 96.4415L62.4695 95.1436C60.0192 94.2199 57.3725 93.2321 54.6275 92.9606L54.4909 94.3408ZM61.9802 96.4415C64.3644 97.3403 67.086 98.3523 69.8331 98.8159C72.5871 99.2806 75.4349 99.2071 78.0472 97.8712L77.4157 96.6363C75.1649 97.7873 72.6514 97.8849 70.0639 97.4482C67.4694 97.0104 64.8693 96.0483 62.4695 95.1436L61.9802 96.4415ZM78.0472 97.8712C79.4452 97.1563 81.2598 96.565 82.8424 96.1219L82.4684 94.7863C80.8644 95.2354 78.941 95.8563 77.4157 96.6363L78.0472 97.8712ZM82.8424 96.1219C83.8991 95.826 85.1053 95.9407 86.3479 96.2992C87.5852 96.6562 88.8008 97.238 89.8459 97.8091L90.511 96.5921C89.4267 95.9994 88.1097 95.3639 86.7323 94.9665C85.3602 94.5707 83.8696 94.394 82.4684 94.7863L82.8424 96.1219ZM89.8459 97.8091C93.1075 99.5917 95.2539 102.028 97.9565 104.809L98.9512 103.842C96.3113 101.126 94.0001 98.499 90.511 96.5921L89.8459 97.8091ZM97.9565 104.809C99.0335 105.917 100.117 106.852 100.842 108.027L102.022 107.299C101.192 105.952 99.9116 104.831 98.9512 103.842L97.9565 104.809ZM100.842 108.027C101.713 109.441 102.448 110.952 103.613 112.368L104.684 111.487C103.598 110.166 102.987 108.865 102.022 107.299L100.842 108.027ZM103.613 112.368C104.995 114.049 106.505 115.144 107.978 116.472L108.907 115.442C107.302 113.995 105.98 113.063 104.684 111.487L103.613 112.368ZM107.978 116.472C108.964 117.361 110.157 117.875 111.281 118.306C112.442 118.751 113.502 119.102 114.436 119.663L115.15 118.474C114.081 117.831 112.85 117.422 111.778 117.011C110.669 116.586 109.688 116.146 108.907 115.442L107.978 116.472ZM114.436 119.663C115.681 120.411 117.052 121.124 118.318 121.839C119.606 122.566 120.832 123.318 121.9 124.194L122.779 123.122C121.618 122.169 120.308 121.37 119 120.631C117.669 119.88 116.381 119.213 115.15 118.474L114.436 119.663ZM121.9 124.194C122.936 125.044 123.798 126.001 124.661 127.013C125.513 128.014 126.381 129.087 127.385 130.092L128.367 129.112C127.414 128.158 126.6 127.15 125.716 126.114C124.843 125.089 123.915 124.053 122.779 123.122L121.9 124.194ZM127.385 130.092C129.536 132.245 132.904 135.314 135.724 137.836C137.136 139.098 138.414 140.227 139.339 141.04C139.802 141.447 140.176 141.775 140.435 142.001C140.565 142.114 140.665 142.202 140.733 142.261C140.768 142.291 140.794 142.314 140.811 142.329C140.82 142.337 140.827 142.342 140.831 142.346C140.833 142.348 140.835 142.35 140.836 142.351C140.837 142.351 140.837 142.351 140.837 142.352C140.838 142.352 140.838 142.352 140.838 142.352C140.838 142.352 140.838 142.352 141.293 141.829C141.748 141.305 141.748 141.305 141.748 141.305C141.748 141.305 141.748 141.305 141.747 141.305C141.747 141.305 141.747 141.304 141.746 141.304C141.745 141.303 141.744 141.302 141.741 141.3C141.737 141.296 141.73 141.29 141.722 141.283C141.704 141.268 141.679 141.245 141.645 141.216C141.577 141.156 141.477 141.069 141.348 140.956C141.09 140.731 140.716 140.404 140.255 139.999C139.332 139.187 138.057 138.061 136.648 136.802C133.827 134.279 130.487 131.234 128.367 129.112L127.385 130.092Z" fill="#001AFF"/>
<path d="M141.934 131.143C144.525 133.439 142.151 142.507 145.949 142.277C148.083 142.147 146.376 138.85 147.234 137.498C148.423 135.625 147.492 135.089 148.635 133.187C149.859 131.149 149.57 128.174 150.241 125.913C151.984 120.04 149.011 114.621 148.967 108.853C148.959 107.769 148.847 106.716 148.83 105.639L148.829 105.561C148.812 104.452 148.785 102.705 148.302 101.747C147.322 99.7996 146.815 97.2543 145.113 95.6943C142.729 93.5093 140.403 91.1909 137.215 90.2996C136.411 90.0748 135.128 90.4776 134.404 90.7975C132.99 91.4236 131.679 91.8641 130.173 92.1851C127.235 92.8113 124.025 90.5121 121.144 90.0258C118.03 89.5001 114.26 89.3623 112.486 92.3144C112.102 92.9541 110.327 95.4764 110.996 96.1467C111.957 97.1085 112.807 98.0822 113.635 99.18C114.73 100.631 115.718 102.096 116.139 103.89C116.508 105.459 116.618 107.114 117.105 108.651C117.29 109.233 117.995 109.8 118.336 110.291C118.949 111.176 119.425 112.184 120.167 112.972C122.472 115.422 124.679 118.012 127.391 120.03C129.426 121.544 131.168 123.397 133.343 124.729C134.92 125.694 136.513 126.633 138.098 127.585C139.927 128.684 140.327 129.719 141.934 131.143Z" fill="white"/>
<path d="M145.949 142.277L145.907 141.584L145.949 142.277ZM141.934 131.143L142.394 130.624L141.934 131.143ZM133.343 124.729L132.981 125.32L133.343 124.729ZM127.391 120.03L127.805 119.474L127.391 120.03ZM120.167 112.972L119.662 113.447L120.167 112.972ZM118.336 110.291L118.906 109.896L118.336 110.291ZM117.105 108.651L117.766 108.441L117.766 108.441L117.105 108.651ZM116.139 103.89L116.814 103.731L116.139 103.89ZM113.635 99.18L113.082 99.5978L113.082 99.5978L113.635 99.18ZM110.996 96.1467L110.506 96.6369L110.506 96.6369L110.996 96.1467ZM121.144 90.0258L121.259 89.3419L121.144 90.0258ZM130.173 92.1851L130.318 92.8634L130.173 92.1851ZM134.404 90.7975L134.124 90.1634L134.124 90.1634L134.404 90.7975ZM137.215 90.2996L137.028 90.9675L137.215 90.2996ZM145.113 95.6943L145.581 95.1831L145.581 95.1831L145.113 95.6943ZM148.302 101.747L148.921 101.435L148.921 101.435L148.302 101.747ZM148.829 105.561L148.135 105.572L148.135 105.572L148.829 105.561ZM148.83 105.639L148.136 105.649L148.136 105.65L148.83 105.639ZM148.967 108.853L148.274 108.858L148.274 108.858L148.967 108.853ZM150.241 125.913L150.906 126.11L150.241 125.913ZM147.234 137.498L146.648 137.127L147.234 137.498ZM145.907 141.584C145.579 141.604 145.369 141.526 145.212 141.406C145.04 141.276 144.873 141.052 144.725 140.693C144.42 139.954 144.284 138.877 144.18 137.601C144.08 136.374 144.012 134.976 143.804 133.766C143.6 132.578 143.233 131.368 142.394 130.624L141.474 131.662C141.931 132.067 142.239 132.851 142.437 134.001C142.631 135.13 142.692 136.416 142.798 137.714C142.899 138.963 143.043 140.253 143.443 141.222C143.647 141.716 143.938 142.181 144.373 142.511C144.823 142.852 145.37 143.007 145.991 142.969L145.907 141.584ZM142.394 130.624C141.625 129.943 141.166 129.376 140.609 128.772C140.052 128.168 139.444 127.585 138.455 126.991L137.741 128.18C138.581 128.684 139.088 129.168 139.59 129.712C140.092 130.257 140.636 130.919 141.474 131.662L142.394 130.624ZM138.455 126.991C136.863 126.034 135.279 125.101 133.705 124.137L132.981 125.32C134.561 126.287 136.163 127.232 137.741 128.18L138.455 126.991ZM133.705 124.137C132.666 123.501 131.721 122.735 130.764 121.92C129.818 121.115 128.846 120.249 127.805 119.474L126.977 120.586C127.97 121.326 128.887 122.143 129.865 122.976C130.832 123.799 131.845 124.625 132.981 125.32L133.705 124.137ZM127.805 119.474C125.157 117.504 123.01 114.982 120.672 112.497L119.662 113.447C121.934 115.862 124.201 118.521 126.977 120.586L127.805 119.474ZM120.672 112.497C120.349 112.153 120.073 111.75 119.791 111.3C119.521 110.869 119.224 110.356 118.906 109.896L117.766 110.686C118.06 111.111 118.308 111.545 118.615 112.035C118.91 112.507 119.243 113.003 119.662 113.447L120.672 112.497ZM118.906 109.896C118.706 109.608 118.381 109.274 118.183 109.048C117.94 108.771 117.81 108.58 117.766 108.441L116.444 108.86C116.585 109.304 116.899 109.688 117.14 109.962C117.427 110.289 117.625 110.484 117.766 110.686L118.906 109.896ZM117.766 108.441C117.539 107.723 117.396 106.966 117.262 106.168C117.13 105.384 117.005 104.544 116.814 103.731L115.464 104.048C115.642 104.804 115.756 105.577 115.894 106.397C116.029 107.203 116.185 108.042 116.444 108.86L117.766 108.441ZM116.814 103.731C116.357 101.787 115.291 100.222 114.189 98.7622L113.082 99.5978C114.17 101.039 115.078 102.406 115.464 104.048L116.814 103.731ZM114.189 98.7622C113.341 97.6384 112.47 96.6406 111.487 95.6566L110.506 96.6369C111.444 97.5765 112.273 98.5261 113.082 99.5978L114.189 98.7622ZM111.487 95.6566C111.595 95.7649 111.497 95.8193 111.568 95.5103C111.627 95.254 111.767 94.9165 111.963 94.536C112.359 93.7656 112.855 93.0469 113.081 92.6715L111.892 91.9573C111.733 92.2216 111.149 93.0839 110.729 93.9022C110.516 94.316 110.314 94.7747 110.217 95.1999C110.131 95.5723 110.063 96.1934 110.506 96.6369L111.487 95.6566ZM113.081 92.6715C113.836 91.4146 115.015 90.7942 116.431 90.5492C117.866 90.3008 119.494 90.4505 121.029 90.7096L121.259 89.3419C119.68 89.0753 117.865 88.8933 116.194 89.1826C114.502 89.4753 112.91 90.2621 111.892 91.9573L113.081 92.6715ZM121.029 90.7096C122.386 90.9387 123.79 91.5879 125.4 92.1742C126.938 92.7346 128.64 93.221 130.318 92.8634L130.028 91.5069C128.768 91.7755 127.396 91.4253 125.874 90.871C124.424 90.3428 122.783 89.5992 121.259 89.3419L121.029 90.7096ZM130.318 92.8634C131.875 92.5314 133.231 92.0751 134.685 91.4317L134.124 90.1634C132.748 90.7722 131.483 91.1968 130.028 91.5069L130.318 92.8634ZM134.685 91.4317C135.012 91.2868 135.47 91.1225 135.928 91.0216C136.408 90.9161 136.793 90.9017 137.028 90.9675L137.402 89.6317C136.833 89.4726 136.175 89.5472 135.63 89.667C135.065 89.7913 134.519 89.9883 134.124 90.1634L134.685 91.4317ZM137.028 90.9675C140.021 91.8043 142.215 93.9792 144.644 96.2055L145.581 95.1831C143.243 93.0394 140.785 90.5775 137.402 89.6317L137.028 90.9675ZM144.644 96.2055C145.385 96.8847 145.89 97.8014 146.341 98.8492C146.566 99.3738 146.768 99.9051 146.984 100.454C147.198 100.993 147.423 101.542 147.683 102.059L148.921 101.435C148.691 100.978 148.485 100.478 148.274 99.9442C148.067 99.419 147.852 98.8514 147.615 98.3014C147.142 97.1998 146.542 96.0639 145.581 95.1831L144.644 96.2055ZM147.683 102.059C147.864 102.418 147.982 102.987 148.05 103.666C148.116 104.328 148.127 105.014 148.135 105.572L149.522 105.55C149.514 105 149.503 104.257 149.43 103.529C149.359 102.818 149.223 102.034 148.921 101.435L147.683 102.059ZM148.135 105.572L148.136 105.649L149.523 105.628L149.522 105.55L148.135 105.572ZM148.136 105.65C148.145 106.206 148.178 106.754 148.209 107.284C148.241 107.818 148.27 108.336 148.274 108.858L149.661 108.848C149.656 108.286 149.625 107.735 149.594 107.203C149.563 106.666 149.531 106.149 149.523 105.628L148.136 105.65ZM148.274 108.858C148.296 111.825 149.075 114.733 149.592 117.472C150.118 120.255 150.399 122.943 149.576 125.716L150.906 126.11C151.826 123.01 151.491 120.052 150.955 117.215C150.411 114.334 149.682 111.649 149.661 108.848L148.274 108.858ZM149.576 125.716C149.22 126.917 149.115 128.322 148.958 129.545C148.794 130.822 148.571 131.946 148.041 132.83L149.23 133.544C149.923 132.39 150.168 131.008 150.333 129.722C150.506 128.383 150.592 127.17 150.906 126.11L149.576 125.716ZM148.041 132.83C147.391 133.911 147.324 134.641 147.262 135.286C147.208 135.84 147.16 136.32 146.648 137.127L147.82 137.87C148.497 136.803 148.578 136.078 148.642 135.42C148.697 134.853 148.737 134.365 149.23 133.544L148.041 132.83ZM146.648 137.127C146.32 137.645 146.272 138.28 146.278 138.805C146.284 139.309 146.356 139.961 146.378 140.382C146.404 140.887 146.375 141.203 146.295 141.386C146.263 141.458 146.231 141.49 146.2 141.511C146.164 141.534 146.082 141.574 145.907 141.584L145.991 142.969C146.349 142.947 146.681 142.855 146.964 142.668C147.251 142.478 147.442 142.221 147.564 141.945C147.791 141.431 147.789 140.814 147.763 140.31C147.732 139.721 147.671 139.287 147.665 138.789C147.659 138.311 147.72 138.028 147.82 137.87L146.648 137.127Z" fill="#001AFF"/>
<path d="M161.065 156.011C158.938 154.007 155.583 147.395 153.33 150.178C151.707 152.182 153.935 154.861 154.397 156.843C154.621 157.801 155.056 158.673 155.11 159.655C155.159 160.562 155.139 161.469 155.267 162.375C155.561 164.456 155.966 166.347 155.96 168.446C155.952 171.392 156.202 174.383 155.974 177.311C155.802 179.504 155.851 181.684 156.088 183.899C156.51 187.852 157.161 191.826 156.969 195.784C156.837 198.494 157.097 200.579 158.332 203.052C160.702 207.796 165.031 211.668 169.033 215.171C170.922 216.824 172.766 218.243 174.91 219.531C176.327 220.382 177.828 221.172 179.172 222.137C180.743 223.265 182.119 224.615 183.65 225.783C186.212 227.737 189.31 229.08 192.402 229.843C194.081 230.257 195.777 229.82 197.366 230.487C199.656 231.449 202.618 230.939 204.78 230.138C206.992 229.318 209.754 228.528 211.473 226.892C213.109 225.333 214.056 222.899 215.233 220.997C217.004 218.134 218.863 215.32 220.601 212.427C222.064 209.992 223.36 207.495 224.162 204.754C224.632 203.147 224.83 201.56 225.15 199.923C225.597 197.646 226.042 195.621 226.075 193.292C226.085 192.496 225.686 191.692 225.67 190.86C225.658 190.253 225.577 189.655 225.477 189.051C225.238 187.618 223.845 186.165 223.095 184.96C222.016 183.227 220.187 182.05 218.458 181.011C213.954 178.306 209.392 177.187 204.257 176.545C202.522 176.328 200.926 176.248 199.24 176.618C197.845 176.924 196.717 177.411 195.225 177.396C191.722 177.362 189.194 175.455 186.277 173.702C183.567 172.074 180.895 170.178 177.787 169.431C175.426 168.864 173.346 168.26 171.482 166.634C169.923 165.273 168.719 163.583 167.269 162.122C165.232 160.07 163.171 157.995 161.065 156.011Z" fill="white" stroke="#001AFF" stroke-width="2.24366" stroke-linecap="round"/>
</svg>
