<svg width="258" height="149" viewBox="0 0 258 149" fill="none" xmlns="http://www.w3.org/2000/svg">
<path d="M1.27485 51.7786L1.59273 50.8895C1.16919 50.7381 0.697617 50.9065 0.465779 51.2919C0.233942 51.6774 0.306221 52.1729 0.63851 52.476L1.27485 51.7786ZM6.30566 52.3654L6.76869 53.1882L6.30566 52.3654ZM8.50014 50.5033L9.2836 51.0302L8.50014 50.5033ZM9.94441 44.1215L10.8074 44.5044L9.94441 44.1215ZM13.1024 39.2255L13.7387 39.9231L13.1024 39.2255ZM16.2083 37.6748L16.0214 36.7493L16.2083 37.6748ZM18.7723 37.1294L19.0387 38.0352L18.7723 37.1294ZM22.744 35.0991L22.089 34.4191L22.744 35.0991ZM25.581 31.4719L26.3053 32.0775L25.581 31.4719ZM34.1539 26.7326L34.4343 27.6342L34.1539 26.7326ZM41.9603 25.5982L41.9596 24.6541L41.9603 25.5982ZM46.0143 26.7045L45.5708 27.538L46.0143 26.7045ZM51.0609 29.6813L51.6203 28.9207L51.0609 29.6813ZM53.5301 32.7796L52.6744 33.1786L53.5301 32.7796ZM54.8548 37.1958L53.9189 37.3203L54.8548 37.1958ZM51.7368 54.6901L51.0533 54.0387L51.7368 54.6901ZM47.4311 57.4269L47.8458 58.2751L47.4311 57.4269ZM41.2321 58.8015L41.2758 57.8584L41.2321 58.8015ZM38.796 58.3854L38.5014 59.2824L38.796 58.3854ZM33.7739 56.5461L34.1925 55.6999L33.7739 56.5461ZM29.6743 54.5506L30.0435 53.6816L29.6743 54.5506ZM23.6393 53.9125L23.7669 54.848L23.6393 53.9125ZM20.8168 54.652L20.7614 53.7095L20.8168 54.652ZM16.909 54.3149L16.651 55.2231L16.909 54.3149ZM11.7178 52.9968L11.5964 52.0605L11.5764 52.0631L11.5565 52.0666L11.7178 52.9968ZM8.43173 54.0358L8.49606 54.9778L8.43173 54.0358ZM5.28895 53.8462L5.23141 52.9038L5.28895 53.8462ZM0.956971 52.6676C2.25329 53.1311 3.43171 53.3861 4.39195 53.4751C4.87136 53.5195 5.31158 53.5239 5.69389 53.4863C6.05724 53.4505 6.44628 53.3697 6.76869 53.1882L5.84263 51.5426C5.85117 51.5378 5.7625 51.5821 5.50881 51.6071C5.27408 51.6302 4.95793 51.6311 4.56617 51.5948C3.78409 51.5224 2.76096 51.3073 1.59273 50.8895L0.956971 52.6676ZM6.76869 53.1882C7.23323 52.9268 7.74988 52.5438 8.18705 52.171C8.60828 51.8118 9.04259 51.3885 9.2836 51.0302L7.71668 49.9764C7.62652 50.1105 7.35785 50.3965 6.96175 50.7343C6.5816 51.0585 6.16659 51.3603 5.84263 51.5426L6.76869 53.1882ZM9.2836 51.0302C9.70958 50.3967 9.88849 49.6816 9.98505 49.0538C10.0721 48.4875 10.1168 47.7389 10.1641 47.3339L8.28852 47.1151C8.21274 47.7648 8.20741 48.19 8.11871 48.7667C8.03948 49.2819 7.91682 49.6788 7.71668 49.9764L9.2836 51.0302ZM10.1641 47.3339C10.3107 46.077 10.3543 45.5257 10.8074 44.5044L9.08139 43.7386C8.49801 45.0535 8.43359 45.8716 8.28852 47.1151L10.1641 47.3339ZM10.8074 44.5044C11.6286 42.6535 12.2746 41.2586 13.7387 39.9231L12.4661 38.528C10.6808 40.1567 9.90261 41.8877 9.08139 43.7386L10.8074 44.5044ZM13.7387 39.9231C14.1884 39.5129 14.5524 39.2525 14.9343 39.0618C15.3181 38.8702 15.762 38.7281 16.3952 38.6002L16.0214 36.7493C15.2908 36.8968 14.6733 37.0816 14.0909 37.3724C13.5066 37.664 12.9996 38.0414 12.4661 38.528L13.7387 39.9231ZM16.3952 38.6002C17.1885 38.44 18.1498 38.2967 19.0387 38.0352L18.5058 36.2237C17.7208 36.4546 16.9536 36.561 16.0214 36.7493L16.3952 38.6002ZM19.0387 38.0352C20.5122 37.6018 22.2166 36.918 23.3989 35.7791L22.089 34.4191C21.2442 35.2328 19.9032 35.8126 18.5058 36.2237L19.0387 38.0352ZM23.3989 35.7791C24.0247 35.1764 24.5307 34.5029 24.9836 33.8688C25.451 33.2145 25.8463 32.6265 26.3053 32.0775L24.8567 30.8663C24.3368 31.4881 23.8735 32.1743 23.4471 32.7712C23.0062 33.3884 22.5831 33.9432 22.089 34.4191L23.3989 35.7791ZM26.3053 32.0775C28.1463 29.8757 31.163 28.6515 34.4343 27.6342L33.8735 25.8311C30.6068 26.847 27.0882 28.1974 24.8567 30.8663L26.3053 32.0775ZM34.4343 27.6342C36.863 26.8789 39.3179 26.5445 41.9611 26.5424L41.9596 24.6541C39.1509 24.6563 36.5051 25.0127 33.8735 25.8311L34.4343 27.6342ZM41.9611 26.5424C43.3706 26.5413 44.2933 26.8582 45.5708 27.538L46.4578 25.871C45 25.0953 43.7697 24.6527 41.9596 24.6541L41.9611 26.5424ZM45.5708 27.538C47.3608 28.4904 48.9905 29.3306 50.5015 30.4419L51.6203 28.9207C49.9743 27.7101 48.2052 26.8007 46.4578 25.871L45.5708 27.538ZM50.5015 30.4419C51.3673 31.0786 52.2457 32.2593 52.6744 33.1786L54.3858 32.3806C53.8519 31.2356 52.7906 29.7814 51.6203 28.9207L50.5015 30.4419ZM52.6744 33.1786C53.3043 34.5294 53.732 35.9151 53.9189 37.3203L55.7907 37.0713C55.5754 35.4528 55.0861 33.8826 54.3858 32.3806L52.6744 33.1786ZM53.9189 37.3203C54.3968 40.9133 53.9855 44.318 53.5535 48.0213L55.429 48.2401C55.8561 44.5796 56.3049 40.9377 55.7907 37.0713L53.9189 37.3203ZM53.5535 48.0213C53.298 50.2116 52.5848 52.4319 51.0533 54.0387L52.4202 55.3414C54.3446 53.3224 55.1487 50.6433 55.429 48.2401L53.5535 48.0213ZM51.0533 54.0387C50.001 55.1428 48.6653 55.7725 47.0164 56.5787L47.8458 58.2751C49.4093 57.5106 51.088 56.7392 52.4202 55.3414L51.0533 54.0387ZM47.0164 56.5787C45.1264 57.5027 43.4957 57.9613 41.2758 57.8584L41.1884 59.7447C43.7923 59.8654 45.7384 59.3054 47.8458 58.2751L47.0164 56.5787ZM41.2758 57.8584C40.5174 57.8233 39.7619 57.7089 39.0905 57.4884L38.5014 59.2824C39.3768 59.5699 40.3096 59.7039 41.1884 59.7447L41.2758 57.8584ZM39.0905 57.4884C37.3769 56.9258 35.6605 56.426 34.1925 55.6999L33.3553 57.3924C34.9797 58.1959 36.8848 58.7517 38.5014 59.2824L39.0905 57.4884ZM34.1925 55.6999C32.8614 55.0415 31.5105 54.3049 30.0435 53.6816L29.3051 55.4196C30.7065 56.015 31.9343 56.6895 33.3553 57.3924L34.1925 55.6999ZM30.0435 53.6816C29.1706 53.3108 28.2329 53.2604 27.5461 53.1803L27.3273 55.0558C28.1853 55.1559 28.7519 55.1845 29.3051 55.4196L30.0435 53.6816ZM27.5461 53.1803C26.3514 53.0409 24.9374 52.7827 23.5118 52.9771L23.7669 54.848C24.886 54.6954 25.9578 54.8961 27.3273 55.0558L27.5461 53.1803ZM23.5118 52.9771C22.9125 53.0588 22.3494 53.269 21.9195 53.4188C21.4514 53.5818 21.1019 53.6895 20.7614 53.7095L20.8722 55.5945C21.5063 55.5572 22.0835 55.3612 22.5407 55.2019C23.0361 55.0293 23.3971 54.8985 23.7669 54.848L23.5118 52.9771ZM20.7614 53.7095C19.4793 53.7848 18.3368 53.739 17.167 53.4067L16.651 55.2231C18.1026 55.6355 19.4789 55.6764 20.8722 55.5945L20.7614 53.7095ZM17.167 53.4067C16.8087 53.3049 16.4388 53.1645 16.0301 53.0012C15.6346 52.8432 15.1889 52.6578 14.7398 52.4983C13.8302 52.1753 12.7757 51.9076 11.5964 52.0605L11.8393 53.9331C12.5881 53.836 13.3123 53.9952 14.1079 54.2777C14.5113 54.421 14.8998 54.583 15.3295 54.7547C15.746 54.9211 16.1925 55.0928 16.651 55.2231L17.167 53.4067ZM11.5565 52.0666C10.6642 52.2213 10.1141 52.514 9.6795 52.7238C9.28842 52.9126 8.96313 53.0532 8.36739 53.0939L8.49606 54.9778C9.43029 54.914 10.0033 54.6642 10.5004 54.4243C10.9541 54.2053 11.282 54.0307 11.8792 53.9271L11.5565 52.0666ZM8.36739 53.0939C8.11648 53.111 7.60778 53.0656 6.95643 53.0028C6.38766 52.9479 5.68144 52.8764 5.23141 52.9038L5.34649 54.7886C5.60879 54.7726 6.12502 54.8196 6.77509 54.8824C7.34257 54.9371 8.04909 55.0083 8.49606 54.9778L8.36739 53.0939ZM5.23141 52.9038C3.92046 52.9839 3.18646 52.2446 1.91119 51.0811L0.63851 52.476C1.73672 53.478 3.08628 54.9266 5.34649 54.7886L5.23141 52.9038Z" fill="white"/>
<path d="M138.404 107.045C141.488 107.424 143.928 111.022 146.592 110.181C148.916 109.447 149.76 106.944 149.411 104.936C148.707 100.885 147.262 96.9733 145.944 92.839C144.85 89.4083 143.428 86.2415 143.978 83.0373C144.426 80.4234 144.709 77.5098 146.359 75.6102C147.864 73.8773 149.506 71.9625 150.684 69.9555C151.818 68.0253 152.913 66.0496 152.903 63.4915C152.893 61.299 151.965 59.444 150.675 57.3011C148.868 54.3009 148.006 51.5604 147.119 48.4941C145.822 44.0116 143.093 39.6247 138.772 36.4191C135.688 34.1318 132.438 31.5424 129.111 29.8552C125.608 28.0788 122.557 27.5156 119.042 27.0831C116.024 26.7118 112.99 26.0816 110.402 26.9309C107.279 27.9558 104.648 29.9772 102.333 31.9897C99.3434 34.5886 96.504 37.4111 95.0271 41.2639C93.844 44.3503 93.2632 47.8884 92.5736 51.2434C92.3335 52.4116 92.116 53.5849 91.9114 54.7694C91.7113 55.9278 91.1771 56.8756 91.1747 58.1059C91.1724 59.2893 90.7103 60.681 90.2391 61.6343C88.8726 64.3992 85.8887 66.6358 85.5341 70.0381C85.425 71.0847 85.6255 72.3915 85.6997 73.5036C85.9371 77.0614 88.7943 81.1381 91.8556 83.8029C95.1485 86.6693 99.0855 88.44 102.839 90.0876C105.95 91.4531 108.05 92.6008 110.679 95.0386C113.837 97.966 117.09 101.608 120.76 103.692C122.647 104.764 124.508 105.701 126.458 106.477C127.345 106.83 128.427 107.537 129.313 107.559C132.458 107.636 135.136 106.643 138.404 107.045Z" fill="white" stroke="white" stroke-width="1.71093" stroke-linecap="round"/>
<path d="M158.192 97.9523C158.277 101.401 152.311 108.095 152.311 108.095C152.311 108.095 161.148 101.398 165.778 98.3765C167.9 96.992 170.137 96.1454 172.14 94.535C174.196 92.882 175.87 90.5769 177.666 88.6393C179.12 87.0716 179.886 84.8199 181.645 83.5364C183.176 82.4192 184.35 81.3415 186.059 80.4481C187.496 79.6973 188.881 79.3587 190.388 78.816C191.663 78.3565 192.805 77.4913 193.935 76.7759C196.898 74.8999 199.583 73.3795 201.869 70.7034C203.311 69.0151 205 66.6249 204.845 64.2947C204.745 62.7843 204.553 60.9969 204.158 59.5478C202.844 54.7262 205.865 49.882 208.378 45.9367C209.672 43.9055 211.005 41.7893 211.735 39.4747C212.256 37.8194 213.446 36.5392 213.944 34.8995C215.285 30.486 216.847 25.2432 213.492 21.2618C212.198 19.7267 210.476 18.4054 209.005 17.0412C206.527 14.744 203.957 12.939 201.184 11.0093C198.499 9.14083 195.203 8.03304 191.897 8.34486C189.777 8.54476 186.72 8.67417 184.81 9.7531C180.632 12.1134 176.564 14.7705 173.6 18.6288C171.646 21.1722 169.503 23.888 168.462 26.9627C167.752 29.0596 167.167 31.2421 166.58 33.3768C165.261 38.1699 165.053 42.7282 165.104 47.6654C165.151 52.2173 164.785 57.0208 165.534 61.5382C165.86 63.4988 166.175 65.5569 165.667 67.5169C165.128 69.5943 163.615 70.6001 162.663 72.3799C161.494 74.5657 160.332 76.6727 159.287 78.9443C158.073 81.5802 157.5 84.4161 157.039 87.2783C156.463 90.8573 158.106 94.4188 158.192 97.9523Z" fill="white"/>
<path d="M152.311 108.095L151.672 107.526C151.379 107.855 151.383 108.352 151.682 108.676C151.981 108.999 152.476 109.043 152.827 108.777L152.311 108.095ZM158.192 97.9523L159.048 97.9314L159.048 97.9314L158.192 97.9523ZM157.039 87.2783L156.195 87.1423L157.039 87.2783ZM159.287 78.9443L158.509 78.5866L159.287 78.9443ZM162.663 72.3799L161.909 71.9764L162.663 72.3799ZM165.667 67.5169L164.838 67.3022L165.667 67.5169ZM165.534 61.5382L166.378 61.3983L165.534 61.5382ZM165.104 47.6654L164.249 47.6743L165.104 47.6654ZM166.58 33.3768L167.404 33.6038L167.404 33.6038L166.58 33.3768ZM168.462 26.9627L169.272 27.237L168.462 26.9627ZM173.6 18.6288L174.278 19.15L173.6 18.6288ZM184.81 9.7531L184.389 9.00827L184.389 9.00827L184.81 9.7531ZM191.897 8.34486L191.816 7.49317L191.897 8.34486ZM201.184 11.0093L200.695 11.7115L201.184 11.0093ZM213.492 21.2618L214.146 20.7105L213.492 21.2618ZM213.944 34.8995L214.763 35.1481L213.944 34.8995ZM211.735 39.4747L212.551 39.7318L212.551 39.7318L211.735 39.4747ZM208.378 45.9367L209.099 46.3963L208.378 45.9367ZM204.158 59.5478L203.333 59.7727L203.333 59.7727L204.158 59.5478ZM204.845 64.2947L203.992 64.3514L203.992 64.3514L204.845 64.2947ZM201.869 70.7034L201.218 70.1478L201.869 70.7034ZM193.935 76.7759L193.478 76.0532L193.935 76.7759ZM190.388 78.816L190.098 78.0112L190.098 78.0112L190.388 78.816ZM186.059 80.4481L186.455 81.2063L186.455 81.2063L186.059 80.4481ZM181.645 83.5364L182.149 84.2274L181.645 83.5364ZM172.14 94.535L172.676 95.2017L172.14 94.535ZM165.778 98.3765L165.31 97.6601L165.778 98.3765ZM152.311 108.095C152.949 108.664 152.949 108.664 152.95 108.664C152.95 108.664 152.95 108.664 152.95 108.664C152.95 108.663 152.951 108.663 152.951 108.663C152.952 108.661 152.953 108.66 152.955 108.658C152.958 108.655 152.963 108.649 152.969 108.642C152.981 108.629 152.999 108.609 153.021 108.583C153.067 108.531 153.132 108.455 153.216 108.358C153.383 108.164 153.62 107.884 153.903 107.537C154.47 106.845 155.227 105.883 155.983 104.809C156.736 103.738 157.502 102.538 158.076 101.37C158.639 100.227 159.074 99.0077 159.048 97.9314L157.337 97.9731C157.353 98.6211 157.074 99.5316 156.541 100.614C156.021 101.671 155.311 102.791 154.584 103.825C153.858 104.855 153.129 105.783 152.58 106.453C152.305 106.788 152.077 107.058 151.918 107.244C151.838 107.336 151.776 107.408 151.734 107.456C151.713 107.48 151.697 107.498 151.687 107.509C151.681 107.515 151.678 107.52 151.675 107.523C151.674 107.524 151.673 107.525 151.673 107.526C151.672 107.526 151.672 107.526 151.672 107.526C151.672 107.526 151.672 107.526 151.672 107.526C151.672 107.526 151.672 107.526 152.311 108.095ZM159.048 97.9314C159.002 96.0701 158.545 94.191 158.207 92.4675C157.859 90.6985 157.622 89.0425 157.884 87.4142L156.195 87.1423C155.881 89.0931 156.176 91.0074 156.528 92.7973C156.888 94.6326 157.296 96.301 157.337 97.9731L159.048 97.9314ZM157.884 87.4142C158.343 84.5644 158.902 81.8259 160.064 79.3019L158.509 78.5866C157.245 81.3345 156.657 84.2678 156.195 87.1423L157.884 87.4142ZM160.064 79.3019C161.096 77.06 162.241 74.9827 163.417 72.7833L161.909 71.9764C160.747 74.1488 159.569 76.2854 158.509 78.5866L160.064 79.3019ZM163.417 72.7833C163.849 71.9759 164.389 71.3722 164.998 70.5818C165.587 69.8164 166.182 68.9366 166.495 67.7317L164.838 67.3022C164.612 68.1747 164.182 68.8365 163.642 69.5383C163.121 70.215 162.429 71.0041 161.909 71.9764L163.417 72.7833ZM166.495 67.7317C167.055 65.5695 166.699 63.3344 166.378 61.3983L164.69 61.6782C165.02 63.6631 165.294 65.5443 164.838 67.3022L166.495 67.7317ZM166.378 61.3983C165.643 56.9673 166.008 52.3126 165.959 47.6565L164.249 47.6743C164.295 52.1219 163.927 57.0744 164.69 61.6782L166.378 61.3983ZM165.959 47.6565C165.908 42.7464 166.117 38.282 167.404 33.6038L165.755 33.1499C164.404 38.0578 164.197 42.71 164.249 47.6743L165.959 47.6565ZM167.404 33.6038C167.995 31.4591 168.572 29.3049 169.272 27.237L167.652 26.6883C166.932 28.8144 166.339 31.0251 165.755 33.1499L167.404 33.6038ZM169.272 27.237C170.259 24.3239 172.299 21.7262 174.278 19.15L172.921 18.1076C170.992 20.6181 168.747 23.4521 167.652 26.6883L169.272 27.237ZM174.278 19.15C177.132 15.4352 181.072 12.8475 185.231 10.4979L184.389 9.00827C180.192 11.3794 175.996 14.1058 172.921 18.1076L174.278 19.15ZM185.231 10.4979C186.047 10.0366 187.164 9.75292 188.403 9.56515C189.639 9.37776 190.882 9.29982 191.977 9.19655L191.816 7.49317C190.792 7.58981 189.446 7.67652 188.146 7.87354C186.849 8.07017 185.482 8.39066 184.389 9.00827L185.231 10.4979ZM191.977 9.19655C195.042 8.90745 198.14 9.93363 200.695 11.7115L201.672 10.3071C198.857 8.34804 195.363 7.15863 191.816 7.49317L191.977 9.19655ZM200.695 11.7115C203.472 13.6437 205.995 15.4174 208.423 17.6685L209.586 16.4139C207.059 14.0705 204.442 12.2343 201.672 10.3071L200.695 11.7115ZM208.423 17.6685C209.98 19.112 211.587 20.3291 212.838 21.8132L214.146 20.7105C212.809 19.1243 210.972 17.6987 209.586 16.4139L208.423 17.6685ZM212.838 21.8132C214.333 23.5879 214.755 25.6544 214.625 27.8684C214.493 30.1102 213.801 32.4272 213.126 34.6509L214.763 35.1481C215.428 32.9583 216.187 30.4472 216.333 27.9688C216.48 25.4627 216.006 22.9171 214.146 20.7105L212.838 21.8132ZM213.126 34.6509C212.91 35.3607 212.541 36.0073 212.109 36.7517C211.692 37.4695 211.213 38.2844 210.919 39.2176L212.551 39.7318C212.778 39.0097 213.155 38.3568 213.588 37.6108C214.006 36.8914 214.481 36.078 214.763 35.1481L213.126 34.6509ZM210.919 39.2176C210.229 41.4076 208.959 43.4316 207.656 45.4771L209.099 46.3963C210.384 44.3794 211.782 42.1709 212.551 39.7318L210.919 39.2176ZM207.656 45.4771C206.405 47.4411 204.976 49.7054 204.036 52.1012C203.093 54.5051 202.61 57.1203 203.333 59.7727L204.983 59.3229C204.392 57.1537 204.762 54.936 205.629 52.7261C206.499 50.508 207.837 48.3776 209.099 46.3963L207.656 45.4771ZM203.333 59.7727C203.704 61.1367 203.892 62.8547 203.992 64.3514L205.699 64.238C205.598 62.7139 205.402 60.8571 204.983 59.3229L203.333 59.7727ZM203.992 64.3514C204.054 65.2963 203.744 66.3127 203.2 67.339C202.659 68.3595 201.921 69.3247 201.218 70.1478L202.519 71.2589C203.258 70.3938 204.086 69.3198 204.712 68.1405C205.334 66.9671 205.791 65.6233 205.699 64.238L203.992 64.3514ZM201.218 70.1478C199.037 72.7024 196.487 74.1475 193.478 76.0532L194.393 77.4987C197.308 75.6524 200.13 74.0566 202.519 71.2589L201.218 70.1478ZM193.478 76.0532C192.261 76.8238 191.256 77.594 190.098 78.0112L190.678 79.6208C192.07 79.1191 193.35 78.1589 194.393 77.4987L193.478 76.0532ZM190.098 78.0112C188.695 78.5165 187.167 78.9039 185.663 79.6899L186.455 81.2063C187.825 80.4906 189.067 80.2009 190.678 79.6208L190.098 78.0112ZM185.663 79.6899C183.879 80.6224 182.583 81.7926 181.141 82.8454L182.149 84.2274C183.768 83.0459 184.82 82.0607 186.455 81.2063L185.663 79.6899ZM181.141 82.8454C180.124 83.5874 179.421 84.5894 178.823 85.5175C178.198 86.4861 177.7 87.3453 177.039 88.0577L178.294 89.221C179.087 88.3656 179.699 87.3151 180.26 86.4451C180.848 85.5345 181.407 84.7689 182.149 84.2274L181.141 82.8454ZM177.039 88.0577C176.134 89.034 175.228 90.1387 174.358 91.1294C173.467 92.1438 172.573 93.0889 171.604 93.8683L172.676 95.2017C173.762 94.3281 174.734 93.2941 175.643 92.2583C176.574 91.1988 177.403 90.1822 178.294 89.221L177.039 88.0577ZM171.604 93.8683C170.664 94.6237 169.659 95.2084 168.594 95.7894C167.544 96.3615 166.408 96.9436 165.31 97.6601L166.245 99.0929C167.269 98.4249 168.312 97.8915 169.413 97.2916C170.497 96.7005 171.612 96.0567 172.676 95.2017L171.604 93.8683ZM165.31 97.6601C162.973 99.1856 159.588 101.628 156.801 103.68C155.404 104.708 154.153 105.641 153.251 106.317C152.8 106.655 152.436 106.929 152.184 107.119C152.059 107.213 151.961 107.287 151.895 107.337C151.862 107.362 151.837 107.381 151.82 107.394C151.811 107.4 151.805 107.405 151.801 107.408C151.798 107.41 151.797 107.411 151.796 107.412C151.795 107.413 151.795 107.413 151.794 107.413C151.794 107.413 151.794 107.413 151.794 107.413C151.794 107.413 151.794 107.413 152.311 108.095C152.827 108.777 152.827 108.777 152.827 108.777C152.828 108.777 152.828 108.777 152.828 108.777C152.828 108.777 152.828 108.776 152.829 108.776C152.83 108.775 152.832 108.774 152.834 108.772C152.838 108.769 152.844 108.764 152.852 108.758C152.869 108.745 152.894 108.726 152.927 108.702C152.993 108.652 153.089 108.579 153.214 108.485C153.465 108.296 153.827 108.023 154.277 107.686C155.176 107.012 156.423 106.082 157.815 105.058C160.604 103.006 163.953 100.589 166.245 99.0929L165.31 97.6601Z" fill="white"/>
<path d="M213.993 91.0739C211.607 92.246 204.317 89.365 205.564 92.4583C206.219 94.0798 207.891 94.3684 209.127 95.1695C211.145 96.4774 213.738 96.834 215.829 98.0289C216.735 98.5462 217.477 99.2842 218.356 99.8352C219.384 100.479 220.505 100.901 221.532 101.575C222.6 102.275 223.614 102.799 224.382 103.872C225.187 104.997 226.118 106.105 227.016 107.156C228.308 108.667 229.506 110.288 230.892 111.715C231.996 112.854 233.406 113.582 234.642 114.552C236.522 116.027 238.101 117.053 240.305 117.962L244.387 119.645C245.498 120.103 247.56 120.762 248.228 121.886C248.537 122.406 248.859 122.91 249.181 123.425C249.393 123.763 248.957 122.654 248.923 122.256C248.892 121.897 248.964 121.54 248.949 121.18C248.822 118.119 248.886 115.103 248.498 112.05C248.255 110.129 247.938 106.493 245.824 105.621C244.726 105.169 243.594 104.767 242.565 104.17C239.358 102.31 235.961 100.978 233.572 97.9775C232.394 96.4996 231.456 94.8411 230.527 93.1992C229.925 92.1355 229.163 90.9289 228.037 90.3457C225.981 89.2808 223.24 88.529 220.925 88.7141C219.764 88.8068 218.717 88.7029 217.719 89.2192C216.496 89.8521 215.23 90.4658 213.993 91.0739Z" stroke="white" stroke-width="1.77742" stroke-linecap="round"/>
<path d="M162.368 111.048C161.935 111.463 161.273 111.615 160.524 111.852C157.655 112.757 165.282 107.341 166.316 106.774C168.33 105.67 170.408 104.843 172.647 104.394C174.429 104.038 176.521 104.309 178.126 103.453C179.491 102.725 181.14 101.938 182.311 100.905C183.145 100.167 183.766 99.203 184.626 98.4893C185.38 97.8633 186.066 97.472 187.031 97.6485C188.775 97.9675 190.7 98.9285 192.339 99.6196C193.731 100.206 195.175 100.763 196.652 101.074C198.194 101.398 199.738 101.069 201.329 101.03C202.487 101.001 203.942 101.903 204.888 102.488L204.924 102.511C206.22 103.314 208.017 104.81 208.848 106.104C210.268 108.315 211.384 110.676 212.516 113.043C213.455 115.005 214.285 116.8 214.538 118.997C214.801 121.285 215.504 123.47 215.591 125.785C215.649 127.305 215.591 129.558 215.007 130.994C214.782 131.546 214.228 132.992 213.788 133.383C213.368 133.759 213.415 132.274 213.373 132.009C213.217 131.02 213.001 130.12 212.23 129.443C209.647 127.174 205.531 127.217 202.348 127.176C199.994 127.146 197.447 127.732 195.128 127.121C193.752 126.758 191.961 126.572 190.78 125.754C189.487 124.858 188.272 123.439 187.493 122.074C186.61 120.526 186.451 118.741 185.86 117.097C184.739 113.979 182.187 111.674 179.196 110.256C175.744 108.619 171.821 108.816 168.085 108.957C165.922 109.039 163.997 109.486 162.368 111.048Z" stroke="white" stroke-width="1.77742" stroke-linecap="round"/>
</svg>
