<svg width="292" height="275" viewBox="0 0 292 275" fill="none" xmlns="http://www.w3.org/2000/svg">
<mask id="mask0_186_4388" style="mask-type:alpha" maskUnits="userSpaceOnUse" x="9" y="0" width="274" height="275">
<rect width="273.75" height="273.75" transform="translate(9.125 0.806793)" fill="url(#paint0_radial_186_4388)"/>
</mask>
<g mask="url(#mask0_186_4388)">
<g clip-path="url(#clip0_186_4388)">
<g clip-path="url(#clip1_186_4388)">
<line x1="9.41016" y1="0.806793" x2="9.41016" y2="274.557" stroke="#CCCCFF" stroke-width="0.570312"/>
<line x1="27.6602" y1="0.806824" x2="27.6602" y2="274.557" stroke="#CCCCFF" stroke-width="0.570312"/>
<line x1="45.9102" y1="0.806824" x2="45.9102" y2="274.557" stroke="#CCCCFF" stroke-width="0.570312"/>
<line x1="64.1602" y1="0.806824" x2="64.1602" y2="274.557" stroke="#CCCCFF" stroke-width="0.570312"/>
<line x1="82.4102" y1="0.806824" x2="82.4102" y2="274.557" stroke="#CCCCFF" stroke-width="0.570312"/>
<line x1="100.66" y1="0.806824" x2="100.66" y2="274.557" stroke="#CCCCFF" stroke-width="0.570312"/>
<line x1="118.91" y1="0.806824" x2="118.91" y2="274.557" stroke="#CCCCFF" stroke-width="0.570312"/>
<line x1="137.16" y1="0.806824" x2="137.16" y2="274.557" stroke="#CCCCFF" stroke-width="0.570312"/>
<line x1="155.41" y1="0.806824" x2="155.41" y2="274.557" stroke="#CCCCFF" stroke-width="0.570312"/>
<line x1="173.66" y1="0.806824" x2="173.66" y2="274.557" stroke="#CCCCFF" stroke-width="0.570312"/>
<line x1="191.91" y1="0.806824" x2="191.91" y2="274.557" stroke="#CCCCFF" stroke-width="0.570312"/>
<line x1="210.16" y1="0.806824" x2="210.16" y2="274.557" stroke="#CCCCFF" stroke-width="0.570312"/>
<line x1="228.41" y1="0.806824" x2="228.41" y2="274.557" stroke="#CCCCFF" stroke-width="0.570312"/>
<line x1="246.66" y1="0.806824" x2="246.66" y2="274.557" stroke="#CCCCFF" stroke-width="0.570312"/>
<line x1="264.91" y1="0.806824" x2="264.91" y2="274.557" stroke="#CCCCFF" stroke-width="0.570312"/>
</g>
<rect x="9.41016" y="1.09195" width="273.18" height="273.18" stroke="#CCCCFF" stroke-width="0.570312"/>
<g clip-path="url(#clip2_186_4388)">
<line x1="9.125" y1="18.7717" x2="282.875" y2="18.7717" stroke="#CCCCFF" stroke-width="0.570312"/>
<line x1="9.125" y1="37.0217" x2="282.875" y2="37.0217" stroke="#CCCCFF" stroke-width="0.570312"/>
<line x1="9.125" y1="55.2717" x2="282.875" y2="55.2717" stroke="#CCCCFF" stroke-width="0.570312"/>
<line x1="9.125" y1="73.5217" x2="282.875" y2="73.5217" stroke="#CCCCFF" stroke-width="0.570312"/>
<line x1="9.125" y1="91.7717" x2="282.875" y2="91.7717" stroke="#CCCCFF" stroke-width="0.570312"/>
<line x1="9.125" y1="110.022" x2="282.875" y2="110.022" stroke="#CCCCFF" stroke-width="0.570312"/>
<line x1="9.125" y1="128.272" x2="282.875" y2="128.272" stroke="#CCCCFF" stroke-width="0.570312"/>
<line x1="9.125" y1="146.522" x2="282.875" y2="146.522" stroke="#CCCCFF" stroke-width="0.570312"/>
<line x1="9.125" y1="164.772" x2="282.875" y2="164.772" stroke="#CCCCFF" stroke-width="0.570312"/>
<line x1="9.125" y1="183.022" x2="282.875" y2="183.022" stroke="#CCCCFF" stroke-width="0.570312"/>
<line x1="9.125" y1="201.272" x2="282.875" y2="201.272" stroke="#CCCCFF" stroke-width="0.570312"/>
<line x1="9.125" y1="219.522" x2="282.875" y2="219.522" stroke="#CCCCFF" stroke-width="0.570312"/>
<line x1="9.125" y1="237.772" x2="282.875" y2="237.772" stroke="#CCCCFF" stroke-width="0.570312"/>
<line x1="9.125" y1="256.022" x2="282.875" y2="256.022" stroke="#CCCCFF" stroke-width="0.570312"/>
<line x1="9.125" y1="274.272" x2="282.875" y2="274.272" stroke="#CCCCFF" stroke-width="0.570312"/>
</g>
<rect x="9.41016" y="1.09195" width="273.18" height="273.18" stroke="#CCCCFF" stroke-width="0.570312"/>
</g>
</g>
<g filter="url(#filter0_dd_186_4388)">
<path d="M126.994 103.444C127.064 103.124 127.387 102.864 127.715 102.864H143.763C144.091 102.864 144.3 103.124 144.23 103.444L140.806 119.123C140.736 119.443 140.413 119.703 140.085 119.703H124.037C123.709 119.703 123.499 119.443 123.57 119.123L126.994 103.444Z" fill="url(#paint1_linear_186_4388)"/>
<path d="M147.796 103.444C147.866 103.124 148.189 102.864 148.518 102.864H175.264C179.203 102.864 181.715 105.984 180.874 109.832L171.49 152.802C171.42 153.123 171.097 153.383 170.769 153.383H155.561C155.233 153.383 154.91 153.643 154.84 153.963L151.416 169.641C151.346 169.962 151.555 170.222 151.884 170.222H167.091C167.419 170.222 167.628 170.482 167.558 170.803L164.134 186.481C164.064 186.802 163.741 187.062 163.413 187.062H147.365C147.037 187.062 146.828 186.802 146.898 186.481L150.322 170.803C150.392 170.482 150.182 170.222 149.854 170.222H133.806C133.478 170.222 133.269 169.962 133.339 169.641L136.763 153.963C136.833 153.643 137.156 153.383 137.484 153.383H153.532C153.86 153.383 154.183 153.123 154.253 152.802L160.721 123.187C161.141 121.263 159.885 119.703 157.916 119.703H144.84C144.512 119.703 144.302 119.443 144.372 119.123L147.796 103.444Z" fill="url(#paint2_linear_186_4388)"/>
<path d="M123.276 123.187C122.948 123.187 122.625 123.447 122.555 123.768L108.858 186.481C108.788 186.802 108.998 187.062 109.326 187.062H125.374C125.702 187.062 126.025 186.802 126.095 186.481L139.791 123.768C139.862 123.447 139.652 123.187 139.324 123.187H123.276Z" fill="url(#paint3_linear_186_4388)"/>
<path d="M127.414 103.444C127.435 103.351 127.529 103.275 127.625 103.275H143.673C143.769 103.275 143.83 103.351 143.809 103.444L140.385 119.123C140.365 119.216 140.271 119.292 140.175 119.292H124.127C124.031 119.292 123.97 119.216 123.99 119.123L127.414 103.444ZM148.217 103.444C148.238 103.351 148.332 103.275 148.428 103.275H175.174C178.881 103.275 181.245 106.211 180.454 109.832L171.069 152.802C171.048 152.896 170.954 152.971 170.858 152.971H155.651C155.09 152.971 154.539 153.415 154.419 153.963L150.995 169.641C150.876 170.189 151.233 170.633 151.794 170.633H167.001C167.097 170.633 167.158 170.709 167.138 170.803L163.713 186.481C163.693 186.575 163.599 186.651 163.503 186.651H147.455C147.359 186.651 147.298 186.575 147.318 186.481L150.743 170.803C150.862 170.255 150.505 169.811 149.944 169.811H133.896C133.8 169.811 133.739 169.735 133.76 169.641L137.184 153.963C137.204 153.87 137.299 153.794 137.394 153.794H153.442C154.003 153.794 154.554 153.35 154.674 152.802L161.142 123.187C161.612 121.036 160.207 119.292 158.006 119.292H144.93C144.834 119.292 144.773 119.216 144.793 119.123L148.217 103.444ZM122.976 123.768C122.996 123.674 123.09 123.598 123.186 123.598H139.234C139.33 123.598 139.391 123.674 139.371 123.768L125.674 186.481C125.654 186.575 125.559 186.651 125.464 186.651H109.416C109.32 186.651 109.259 186.575 109.279 186.481L122.976 123.768Z" stroke="url(#paint4_linear_186_4388)" stroke-width="0.841535"/>
</g>
<g filter="url(#filter1_d_186_4388)">
<path d="M165.836 165.378L166.683 167.579C166.801 167.887 166.861 168.042 166.953 168.171C167.035 168.286 167.135 168.387 167.25 168.469C167.38 168.561 167.534 168.62 167.843 168.739L170.044 169.585L167.843 170.432C167.534 170.551 167.38 170.61 167.25 170.702C167.135 170.784 167.035 170.884 166.953 170.999C166.861 171.129 166.801 171.283 166.683 171.592L165.836 173.793L164.99 171.592C164.871 171.283 164.812 171.129 164.719 170.999C164.637 170.884 164.537 170.784 164.422 170.702C164.292 170.61 164.138 170.551 163.829 170.432L161.628 169.585L163.829 168.739C164.138 168.62 164.292 168.561 164.422 168.469C164.537 168.387 164.637 168.286 164.719 168.171C164.812 168.042 164.871 167.887 164.99 167.579L165.836 165.378Z" fill="url(#paint5_linear_186_4388)"/>
<path d="M166.061 165.291C166.025 165.199 165.936 165.137 165.836 165.137C165.737 165.137 165.647 165.199 165.612 165.291L164.765 167.492C164.642 167.812 164.594 167.933 164.523 168.032C164.457 168.125 164.376 168.206 164.283 168.273C164.183 168.343 164.063 168.391 163.743 168.514L161.542 169.361C161.449 169.397 161.388 169.486 161.388 169.585C161.388 169.685 161.449 169.774 161.542 169.81L163.743 170.656C164.063 170.779 164.183 170.828 164.283 170.898L164.422 170.702L164.283 170.898C164.376 170.964 164.457 171.046 164.523 171.139C164.594 171.238 164.642 171.358 164.765 171.678L165.612 173.879C165.647 173.972 165.737 174.033 165.836 174.033C165.936 174.033 166.025 173.972 166.061 173.879L166.907 171.678C167.03 171.358 167.078 171.238 167.149 171.139C167.215 171.046 167.296 170.964 167.389 170.898C167.489 170.828 167.609 170.779 167.929 170.656L170.13 169.81C170.223 169.774 170.284 169.685 170.284 169.585C170.284 169.486 170.223 169.397 170.13 169.361L167.929 168.514C167.609 168.391 167.489 168.343 167.389 168.273C167.296 168.206 167.215 168.125 167.149 168.032L166.953 168.171L167.149 168.032C167.078 167.933 167.03 167.812 166.907 167.492L166.061 165.291Z" stroke="url(#paint6_linear_186_4388)" stroke-width="0.480877" stroke-linecap="round" stroke-linejoin="round"/>
</g>
<g filter="url(#filter2_d_186_4388)">
<path d="M108.026 166.684L108.631 168.257C108.716 168.477 108.758 168.587 108.824 168.68C108.882 168.762 108.954 168.834 109.036 168.892C109.129 168.958 109.239 169 109.46 169.085L111.032 169.69L109.46 170.295C109.239 170.379 109.129 170.422 109.036 170.488C108.954 170.546 108.882 170.618 108.824 170.7C108.758 170.793 108.716 170.903 108.631 171.123L108.026 172.695L107.422 171.123C107.337 170.903 107.295 170.793 107.229 170.7C107.17 170.618 107.098 170.546 107.016 170.488C106.924 170.422 106.813 170.379 106.593 170.295L105.021 169.69L106.593 169.085C106.813 169 106.924 168.958 107.016 168.892C107.098 168.834 107.17 168.762 107.229 168.68C107.295 168.587 107.337 168.477 107.422 168.257L108.026 166.684Z" fill="url(#paint7_linear_186_4388)"/>
<path d="M108.251 166.598C108.215 166.505 108.126 166.444 108.026 166.444C107.927 166.444 107.838 166.505 107.802 166.598L107.197 168.17C107.108 168.402 107.077 168.478 107.033 168.541C106.99 168.601 106.937 168.653 106.877 168.696C106.815 168.74 106.739 168.772 106.507 168.861L104.935 169.466C104.842 169.501 104.78 169.59 104.78 169.69C104.78 169.789 104.842 169.879 104.935 169.914L106.507 170.519C106.739 170.608 106.815 170.639 106.877 170.684C106.937 170.726 106.99 170.779 107.033 170.839C107.077 170.902 107.108 170.978 107.197 171.21L107.802 172.782C107.838 172.875 107.927 172.936 108.026 172.936C108.126 172.936 108.215 172.875 108.251 172.782L108.855 171.21C108.945 170.978 108.976 170.902 109.02 170.839C109.063 170.779 109.116 170.726 109.176 170.684C109.238 170.639 109.314 170.608 109.546 170.519L111.118 169.914C111.211 169.879 111.272 169.789 111.272 169.69C111.272 169.59 111.211 169.501 111.118 169.466L109.546 168.861C109.314 168.772 109.238 168.74 109.176 168.696C109.116 168.653 109.063 168.601 109.02 168.541C108.976 168.478 108.945 168.402 108.855 168.17L108.251 166.598Z" stroke="url(#paint8_linear_186_4388)" stroke-width="0.480877" stroke-linecap="round" stroke-linejoin="round"/>
</g>
<g filter="url(#filter3_f_186_4388)">
<ellipse cx="127.03" cy="172.855" rx="2.40688" ry="9.86822" transform="rotate(135 127.03 172.855)" fill="white"/>
</g>
<defs>
<filter id="filter0_dd_186_4388" x="89.6098" y="95.6506" width="110.662" height="122.668" filterUnits="userSpaceOnUse" color-interpolation-filters="sRGB">
<feFlood flood-opacity="0" result="BackgroundImageFix"/>
<feColorMatrix in="SourceAlpha" type="matrix" values="0 0 0 0 0 0 0 0 0 0 0 0 0 0 0 0 0 0 127 0" result="hardAlpha"/>
<feOffset dy="12.0219"/>
<feGaussianBlur stdDeviation="9.61754"/>
<feComposite in2="hardAlpha" operator="out"/>
<feColorMatrix type="matrix" values="0 0 0 0 0 0 0 0 0 0 0 0 0 0 1 0 0 0 0.4 0"/>
<feBlend mode="normal" in2="BackgroundImageFix" result="effect1_dropShadow_186_4388"/>
<feColorMatrix in="SourceAlpha" type="matrix" values="0 0 0 0 0 0 0 0 0 0 0 0 0 0 0 0 0 0 127 0" result="hardAlpha"/>
<feOffset dy="2.40439"/>
<feComposite in2="hardAlpha" operator="out"/>
<feColorMatrix type="matrix" values="0 0 0 0 0.67 0 0 0 0 0.67 0 0 0 0 1 0 0 0 1 0"/>
<feBlend mode="normal" in2="effect1_dropShadow_186_4388" result="effect2_dropShadow_186_4388"/>
<feBlend mode="normal" in="SourceGraphic" in2="effect2_dropShadow_186_4388" result="shape"/>
</filter>
<filter id="filter1_d_186_4388" x="141.912" y="157.684" width="47.8473" height="47.8473" filterUnits="userSpaceOnUse" color-interpolation-filters="sRGB">
<feFlood flood-opacity="0" result="BackgroundImageFix"/>
<feColorMatrix in="SourceAlpha" type="matrix" values="0 0 0 0 0 0 0 0 0 0 0 0 0 0 0 0 0 0 127 0" result="hardAlpha"/>
<feOffset dy="12.0219"/>
<feGaussianBlur stdDeviation="9.61754"/>
<feComposite in2="hardAlpha" operator="out"/>
<feColorMatrix type="matrix" values="0 0 0 0 0 0 0 0 0 0 0 0 0 0 1 0 0 0 0.4 0"/>
<feBlend mode="normal" in2="BackgroundImageFix" result="effect1_dropShadow_186_4388"/>
<feBlend mode="normal" in="SourceGraphic" in2="effect1_dropShadow_186_4388" result="shape"/>
</filter>
<filter id="filter2_d_186_4388" x="85.3049" y="158.99" width="45.4429" height="45.4429" filterUnits="userSpaceOnUse" color-interpolation-filters="sRGB">
<feFlood flood-opacity="0" result="BackgroundImageFix"/>
<feColorMatrix in="SourceAlpha" type="matrix" values="0 0 0 0 0 0 0 0 0 0 0 0 0 0 0 0 0 0 127 0" result="hardAlpha"/>
<feOffset dy="12.0219"/>
<feGaussianBlur stdDeviation="9.61754"/>
<feComposite in2="hardAlpha" operator="out"/>
<feColorMatrix type="matrix" values="0 0 0 0 0 0 0 0 0 0 0 0 0 0 1 0 0 0 0.4 0"/>
<feBlend mode="normal" in2="BackgroundImageFix" result="effect1_dropShadow_186_4388"/>
<feBlend mode="normal" in="SourceGraphic" in2="effect1_dropShadow_186_4388" result="shape"/>
</filter>
<filter id="filter3_f_186_4388" x="107.824" y="153.649" width="38.412" height="38.4121" filterUnits="userSpaceOnUse" color-interpolation-filters="sRGB">
<feFlood flood-opacity="0" result="BackgroundImageFix"/>
<feBlend mode="normal" in="SourceGraphic" in2="BackgroundImageFix" result="shape"/>
<feGaussianBlur stdDeviation="6.01096" result="effect1_foregroundBlur_186_4388"/>
</filter>
<radialGradient id="paint0_radial_186_4388" cx="0" cy="0" r="1" gradientUnits="userSpaceOnUse" gradientTransform="translate(136.875 136.875) rotate(90) scale(136.875 136.875)">
<stop/>
<stop offset="1" stop-opacity="0"/>
</radialGradient>
<linearGradient id="paint1_linear_186_4388" x1="168.842" y1="102.864" x2="156.154" y2="193.395" gradientUnits="userSpaceOnUse">
<stop offset="0.00529027" stop-color="#DDDDFD"/>
<stop offset="0.27192" stop-color="#EEEEFF"/>
<stop offset="0.463008" stop-color="white"/>
<stop offset="0.540463" stop-color="#F8F8FF"/>
<stop offset="1" stop-color="white"/>
</linearGradient>
<linearGradient id="paint2_linear_186_4388" x1="168.842" y1="102.864" x2="156.154" y2="193.395" gradientUnits="userSpaceOnUse">
<stop offset="0.00529027" stop-color="#DDDDFD"/>
<stop offset="0.27192" stop-color="#EEEEFF"/>
<stop offset="0.463008" stop-color="white"/>
<stop offset="0.540463" stop-color="#F8F8FF"/>
<stop offset="1" stop-color="white"/>
</linearGradient>
<linearGradient id="paint3_linear_186_4388" x1="168.842" y1="102.864" x2="156.154" y2="193.395" gradientUnits="userSpaceOnUse">
<stop offset="0.00529027" stop-color="#DDDDFD"/>
<stop offset="0.27192" stop-color="#EEEEFF"/>
<stop offset="0.463008" stop-color="white"/>
<stop offset="0.540463" stop-color="#F8F8FF"/>
<stop offset="1" stop-color="white"/>
</linearGradient>
<linearGradient id="paint4_linear_186_4388" x1="154.758" y1="102.864" x2="153.541" y2="189.687" gradientUnits="userSpaceOnUse">
<stop stop-color="white"/>
<stop offset="0.282966" stop-color="#F8F8FF"/>
<stop offset="0.423678" stop-color="white"/>
<stop offset="0.584349" stop-color="#BEBEFF"/>
<stop offset="0.688176" stop-color="white"/>
<stop offset="0.770455" stop-color="#EFEFFF"/>
<stop offset="1" stop-color="#D8D8FF"/>
</linearGradient>
<linearGradient id="paint5_linear_186_4388" x1="165.836" y1="165.378" x2="165.836" y2="173.793" gradientUnits="userSpaceOnUse">
<stop stop-color="#6B6BFF"/>
<stop offset="1" stop-color="#BFBFFF"/>
</linearGradient>
<linearGradient id="paint6_linear_186_4388" x1="165.836" y1="165.378" x2="165.757" y2="174.03" gradientUnits="userSpaceOnUse">
<stop stop-color="white"/>
<stop offset="0.282966" stop-color="#F8F8FF"/>
<stop offset="0.423678" stop-color="white"/>
<stop offset="0.584349" stop-color="#BEBEFF"/>
<stop offset="0.688176" stop-color="white"/>
<stop offset="0.770455" stop-color="#EFEFFF"/>
<stop offset="1" stop-color="#D8D8FF"/>
</linearGradient>
<linearGradient id="paint7_linear_186_4388" x1="108.026" y1="166.684" x2="108.026" y2="172.695" gradientUnits="userSpaceOnUse">
<stop stop-color="#6B6BFF"/>
<stop offset="1" stop-color="#BFBFFF"/>
</linearGradient>
<linearGradient id="paint8_linear_186_4388" x1="108.026" y1="166.684" x2="107.97" y2="172.865" gradientUnits="userSpaceOnUse">
<stop stop-color="white"/>
<stop offset="0.282966" stop-color="#F8F8FF"/>
<stop offset="0.423678" stop-color="white"/>
<stop offset="0.584349" stop-color="#BEBEFF"/>
<stop offset="0.688176" stop-color="white"/>
<stop offset="0.770455" stop-color="#EFEFFF"/>
<stop offset="1" stop-color="#D8D8FF"/>
</linearGradient>
<clipPath id="clip0_186_4388">
<rect width="273.75" height="273.75" fill="white" transform="translate(9.125 0.806793)"/>
</clipPath>
<clipPath id="clip1_186_4388">
<rect x="9.125" y="0.806793" width="273.75" height="273.75" fill="white"/>
</clipPath>
<clipPath id="clip2_186_4388">
<rect x="9.125" y="0.806793" width="273.75" height="273.75" fill="white"/>
</clipPath>
</defs>
</svg>
