<svg width="261" height="133" viewBox="0 0 261 133" fill="none" xmlns="http://www.w3.org/2000/svg">
<g opacity="0.7">
<path d="M43.2765 104.476C46.4422 106.028 47.7506 109.852 46.1988 113.018C44.6471 116.183 40.8228 117.492 37.6571 115.94C34.4913 114.388 33.1829 110.564 34.7347 107.398C36.2865 104.233 40.1107 102.924 43.2765 104.476Z" fill="white"/>
<path d="M55.6559 93.7244C57.2076 90.5587 55.8992 86.7344 52.7335 85.1826C49.5678 83.6309 45.7435 84.9393 44.1917 88.105C42.64 91.2707 43.9484 95.095 47.1141 96.6468C50.2798 98.1985 54.1041 96.8901 55.6559 93.7244Z" fill="white"/>
<path fill-rule="evenodd" clip-rule="evenodd" d="M25.6194 88.018C26.272 84.9505 24.7915 81.7167 21.8474 80.2736C18.3728 78.5704 14.1755 80.0065 12.4723 83.4811C10.7692 86.9556 12.2052 91.153 15.6798 92.8562C18.5734 94.2745 21.9683 93.5157 24.0064 91.2155L30.2442 94.2731L21.2669 112.588C20.2829 114.595 21.1126 117.02 23.1201 118.005L28.2999 120.543C28.2727 120.587 28.2475 120.633 28.2244 120.68L28.0874 120.96C27.7089 121.732 28.028 122.664 28.8001 123.043L37.1885 127.155C37.9606 127.533 38.8934 127.214 39.2719 126.442L39.4089 126.162C39.4228 126.134 39.4358 126.105 39.4478 126.077C39.4558 126.058 39.4634 126.038 39.4706 126.019L44.9299 128.695C46.9375 129.679 49.3626 128.849 50.3466 126.842L69.1237 88.5349C70.1077 86.5274 69.278 84.1022 67.2705 83.1182L61.8111 80.4421C61.8382 80.3984 61.8634 80.3529 61.8865 80.3057L62.0236 80.0261C62.4021 79.254 62.0829 78.3212 61.3108 77.9427L52.9224 73.831C52.1503 73.4525 51.2175 73.7716 50.8391 74.5438L50.702 74.8234C50.6789 74.8706 50.6584 74.9184 50.6404 74.9666L45.4606 72.4276C43.4531 71.4436 41.028 72.2733 40.0439 74.2808L32.5057 89.6595L35.7212 91.2357L35.036 92.6338L25.6194 88.018ZM27.8296 114.764C25.822 113.78 24.9923 111.355 25.9764 109.347L27.201 106.849C27.6878 105.856 28.7025 105.231 29.8086 105.244C30.9146 105.256 31.9293 104.632 32.4162 103.638L39.7996 88.5755C40.2864 87.5823 40.1586 86.3976 39.4712 85.531C38.7838 84.6644 38.656 83.4797 39.1429 82.4865L40.3675 79.9881C41.3515 77.9806 43.7767 77.1509 45.7842 78.1349L60.4639 85.3305C62.4714 86.3145 63.3011 88.7397 62.3171 90.7472L47.926 120.107C46.9419 122.114 44.5168 122.944 42.5092 121.96L27.8296 114.764Z" fill="white"/>
</g>
<path d="M100.048 39.8001L102.886 48.8802L69.9699 59.1657C65.3436 60.6113 62.7651 65.5336 64.2108 70.1599L66.7919 78.42C64.9576 79.3806 64.0149 81.5434 64.6544 83.5897L69.5855 99.3703C70.2249 101.417 72.2313 102.658 74.2862 102.403L77.0316 111.189C78.4773 115.816 83.3996 118.394 88.0259 116.948L160.09 94.4297C164.717 92.9841 167.295 88.0618 165.85 83.4355L163.104 74.6494C164.938 73.6888 165.881 71.526 165.242 69.4796L160.31 53.6991C159.671 51.6527 157.665 50.4115 155.61 50.6661L153.029 42.4061C151.583 37.7798 146.661 35.2013 142.034 36.6469L113.103 45.6873L112.012 46.0284L109.204 37.0438C113.84 33.588 116.026 27.4622 114.203 21.6278C111.894 14.2416 104.036 10.125 96.6496 12.433C89.2634 14.741 85.1467 22.5998 87.4548 29.986C89.2471 35.7219 94.3848 39.4832 100.048 39.8001ZM75.83 101.986C75.8302 101.986 75.8304 101.986 75.8306 101.986L75.2592 100.479L75.83 101.986ZM100.733 94.7903C107.538 92.6638 111.331 85.4233 109.204 78.6181C107.078 71.813 99.8374 68.0201 93.0322 70.1466C86.227 72.2731 82.4342 79.5136 84.5607 86.3188C86.6872 93.124 93.9277 96.9168 100.733 94.7903ZM137.028 83.4488C143.833 81.3223 147.626 74.0818 145.5 67.2766C143.373 60.4714 136.133 56.6786 129.327 58.8051C122.522 60.9316 118.729 68.1721 120.856 74.9773C122.982 81.7824 130.223 85.5752 137.028 83.4488ZM77.1833 71.3027C76.2687 68.3757 77.9001 65.2615 80.827 64.3468L85.5271 62.8782C86.8022 62.4797 88.1927 62.8501 89.1007 63.8301C90.8537 65.7221 93.5386 66.4372 96.0005 65.6679L124.337 56.8133C126.799 56.044 128.599 53.9274 128.963 51.3739C129.151 50.0513 130.084 48.9551 131.359 48.5566L136.059 47.088C138.986 46.1734 142.1 47.8047 143.015 50.7317L151.644 78.3476C152.559 81.2746 150.927 84.3888 148 85.3034L92.7686 102.562C89.8416 103.477 86.7274 101.846 85.8128 98.9186L77.1833 71.3027Z" fill="white" stroke="#001AFF" stroke-width="3.22368"/>
<g opacity="0.3">
<path d="M216.402 79.4345C214.92 82.6336 211.126 84.0258 207.927 82.544C204.728 81.0623 203.335 77.2677 204.817 74.0686C206.299 70.8695 210.094 69.4773 213.293 70.9591C216.492 72.4408 217.884 76.2354 216.402 79.4345Z" fill="white"/>
<path d="M227.423 91.5745C230.622 93.0562 234.417 91.664 235.899 88.4649C237.381 85.2658 235.988 81.4713 232.789 79.9895C229.59 78.5078 225.796 79.8999 224.314 83.099C222.832 86.2981 224.224 90.0927 227.423 91.5745Z" fill="white"/>
<path fill-rule="evenodd" clip-rule="evenodd" d="M232.468 61.4198C235.549 62.0047 238.749 60.4535 240.127 57.4784C241.754 53.9672 240.226 49.8024 236.714 48.1761C233.203 46.5498 229.038 48.0778 227.412 51.589C226.058 54.5131 226.891 57.8904 229.236 59.8775L226.316 66.181L207.808 57.6087C205.779 56.6691 203.373 57.5519 202.434 59.5806L200.009 64.8149C199.965 64.7888 199.919 64.7646 199.871 64.7425L199.588 64.6116C198.808 64.2502 197.883 64.5898 197.521 65.3701L193.595 73.8469C193.234 74.6271 193.573 75.5526 194.353 75.914L194.636 76.0449C194.665 76.0582 194.693 76.0705 194.722 76.0819C194.742 76.0895 194.761 76.0966 194.781 76.1034L192.225 81.6203C191.286 83.649 192.168 86.0553 194.197 86.9949L232.908 104.925C234.937 105.864 237.343 104.982 238.282 102.953L240.838 97.4361C240.882 97.4622 240.928 97.4864 240.976 97.5085L241.258 97.6393C242.039 98.0008 242.964 97.6612 243.326 96.8809L247.252 88.4041C247.613 87.6239 247.274 86.6984 246.493 86.337L246.211 86.2061C246.163 86.184 246.115 86.1645 246.066 86.1476L248.491 80.9133C249.43 78.8846 248.548 76.4783 246.519 75.5386L230.978 68.3405L229.473 71.5899L228.06 70.9355L232.468 61.4198ZM205.777 64.2176C206.716 62.1889 209.123 61.3061 211.151 62.2457L213.676 63.4151C214.68 63.88 215.327 64.8807 215.338 65.9868C215.35 67.0929 215.997 68.0935 217.001 68.5584L232.222 75.6087C233.226 76.0736 234.408 75.9198 235.259 75.2135C236.11 74.5072 237.292 74.3534 238.295 74.8183L240.82 75.9877C242.849 76.9273 243.732 79.3336 242.792 81.3623L235.921 96.1967C234.981 98.2254 232.575 99.1083 230.546 98.1686L200.878 84.4267C198.849 83.487 197.966 81.0807 198.906 79.052L205.777 64.2176Z" fill="white"/>
</g>
</svg>
