<svg width="390" height="505" viewBox="0 0 390 505" fill="none" xmlns="http://www.w3.org/2000/svg">
<mask id="mask0_187_4922" style="mask-type:alpha" maskUnits="userSpaceOnUse" x="-58" y="0" width="506" height="505">
<rect width="504.644" height="504.644" transform="translate(-57.1787 0.132812)" fill="url(#paint0_radial_187_4922)"/>
</mask>
<g mask="url(#mask0_187_4922)">
<g clip-path="url(#clip0_187_4922)">
<g clip-path="url(#clip1_187_4922)">
<line x1="10.6326" y1="0.132812" x2="10.6326" y2="504.777" stroke="#CCCCFF" stroke-width="1.05134"/>
<line x1="44.2757" y1="0.132812" x2="44.2757" y2="504.777" stroke="#CCCCFF" stroke-width="1.05134"/>
<line x1="77.9187" y1="0.132812" x2="77.9187" y2="504.777" stroke="#CCCCFF" stroke-width="1.05134"/>
<line x1="111.562" y1="0.132812" x2="111.562" y2="504.777" stroke="#CCCCFF" stroke-width="1.05134"/>
<line x1="145.204" y1="0.132812" x2="145.204" y2="504.777" stroke="#CCCCFF" stroke-width="1.05134"/>
<line x1="178.847" y1="0.132812" x2="178.847" y2="504.777" stroke="#CCCCFF" stroke-width="1.05134"/>
<line x1="212.491" y1="0.132812" x2="212.491" y2="504.777" stroke="#CCCCFF" stroke-width="1.05134"/>
<line x1="246.133" y1="0.132812" x2="246.133" y2="504.777" stroke="#CCCCFF" stroke-width="1.05134"/>
<line x1="279.776" y1="0.132812" x2="279.776" y2="504.777" stroke="#CCCCFF" stroke-width="1.05134"/>
<line x1="313.419" y1="0.132812" x2="313.419" y2="504.777" stroke="#CCCCFF" stroke-width="1.05134"/>
<line x1="347.062" y1="0.132812" x2="347.062" y2="504.777" stroke="#CCCCFF" stroke-width="1.05134"/>
<line x1="380.705" y1="0.132812" x2="380.705" y2="504.777" stroke="#CCCCFF" stroke-width="1.05134"/>
</g>
<rect x="-56.653" y="0.658483" width="503.593" height="503.593" stroke="#CCCCFF" stroke-width="1.05134"/>
<g clip-path="url(#clip2_187_4922)">
<line x1="-57.1787" y1="33.2501" x2="447.465" y2="33.2501" stroke="#CCCCFF" stroke-width="1.05134"/>
<line x1="-57.1787" y1="66.893" x2="447.465" y2="66.893" stroke="#CCCCFF" stroke-width="1.05134"/>
<line x1="-57.1787" y1="100.536" x2="447.465" y2="100.536" stroke="#CCCCFF" stroke-width="1.05134"/>
<line x1="-57.1787" y1="134.179" x2="447.465" y2="134.179" stroke="#CCCCFF" stroke-width="1.05134"/>
<line x1="-57.1787" y1="167.822" x2="447.465" y2="167.822" stroke="#CCCCFF" stroke-width="1.05134"/>
<line x1="-57.1787" y1="201.465" x2="447.465" y2="201.465" stroke="#CCCCFF" stroke-width="1.05134"/>
<line x1="-57.1787" y1="235.108" x2="447.465" y2="235.108" stroke="#CCCCFF" stroke-width="1.05134"/>
<line x1="-57.1787" y1="268.751" x2="447.465" y2="268.751" stroke="#CCCCFF" stroke-width="1.05134"/>
<line x1="-57.1787" y1="302.393" x2="447.465" y2="302.393" stroke="#CCCCFF" stroke-width="1.05134"/>
<line x1="-57.1787" y1="336.036" x2="447.465" y2="336.036" stroke="#CCCCFF" stroke-width="1.05134"/>
<line x1="-57.1787" y1="369.679" x2="447.465" y2="369.679" stroke="#CCCCFF" stroke-width="1.05134"/>
<line x1="-57.1787" y1="403.322" x2="447.465" y2="403.322" stroke="#CCCCFF" stroke-width="1.05134"/>
<line x1="-57.1787" y1="436.965" x2="447.465" y2="436.965" stroke="#CCCCFF" stroke-width="1.05134"/>
<line x1="-57.1787" y1="470.608" x2="447.465" y2="470.608" stroke="#CCCCFF" stroke-width="1.05134"/>
<line x1="-57.1787" y1="504.251" x2="447.465" y2="504.251" stroke="#CCCCFF" stroke-width="1.05134"/>
</g>
<rect x="-56.653" y="0.658483" width="503.593" height="503.593" stroke="#CCCCFF" stroke-width="1.05134"/>
</g>
</g>
<g filter="url(#filter0_dd_187_4922)">
<path d="M160.106 189.34C160.235 188.749 160.83 188.27 161.436 188.27H191.019C191.624 188.27 192.01 188.749 191.881 189.34L185.568 218.242C185.439 218.833 184.844 219.312 184.239 219.312H154.656C154.051 219.312 153.665 218.833 153.794 218.242L160.106 189.34Z" fill="url(#paint1_linear_187_4922)"/>
<path d="M198.455 189.34C198.584 188.749 199.179 188.27 199.784 188.27H249.09C256.351 188.27 260.982 194.021 259.432 201.115L242.132 280.328C242.003 280.919 241.408 281.398 240.803 281.398H212.769C212.164 281.398 211.569 281.877 211.44 282.469L205.127 311.371C204.998 311.962 205.384 312.441 205.989 312.441H234.023C234.628 312.441 235.014 312.92 234.885 313.512L228.573 342.414C228.444 343.005 227.848 343.484 227.243 343.484H197.66C197.055 343.484 196.669 343.005 196.798 342.414L203.11 313.512C203.239 312.92 202.853 312.441 202.248 312.441H172.665C172.06 312.441 171.674 311.962 171.803 311.371L178.115 282.469C178.244 281.877 178.84 281.398 179.445 281.398H209.028C209.633 281.398 210.228 280.919 210.358 280.328L222.281 225.735C223.055 222.188 220.74 219.312 217.109 219.312H193.004C192.399 219.312 192.013 218.833 192.143 218.242L198.455 189.34Z" fill="url(#paint2_linear_187_4922)"/>
<path d="M153.253 225.735C152.648 225.735 152.053 226.214 151.924 226.806L126.675 342.414C126.546 343.005 126.931 343.484 127.537 343.484H157.12C157.725 343.484 158.32 343.005 158.449 342.414L183.698 226.806C183.827 226.214 183.441 225.735 182.836 225.735H153.253Z" fill="url(#paint3_linear_187_4922)"/>
<path d="M160.882 189.34C160.919 189.167 161.093 189.027 161.27 189.027H190.853C191.03 189.027 191.143 189.167 191.105 189.34L184.793 218.242C184.755 218.415 184.581 218.555 184.405 218.555H154.821C154.644 218.555 154.532 218.415 154.569 218.242L160.882 189.34ZM199.23 189.34C199.268 189.167 199.442 189.027 199.619 189.027H248.924C255.757 189.027 260.115 194.439 258.657 201.115L241.357 280.328C241.319 280.5 241.145 280.64 240.968 280.64H212.934C211.901 280.64 210.884 281.459 210.664 282.469L204.352 311.371C204.131 312.38 204.79 313.199 205.824 313.199H233.857C234.034 313.199 234.147 313.339 234.109 313.512L227.797 342.414C227.759 342.586 227.585 342.726 227.409 342.726H197.825C197.649 342.726 197.536 342.586 197.574 342.414L203.886 313.512C204.106 312.502 203.447 311.683 202.414 311.683H172.831C172.654 311.683 172.541 311.543 172.579 311.371L178.891 282.469C178.929 282.296 179.103 282.156 179.279 282.156H208.863C209.896 282.156 210.913 281.337 211.133 280.328L223.056 225.735C223.922 221.769 221.334 218.555 217.275 218.555H193.17C192.993 218.555 192.88 218.415 192.918 218.242L199.23 189.34ZM152.699 226.806C152.737 226.633 152.911 226.493 153.087 226.493H182.671C182.848 226.493 182.96 226.633 182.923 226.806L157.674 342.414C157.636 342.586 157.462 342.726 157.285 342.726H127.702C127.525 342.726 127.413 342.586 127.45 342.414L152.699 226.806Z" stroke="url(#paint4_linear_187_4922)" stroke-width="1.55133"/>
</g>
<g filter="url(#filter1_d_187_4922)">
<path d="M231.71 303.511L233.271 307.568C233.49 308.137 233.599 308.421 233.769 308.661C233.92 308.873 234.105 309.058 234.317 309.208C234.556 309.379 234.841 309.488 235.409 309.707L239.467 311.267L235.409 312.828C234.841 313.047 234.556 313.156 234.317 313.326C234.105 313.477 233.92 313.662 233.769 313.874C233.599 314.113 233.49 314.398 233.271 314.966L231.71 319.024L230.15 314.966C229.931 314.398 229.822 314.113 229.651 313.874C229.501 313.662 229.315 313.477 229.103 313.326C228.864 313.156 228.58 313.047 228.011 312.828L223.954 311.267L228.011 309.707C228.58 309.488 228.864 309.379 229.103 309.208C229.315 309.058 229.501 308.873 229.651 308.661C229.822 308.421 229.931 308.137 230.15 307.568L231.71 303.511Z" fill="url(#paint5_linear_187_4922)"/>
<path d="M232.124 303.352C232.058 303.18 231.894 303.067 231.71 303.067C231.527 303.067 231.362 303.18 231.297 303.352L229.736 307.409C229.509 307.999 229.42 308.221 229.29 308.404C229.168 308.575 229.018 308.725 228.847 308.847C228.664 308.977 228.442 309.066 227.852 309.293L223.795 310.854C223.623 310.919 223.51 311.084 223.51 311.267C223.51 311.451 223.623 311.615 223.795 311.681L227.852 313.242C228.442 313.468 228.664 313.557 228.847 313.687C229.018 313.809 229.168 313.959 229.29 314.131C229.42 314.314 229.509 314.536 229.736 315.125L231.297 319.183C231.362 319.354 231.527 319.467 231.71 319.467C231.894 319.467 232.058 319.354 232.124 319.183L233.685 315.125C233.911 314.536 234 314.314 234.13 314.131C234.252 313.959 234.402 313.809 234.574 313.687C234.757 313.557 234.978 313.468 235.568 313.242L239.626 311.681C239.797 311.615 239.91 311.451 239.91 311.267C239.91 311.084 239.797 310.919 239.626 310.854L235.568 309.293C234.978 309.066 234.757 308.977 234.574 308.847C234.402 308.725 234.252 308.575 234.13 308.404C234 308.221 233.911 307.999 233.685 307.409L232.124 303.352Z" stroke="url(#paint6_linear_187_4922)" stroke-width="0.886472" stroke-linecap="round" stroke-linejoin="round"/>
</g>
<g filter="url(#filter2_d_187_4922)">
<path d="M125.141 305.92L126.256 308.818C126.412 309.224 126.49 309.427 126.612 309.598C126.719 309.75 126.852 309.882 127.003 309.989C127.174 310.111 127.377 310.189 127.783 310.345L130.681 311.46L127.783 312.575C127.377 312.731 127.174 312.809 127.003 312.931C126.852 313.038 126.719 313.171 126.612 313.322C126.49 313.493 126.412 313.696 126.256 314.102L125.141 317.001L124.026 314.102C123.87 313.696 123.792 313.493 123.67 313.322C123.563 313.171 123.43 313.038 123.279 312.931C123.108 312.809 122.905 312.731 122.499 312.575L119.601 311.46L122.499 310.345C122.905 310.189 123.108 310.111 123.279 309.989C123.43 309.882 123.563 309.75 123.67 309.598C123.792 309.427 123.87 309.224 124.026 308.818L125.141 305.92Z" fill="url(#paint7_linear_187_4922)"/>
<path d="M125.555 305.761C125.489 305.589 125.324 305.476 125.141 305.476C124.958 305.476 124.793 305.589 124.727 305.761L123.613 308.659C123.448 309.086 123.391 309.227 123.309 309.341C123.23 309.452 123.133 309.549 123.022 309.628C122.908 309.71 122.767 309.767 122.34 309.932L119.441 311.046C119.27 311.112 119.157 311.277 119.157 311.46C119.157 311.643 119.27 311.808 119.441 311.874L122.34 312.988C122.767 313.153 122.908 313.21 123.022 313.292C123.133 313.371 123.23 313.468 123.309 313.579C123.391 313.694 123.448 313.834 123.613 314.261L124.727 317.16C124.793 317.331 124.958 317.444 125.141 317.444C125.324 317.444 125.489 317.331 125.555 317.16L126.669 314.261C126.834 313.834 126.891 313.694 126.973 313.579C127.052 313.468 127.149 313.371 127.26 313.292C127.375 313.21 127.515 313.153 127.942 312.988L130.841 311.874C131.012 311.808 131.125 311.643 131.125 311.46C131.125 311.277 131.012 311.112 130.841 311.046L127.942 309.932C127.515 309.767 127.375 309.71 127.26 309.628C127.149 309.549 127.052 309.452 126.973 309.341C126.891 309.227 126.834 309.086 126.669 308.659L125.555 305.761Z" stroke="url(#paint8_linear_187_4922)" stroke-width="0.886472" stroke-linecap="round" stroke-linejoin="round"/>
</g>
<g filter="url(#filter3_f_187_4922)">
<ellipse cx="160.173" cy="317.295" rx="4.43697" ry="18.1916" transform="rotate(135 160.173 317.295)" fill="white"/>
</g>
<defs>
<filter id="filter0_dd_187_4922" x="91.191" y="174.972" width="203.999" height="226.132" filterUnits="userSpaceOnUse" color-interpolation-filters="sRGB">
<feFlood flood-opacity="0" result="BackgroundImageFix"/>
<feColorMatrix in="SourceAlpha" type="matrix" values="0 0 0 0 0 0 0 0 0 0 0 0 0 0 0 0 0 0 127 0" result="hardAlpha"/>
<feOffset dy="22.1618"/>
<feGaussianBlur stdDeviation="17.7294"/>
<feComposite in2="hardAlpha" operator="out"/>
<feColorMatrix type="matrix" values="0 0 0 0 0 0 0 0 0 0 0 0 0 0 1 0 0 0 0.4 0"/>
<feBlend mode="normal" in2="BackgroundImageFix" result="effect1_dropShadow_187_4922"/>
<feColorMatrix in="SourceAlpha" type="matrix" values="0 0 0 0 0 0 0 0 0 0 0 0 0 0 0 0 0 0 127 0" result="hardAlpha"/>
<feOffset dy="4.43236"/>
<feComposite in2="hardAlpha" operator="out"/>
<feColorMatrix type="matrix" values="0 0 0 0 0.67 0 0 0 0 0.67 0 0 0 0 1 0 0 0 1 0"/>
<feBlend mode="normal" in2="effect1_dropShadow_187_4922" result="effect2_dropShadow_187_4922"/>
<feBlend mode="normal" in="SourceGraphic" in2="effect2_dropShadow_187_4922" result="shape"/>
</filter>
<filter id="filter1_d_187_4922" x="187.609" y="289.327" width="88.2039" height="88.204" filterUnits="userSpaceOnUse" color-interpolation-filters="sRGB">
<feFlood flood-opacity="0" result="BackgroundImageFix"/>
<feColorMatrix in="SourceAlpha" type="matrix" values="0 0 0 0 0 0 0 0 0 0 0 0 0 0 0 0 0 0 127 0" result="hardAlpha"/>
<feOffset dy="22.1618"/>
<feGaussianBlur stdDeviation="17.7294"/>
<feComposite in2="hardAlpha" operator="out"/>
<feColorMatrix type="matrix" values="0 0 0 0 0 0 0 0 0 0 0 0 0 0 1 0 0 0 0.4 0"/>
<feBlend mode="normal" in2="BackgroundImageFix" result="effect1_dropShadow_187_4922"/>
<feBlend mode="normal" in="SourceGraphic" in2="effect1_dropShadow_187_4922" result="shape"/>
</filter>
<filter id="filter2_d_187_4922" x="83.2555" y="291.736" width="83.7713" height="83.7716" filterUnits="userSpaceOnUse" color-interpolation-filters="sRGB">
<feFlood flood-opacity="0" result="BackgroundImageFix"/>
<feColorMatrix in="SourceAlpha" type="matrix" values="0 0 0 0 0 0 0 0 0 0 0 0 0 0 0 0 0 0 127 0" result="hardAlpha"/>
<feOffset dy="22.1618"/>
<feGaussianBlur stdDeviation="17.7294"/>
<feComposite in2="hardAlpha" operator="out"/>
<feColorMatrix type="matrix" values="0 0 0 0 0 0 0 0 0 0 0 0 0 0 1 0 0 0 0.4 0"/>
<feBlend mode="normal" in2="BackgroundImageFix" result="effect1_dropShadow_187_4922"/>
<feBlend mode="normal" in="SourceGraphic" in2="effect1_dropShadow_187_4922" result="shape"/>
</filter>
<filter id="filter3_f_187_4922" x="124.768" y="281.89" width="70.8104" height="70.8107" filterUnits="userSpaceOnUse" color-interpolation-filters="sRGB">
<feFlood flood-opacity="0" result="BackgroundImageFix"/>
<feBlend mode="normal" in="SourceGraphic" in2="BackgroundImageFix" result="shape"/>
<feGaussianBlur stdDeviation="11.0809" result="effect1_foregroundBlur_187_4922"/>
</filter>
<radialGradient id="paint0_radial_187_4922" cx="0" cy="0" r="1" gradientUnits="userSpaceOnUse" gradientTransform="translate(252.322 252.322) rotate(90) scale(252.322 252.322)">
<stop/>
<stop offset="1" stop-opacity="0"/>
</radialGradient>
<linearGradient id="paint1_linear_187_4922" x1="237.25" y1="188.27" x2="213.862" y2="355.159" gradientUnits="userSpaceOnUse">
<stop offset="0.00529027" stop-color="#DDDDFD"/>
<stop offset="0.27192" stop-color="#EEEEFF"/>
<stop offset="0.463008" stop-color="white"/>
<stop offset="0.540463" stop-color="#F8F8FF"/>
<stop offset="1" stop-color="white"/>
</linearGradient>
<linearGradient id="paint2_linear_187_4922" x1="237.25" y1="188.27" x2="213.862" y2="355.159" gradientUnits="userSpaceOnUse">
<stop offset="0.00529027" stop-color="#DDDDFD"/>
<stop offset="0.27192" stop-color="#EEEEFF"/>
<stop offset="0.463008" stop-color="white"/>
<stop offset="0.540463" stop-color="#F8F8FF"/>
<stop offset="1" stop-color="white"/>
</linearGradient>
<linearGradient id="paint3_linear_187_4922" x1="237.25" y1="188.27" x2="213.862" y2="355.159" gradientUnits="userSpaceOnUse">
<stop offset="0.00529027" stop-color="#DDDDFD"/>
<stop offset="0.27192" stop-color="#EEEEFF"/>
<stop offset="0.463008" stop-color="white"/>
<stop offset="0.540463" stop-color="#F8F8FF"/>
<stop offset="1" stop-color="white"/>
</linearGradient>
<linearGradient id="paint4_linear_187_4922" x1="211.289" y1="188.27" x2="209.045" y2="348.324" gradientUnits="userSpaceOnUse">
<stop stop-color="white"/>
<stop offset="0.282966" stop-color="#F8F8FF"/>
<stop offset="0.423678" stop-color="white"/>
<stop offset="0.584349" stop-color="#BEBEFF"/>
<stop offset="0.688176" stop-color="white"/>
<stop offset="0.770455" stop-color="#EFEFFF"/>
<stop offset="1" stop-color="#D8D8FF"/>
</linearGradient>
<linearGradient id="paint5_linear_187_4922" x1="231.71" y1="303.511" x2="231.71" y2="319.024" gradientUnits="userSpaceOnUse">
<stop stop-color="#6B6BFF"/>
<stop offset="1" stop-color="#BFBFFF"/>
</linearGradient>
<linearGradient id="paint6_linear_187_4922" x1="231.71" y1="303.511" x2="231.564" y2="319.461" gradientUnits="userSpaceOnUse">
<stop stop-color="white"/>
<stop offset="0.282966" stop-color="#F8F8FF"/>
<stop offset="0.423678" stop-color="white"/>
<stop offset="0.584349" stop-color="#BEBEFF"/>
<stop offset="0.688176" stop-color="white"/>
<stop offset="0.770455" stop-color="#EFEFFF"/>
<stop offset="1" stop-color="#D8D8FF"/>
</linearGradient>
<linearGradient id="paint7_linear_187_4922" x1="125.141" y1="305.92" x2="125.141" y2="317.001" gradientUnits="userSpaceOnUse">
<stop stop-color="#6B6BFF"/>
<stop offset="1" stop-color="#BFBFFF"/>
</linearGradient>
<linearGradient id="paint8_linear_187_4922" x1="125.141" y1="305.92" x2="125.037" y2="317.312" gradientUnits="userSpaceOnUse">
<stop stop-color="white"/>
<stop offset="0.282966" stop-color="#F8F8FF"/>
<stop offset="0.423678" stop-color="white"/>
<stop offset="0.584349" stop-color="#BEBEFF"/>
<stop offset="0.688176" stop-color="white"/>
<stop offset="0.770455" stop-color="#EFEFFF"/>
<stop offset="1" stop-color="#D8D8FF"/>
</linearGradient>
<clipPath id="clip0_187_4922">
<rect width="504.644" height="504.644" fill="white" transform="translate(-57.1787 0.132812)"/>
</clipPath>
<clipPath id="clip1_187_4922">
<rect x="-57.1787" y="0.132812" width="504.644" height="504.644" fill="white"/>
</clipPath>
<clipPath id="clip2_187_4922">
<rect x="-57.1787" y="0.132812" width="504.644" height="504.644" fill="white"/>
</clipPath>
</defs>
</svg>
